<?xml version="1.0" encoding="utf-8" standalone="no"?>
<!DOCTYPE svg PUBLIC "-//W3C//DTD SVG 1.1//EN"
  "http://www.w3.org/Graphics/SVG/1.1/DTD/svg11.dtd">
<svg xmlns:xlink="http://www.w3.org/1999/xlink" width="739.8pt" height="513.36pt" viewBox="0 0 739.8 513.36" xmlns="http://www.w3.org/2000/svg" version="1.1">
 <metadata>
  <rdf:RDF xmlns:dc="http://purl.org/dc/elements/1.1/" xmlns:cc="http://creativecommons.org/ns#" xmlns:rdf="http://www.w3.org/1999/02/22-rdf-syntax-ns#">
   <cc:Work>
    <dc:type rdf:resource="http://purl.org/dc/dcmitype/StillImage"/>
    <dc:date>2026-03-29T04:23:54.538740</dc:date>
    <dc:format>image/svg+xml</dc:format>
    <dc:creator>
     <cc:Agent>
      <dc:title>Matplotlib v3.10.8, https://matplotlib.org/</dc:title>
     </cc:Agent>
    </dc:creator>
   </cc:Work>
  </rdf:RDF>
 </metadata>
 <defs>
  <style type="text/css">*{stroke-linejoin: round; stroke-linecap: butt}</style>
 </defs>
 <g id="figure_1">
  <g id="patch_1">
   <path d="M 0 513.36 
L 739.8 513.36 
L 739.8 -0 
L 0 -0 
z
" style="fill: #1565c0"/>
  </g>
  <g id="axes_1">
   <g id="text_1">
    <!-- ClassBridge -->
    <g style="fill: #ffffff" transform="translate(243.552969 73.728) scale(0.38 -0.38)">
     <defs>
      <path id="DejaVuSans-Bold-43" d="M 4288 256 
Q 3956 84 3597 -3 
Q 3238 -91 2847 -91 
Q 1681 -91 1000 561 
Q 319 1213 319 2328 
Q 319 3447 1000 4098 
Q 1681 4750 2847 4750 
Q 3238 4750 3597 4662 
Q 3956 4575 4288 4403 
L 4288 3438 
Q 3953 3666 3628 3772 
Q 3303 3878 2944 3878 
Q 2300 3878 1931 3465 
Q 1563 3053 1563 2328 
Q 1563 1606 1931 1193 
Q 2300 781 2944 781 
Q 3303 781 3628 887 
Q 3953 994 4288 1222 
L 4288 256 
z
" transform="scale(0.015625)"/>
      <path id="DejaVuSans-Bold-6c" d="M 538 4863 
L 1656 4863 
L 1656 0 
L 538 0 
L 538 4863 
z
" transform="scale(0.015625)"/>
      <path id="DejaVuSans-Bold-61" d="M 2106 1575 
Q 1756 1575 1579 1456 
Q 1403 1338 1403 1106 
Q 1403 894 1545 773 
Q 1688 653 1941 653 
Q 2256 653 2472 879 
Q 2688 1106 2688 1447 
L 2688 1575 
L 2106 1575 
z
M 3816 1997 
L 3816 0 
L 2688 0 
L 2688 519 
Q 2463 200 2181 54 
Q 1900 -91 1497 -91 
Q 953 -91 614 226 
Q 275 544 275 1050 
Q 275 1666 698 1953 
Q 1122 2241 2028 2241 
L 2688 2241 
L 2688 2328 
Q 2688 2594 2478 2717 
Q 2269 2841 1825 2841 
Q 1466 2841 1156 2769 
Q 847 2697 581 2553 
L 581 3406 
Q 941 3494 1303 3539 
Q 1666 3584 2028 3584 
Q 2975 3584 3395 3211 
Q 3816 2838 3816 1997 
z
" transform="scale(0.015625)"/>
      <path id="DejaVuSans-Bold-73" d="M 3272 3391 
L 3272 2541 
Q 2913 2691 2578 2766 
Q 2244 2841 1947 2841 
Q 1628 2841 1473 2761 
Q 1319 2681 1319 2516 
Q 1319 2381 1436 2309 
Q 1553 2238 1856 2203 
L 2053 2175 
Q 2913 2066 3209 1816 
Q 3506 1566 3506 1031 
Q 3506 472 3093 190 
Q 2681 -91 1863 -91 
Q 1516 -91 1145 -36 
Q 775 19 384 128 
L 384 978 
Q 719 816 1070 734 
Q 1422 653 1784 653 
Q 2113 653 2278 743 
Q 2444 834 2444 1013 
Q 2444 1163 2330 1236 
Q 2216 1309 1875 1350 
L 1678 1375 
Q 931 1469 631 1722 
Q 331 1975 331 2491 
Q 331 3047 712 3315 
Q 1094 3584 1881 3584 
Q 2191 3584 2531 3537 
Q 2872 3491 3272 3391 
z
" transform="scale(0.015625)"/>
      <path id="DejaVuSans-Bold-42" d="M 2456 2859 
Q 2741 2859 2887 2984 
Q 3034 3109 3034 3353 
Q 3034 3594 2887 3720 
Q 2741 3847 2456 3847 
L 1791 3847 
L 1791 2859 
L 2456 2859 
z
M 2497 819 
Q 2859 819 3042 972 
Q 3225 1125 3225 1434 
Q 3225 1738 3044 1889 
Q 2863 2041 2497 2041 
L 1791 2041 
L 1791 819 
L 2497 819 
z
M 3616 2497 
Q 4003 2384 4215 2081 
Q 4428 1778 4428 1338 
Q 4428 663 3972 331 
Q 3516 0 2584 0 
L 588 0 
L 588 4666 
L 2394 4666 
Q 3366 4666 3802 4372 
Q 4238 4078 4238 3431 
Q 4238 3091 4078 2852 
Q 3919 2613 3616 2497 
z
" transform="scale(0.015625)"/>
      <path id="DejaVuSans-Bold-72" d="M 3138 2547 
Q 2991 2616 2845 2648 
Q 2700 2681 2553 2681 
Q 2122 2681 1889 2404 
Q 1656 2128 1656 1613 
L 1656 0 
L 538 0 
L 538 3500 
L 1656 3500 
L 1656 2925 
Q 1872 3269 2151 3426 
Q 2431 3584 2822 3584 
Q 2878 3584 2943 3579 
Q 3009 3575 3134 3559 
L 3138 2547 
z
" transform="scale(0.015625)"/>
      <path id="DejaVuSans-Bold-69" d="M 538 3500 
L 1656 3500 
L 1656 0 
L 538 0 
L 538 3500 
z
M 538 4863 
L 1656 4863 
L 1656 3950 
L 538 3950 
L 538 4863 
z
" transform="scale(0.015625)"/>
      <path id="DejaVuSans-Bold-64" d="M 2919 2988 
L 2919 4863 
L 4044 4863 
L 4044 0 
L 2919 0 
L 2919 506 
Q 2688 197 2409 53 
Q 2131 -91 1766 -91 
Q 1119 -91 703 423 
Q 288 938 288 1747 
Q 288 2556 703 3070 
Q 1119 3584 1766 3584 
Q 2128 3584 2408 3439 
Q 2688 3294 2919 2988 
z
M 2181 722 
Q 2541 722 2730 984 
Q 2919 1247 2919 1747 
Q 2919 2247 2730 2509 
Q 2541 2772 2181 2772 
Q 1825 2772 1636 2509 
Q 1447 2247 1447 1747 
Q 1447 1247 1636 984 
Q 1825 722 2181 722 
z
" transform="scale(0.015625)"/>
      <path id="DejaVuSans-Bold-67" d="M 2919 594 
Q 2688 288 2409 144 
Q 2131 0 1766 0 
Q 1125 0 706 504 
Q 288 1009 288 1791 
Q 288 2575 706 3076 
Q 1125 3578 1766 3578 
Q 2131 3578 2409 3434 
Q 2688 3291 2919 2981 
L 2919 3500 
L 4044 3500 
L 4044 353 
Q 4044 -491 3511 -936 
Q 2978 -1381 1966 -1381 
Q 1638 -1381 1331 -1331 
Q 1025 -1281 716 -1178 
L 716 -306 
Q 1009 -475 1290 -558 
Q 1572 -641 1856 -641 
Q 2406 -641 2662 -400 
Q 2919 -159 2919 353 
L 2919 594 
z
M 2181 2772 
Q 1834 2772 1640 2515 
Q 1447 2259 1447 1791 
Q 1447 1309 1634 1061 
Q 1822 813 2181 813 
Q 2531 813 2725 1069 
Q 2919 1325 2919 1791 
Q 2919 2259 2725 2515 
Q 2531 2772 2181 2772 
z
" transform="scale(0.015625)"/>
      <path id="DejaVuSans-Bold-65" d="M 4031 1759 
L 4031 1441 
L 1416 1441 
Q 1456 1047 1700 850 
Q 1944 653 2381 653 
Q 2734 653 3104 758 
Q 3475 863 3866 1075 
L 3866 213 
Q 3469 63 3072 -14 
Q 2675 -91 2278 -91 
Q 1328 -91 801 392 
Q 275 875 275 1747 
Q 275 2603 792 3093 
Q 1309 3584 2216 3584 
Q 3041 3584 3536 3087 
Q 4031 2591 4031 1759 
z
M 2881 2131 
Q 2881 2450 2695 2645 
Q 2509 2841 2209 2841 
Q 1884 2841 1681 2658 
Q 1478 2475 1428 2131 
L 2881 2131 
z
" transform="scale(0.015625)"/>
     </defs>
     <use xlink:href="#DejaVuSans-Bold-43"/>
     <use xlink:href="#DejaVuSans-Bold-6c" transform="translate(73.388672 0)"/>
     <use xlink:href="#DejaVuSans-Bold-61" transform="translate(107.666016 0)"/>
     <use xlink:href="#DejaVuSans-Bold-73" transform="translate(175.146484 0)"/>
     <use xlink:href="#DejaVuSans-Bold-73" transform="translate(234.667969 0)"/>
     <use xlink:href="#DejaVuSans-Bold-42" transform="translate(294.189453 0)"/>
     <use xlink:href="#DejaVuSans-Bold-72" transform="translate(370.410156 0)"/>
     <use xlink:href="#DejaVuSans-Bold-69" transform="translate(419.726562 0)"/>
     <use xlink:href="#DejaVuSans-Bold-64" transform="translate(454.003906 0)"/>
     <use xlink:href="#DejaVuSans-Bold-67" transform="translate(525.585938 0)"/>
     <use xlink:href="#DejaVuSans-Bold-65" transform="translate(597.167969 0)"/>
    </g>
   </g>
   <g id="text_2">
    <!-- User Journey Guide -->
    <g style="fill: #ffffff; opacity: 0.9" transform="translate(254.38125 123.624) scale(0.24 -0.24)">
     <defs>
      <path id="DejaVuSans-55" d="M 556 4666 
L 1191 4666 
L 1191 1831 
Q 1191 1081 1462 751 
Q 1734 422 2344 422 
Q 2950 422 3222 751 
Q 3494 1081 3494 1831 
L 3494 4666 
L 4128 4666 
L 4128 1753 
Q 4128 841 3676 375 
Q 3225 -91 2344 -91 
Q 1459 -91 1007 375 
Q 556 841 556 1753 
L 556 4666 
z
" transform="scale(0.015625)"/>
      <path id="DejaVuSans-73" d="M 2834 3397 
L 2834 2853 
Q 2591 2978 2328 3040 
Q 2066 3103 1784 3103 
Q 1356 3103 1142 2972 
Q 928 2841 928 2578 
Q 928 2378 1081 2264 
Q 1234 2150 1697 2047 
L 1894 2003 
Q 2506 1872 2764 1633 
Q 3022 1394 3022 966 
Q 3022 478 2636 193 
Q 2250 -91 1575 -91 
Q 1294 -91 989 -36 
Q 684 19 347 128 
L 347 722 
Q 666 556 975 473 
Q 1284 391 1588 391 
Q 1994 391 2212 530 
Q 2431 669 2431 922 
Q 2431 1156 2273 1281 
Q 2116 1406 1581 1522 
L 1381 1569 
Q 847 1681 609 1914 
Q 372 2147 372 2553 
Q 372 3047 722 3315 
Q 1072 3584 1716 3584 
Q 2034 3584 2315 3537 
Q 2597 3491 2834 3397 
z
" transform="scale(0.015625)"/>
      <path id="DejaVuSans-65" d="M 3597 1894 
L 3597 1613 
L 953 1613 
Q 991 1019 1311 708 
Q 1631 397 2203 397 
Q 2534 397 2845 478 
Q 3156 559 3463 722 
L 3463 178 
Q 3153 47 2828 -22 
Q 2503 -91 2169 -91 
Q 1331 -91 842 396 
Q 353 884 353 1716 
Q 353 2575 817 3079 
Q 1281 3584 2069 3584 
Q 2775 3584 3186 3129 
Q 3597 2675 3597 1894 
z
M 3022 2063 
Q 3016 2534 2758 2815 
Q 2500 3097 2075 3097 
Q 1594 3097 1305 2825 
Q 1016 2553 972 2059 
L 3022 2063 
z
" transform="scale(0.015625)"/>
      <path id="DejaVuSans-72" d="M 2631 2963 
Q 2534 3019 2420 3045 
Q 2306 3072 2169 3072 
Q 1681 3072 1420 2755 
Q 1159 2438 1159 1844 
L 1159 0 
L 581 0 
L 581 3500 
L 1159 3500 
L 1159 2956 
Q 1341 3275 1631 3429 
Q 1922 3584 2338 3584 
Q 2397 3584 2469 3576 
Q 2541 3569 2628 3553 
L 2631 2963 
z
" transform="scale(0.015625)"/>
      <path id="DejaVuSans-20" transform="scale(0.015625)"/>
      <path id="DejaVuSans-4a" d="M 628 4666 
L 1259 4666 
L 1259 325 
Q 1259 -519 939 -900 
Q 619 -1281 -91 -1281 
L -331 -1281 
L -331 -750 
L -134 -750 
Q 284 -750 456 -515 
Q 628 -281 628 325 
L 628 4666 
z
" transform="scale(0.015625)"/>
      <path id="DejaVuSans-6f" d="M 1959 3097 
Q 1497 3097 1228 2736 
Q 959 2375 959 1747 
Q 959 1119 1226 758 
Q 1494 397 1959 397 
Q 2419 397 2687 759 
Q 2956 1122 2956 1747 
Q 2956 2369 2687 2733 
Q 2419 3097 1959 3097 
z
M 1959 3584 
Q 2709 3584 3137 3096 
Q 3566 2609 3566 1747 
Q 3566 888 3137 398 
Q 2709 -91 1959 -91 
Q 1206 -91 779 398 
Q 353 888 353 1747 
Q 353 2609 779 3096 
Q 1206 3584 1959 3584 
z
" transform="scale(0.015625)"/>
      <path id="DejaVuSans-75" d="M 544 1381 
L 544 3500 
L 1119 3500 
L 1119 1403 
Q 1119 906 1312 657 
Q 1506 409 1894 409 
Q 2359 409 2629 706 
Q 2900 1003 2900 1516 
L 2900 3500 
L 3475 3500 
L 3475 0 
L 2900 0 
L 2900 538 
Q 2691 219 2414 64 
Q 2138 -91 1772 -91 
Q 1169 -91 856 284 
Q 544 659 544 1381 
z
M 1991 3584 
L 1991 3584 
z
" transform="scale(0.015625)"/>
      <path id="DejaVuSans-6e" d="M 3513 2113 
L 3513 0 
L 2938 0 
L 2938 2094 
Q 2938 2591 2744 2837 
Q 2550 3084 2163 3084 
Q 1697 3084 1428 2787 
Q 1159 2491 1159 1978 
L 1159 0 
L 581 0 
L 581 3500 
L 1159 3500 
L 1159 2956 
Q 1366 3272 1645 3428 
Q 1925 3584 2291 3584 
Q 2894 3584 3203 3211 
Q 3513 2838 3513 2113 
z
" transform="scale(0.015625)"/>
      <path id="DejaVuSans-79" d="M 2059 -325 
Q 1816 -950 1584 -1140 
Q 1353 -1331 966 -1331 
L 506 -1331 
L 506 -850 
L 844 -850 
Q 1081 -850 1212 -737 
Q 1344 -625 1503 -206 
L 1606 56 
L 191 3500 
L 800 3500 
L 1894 763 
L 2988 3500 
L 3597 3500 
L 2059 -325 
z
" transform="scale(0.015625)"/>
      <path id="DejaVuSans-47" d="M 3809 666 
L 3809 1919 
L 2778 1919 
L 2778 2438 
L 4434 2438 
L 4434 434 
Q 4069 175 3628 42 
Q 3188 -91 2688 -91 
Q 1594 -91 976 548 
Q 359 1188 359 2328 
Q 359 3472 976 4111 
Q 1594 4750 2688 4750 
Q 3144 4750 3555 4637 
Q 3966 4525 4313 4306 
L 4313 3634 
Q 3963 3931 3569 4081 
Q 3175 4231 2741 4231 
Q 1884 4231 1454 3753 
Q 1025 3275 1025 2328 
Q 1025 1384 1454 906 
Q 1884 428 2741 428 
Q 3075 428 3337 486 
Q 3600 544 3809 666 
z
" transform="scale(0.015625)"/>
      <path id="DejaVuSans-69" d="M 603 3500 
L 1178 3500 
L 1178 0 
L 603 0 
L 603 3500 
z
M 603 4863 
L 1178 4863 
L 1178 4134 
L 603 4134 
L 603 4863 
z
" transform="scale(0.015625)"/>
      <path id="DejaVuSans-64" d="M 2906 2969 
L 2906 4863 
L 3481 4863 
L 3481 0 
L 2906 0 
L 2906 525 
Q 2725 213 2448 61 
Q 2172 -91 1784 -91 
Q 1150 -91 751 415 
Q 353 922 353 1747 
Q 353 2572 751 3078 
Q 1150 3584 1784 3584 
Q 2172 3584 2448 3432 
Q 2725 3281 2906 2969 
z
M 947 1747 
Q 947 1113 1208 752 
Q 1469 391 1925 391 
Q 2381 391 2643 752 
Q 2906 1113 2906 1747 
Q 2906 2381 2643 2742 
Q 2381 3103 1925 3103 
Q 1469 3103 1208 2742 
Q 947 2381 947 1747 
z
" transform="scale(0.015625)"/>
     </defs>
     <use xlink:href="#DejaVuSans-55"/>
     <use xlink:href="#DejaVuSans-73" transform="translate(73.193359 0)"/>
     <use xlink:href="#DejaVuSans-65" transform="translate(125.292969 0)"/>
     <use xlink:href="#DejaVuSans-72" transform="translate(186.816406 0)"/>
     <use xlink:href="#DejaVuSans-20" transform="translate(227.929688 0)"/>
     <use xlink:href="#DejaVuSans-4a" transform="translate(259.716797 0)"/>
     <use xlink:href="#DejaVuSans-6f" transform="translate(289.208984 0)"/>
     <use xlink:href="#DejaVuSans-75" transform="translate(350.390625 0)"/>
     <use xlink:href="#DejaVuSans-72" transform="translate(413.769531 0)"/>
     <use xlink:href="#DejaVuSans-6e" transform="translate(453.132812 0)"/>
     <use xlink:href="#DejaVuSans-65" transform="translate(516.511719 0)"/>
     <use xlink:href="#DejaVuSans-79" transform="translate(578.035156 0)"/>
     <use xlink:href="#DejaVuSans-20" transform="translate(637.214844 0)"/>
     <use xlink:href="#DejaVuSans-47" transform="translate(669.001953 0)"/>
     <use xlink:href="#DejaVuSans-75" transform="translate(746.492188 0)"/>
     <use xlink:href="#DejaVuSans-69" transform="translate(809.871094 0)"/>
     <use xlink:href="#DejaVuSans-64" transform="translate(837.654297 0)"/>
     <use xlink:href="#DejaVuSans-65" transform="translate(901.130859 0)"/>
    </g>
   </g>
   <g id="text_3">
    <!-- Parents · Students · Teachers -->
    <g style="fill: #ffffff; opacity: 0.75" transform="translate(268.500625 156.888) scale(0.14 -0.14)">
     <defs>
      <path id="DejaVuSans-50" d="M 1259 4147 
L 1259 2394 
L 2053 2394 
Q 2494 2394 2734 2622 
Q 2975 2850 2975 3272 
Q 2975 3691 2734 3919 
Q 2494 4147 2053 4147 
L 1259 4147 
z
M 628 4666 
L 2053 4666 
Q 2838 4666 3239 4311 
Q 3641 3956 3641 3272 
Q 3641 2581 3239 2228 
Q 2838 1875 2053 1875 
L 1259 1875 
L 1259 0 
L 628 0 
L 628 4666 
z
" transform="scale(0.015625)"/>
      <path id="DejaVuSans-61" d="M 2194 1759 
Q 1497 1759 1228 1600 
Q 959 1441 959 1056 
Q 959 750 1161 570 
Q 1363 391 1709 391 
Q 2188 391 2477 730 
Q 2766 1069 2766 1631 
L 2766 1759 
L 2194 1759 
z
M 3341 1997 
L 3341 0 
L 2766 0 
L 2766 531 
Q 2569 213 2275 61 
Q 1981 -91 1556 -91 
Q 1019 -91 701 211 
Q 384 513 384 1019 
Q 384 1609 779 1909 
Q 1175 2209 1959 2209 
L 2766 2209 
L 2766 2266 
Q 2766 2663 2505 2880 
Q 2244 3097 1772 3097 
Q 1472 3097 1187 3025 
Q 903 2953 641 2809 
L 641 3341 
Q 956 3463 1253 3523 
Q 1550 3584 1831 3584 
Q 2591 3584 2966 3190 
Q 3341 2797 3341 1997 
z
" transform="scale(0.015625)"/>
      <path id="DejaVuSans-74" d="M 1172 4494 
L 1172 3500 
L 2356 3500 
L 2356 3053 
L 1172 3053 
L 1172 1153 
Q 1172 725 1289 603 
Q 1406 481 1766 481 
L 2356 481 
L 2356 0 
L 1766 0 
Q 1100 0 847 248 
Q 594 497 594 1153 
L 594 3053 
L 172 3053 
L 172 3500 
L 594 3500 
L 594 4494 
L 1172 4494 
z
" transform="scale(0.015625)"/>
      <path id="DejaVuSans-b7" d="M 684 2619 
L 1344 2619 
L 1344 1825 
L 684 1825 
L 684 2619 
z
" transform="scale(0.015625)"/>
      <path id="DejaVuSans-53" d="M 3425 4513 
L 3425 3897 
Q 3066 4069 2747 4153 
Q 2428 4238 2131 4238 
Q 1616 4238 1336 4038 
Q 1056 3838 1056 3469 
Q 1056 3159 1242 3001 
Q 1428 2844 1947 2747 
L 2328 2669 
Q 3034 2534 3370 2195 
Q 3706 1856 3706 1288 
Q 3706 609 3251 259 
Q 2797 -91 1919 -91 
Q 1588 -91 1214 -16 
Q 841 59 441 206 
L 441 856 
Q 825 641 1194 531 
Q 1563 422 1919 422 
Q 2459 422 2753 634 
Q 3047 847 3047 1241 
Q 3047 1584 2836 1778 
Q 2625 1972 2144 2069 
L 1759 2144 
Q 1053 2284 737 2584 
Q 422 2884 422 3419 
Q 422 4038 858 4394 
Q 1294 4750 2059 4750 
Q 2388 4750 2728 4690 
Q 3069 4631 3425 4513 
z
" transform="scale(0.015625)"/>
      <path id="DejaVuSans-54" d="M -19 4666 
L 3928 4666 
L 3928 4134 
L 2272 4134 
L 2272 0 
L 1638 0 
L 1638 4134 
L -19 4134 
L -19 4666 
z
" transform="scale(0.015625)"/>
      <path id="DejaVuSans-63" d="M 3122 3366 
L 3122 2828 
Q 2878 2963 2633 3030 
Q 2388 3097 2138 3097 
Q 1578 3097 1268 2742 
Q 959 2388 959 1747 
Q 959 1106 1268 751 
Q 1578 397 2138 397 
Q 2388 397 2633 464 
Q 2878 531 3122 666 
L 3122 134 
Q 2881 22 2623 -34 
Q 2366 -91 2075 -91 
Q 1284 -91 818 406 
Q 353 903 353 1747 
Q 353 2603 823 3093 
Q 1294 3584 2113 3584 
Q 2378 3584 2631 3529 
Q 2884 3475 3122 3366 
z
" transform="scale(0.015625)"/>
      <path id="DejaVuSans-68" d="M 3513 2113 
L 3513 0 
L 2938 0 
L 2938 2094 
Q 2938 2591 2744 2837 
Q 2550 3084 2163 3084 
Q 1697 3084 1428 2787 
Q 1159 2491 1159 1978 
L 1159 0 
L 581 0 
L 581 4863 
L 1159 4863 
L 1159 2956 
Q 1366 3272 1645 3428 
Q 1925 3584 2291 3584 
Q 2894 3584 3203 3211 
Q 3513 2838 3513 2113 
z
" transform="scale(0.015625)"/>
     </defs>
     <use xlink:href="#DejaVuSans-50"/>
     <use xlink:href="#DejaVuSans-61" transform="translate(55.802734 0)"/>
     <use xlink:href="#DejaVuSans-72" transform="translate(117.082031 0)"/>
     <use xlink:href="#DejaVuSans-65" transform="translate(155.945312 0)"/>
     <use xlink:href="#DejaVuSans-6e" transform="translate(217.46875 0)"/>
     <use xlink:href="#DejaVuSans-74" transform="translate(280.847656 0)"/>
     <use xlink:href="#DejaVuSans-73" transform="translate(320.056641 0)"/>
     <use xlink:href="#DejaVuSans-20" transform="translate(372.15625 0)"/>
     <use xlink:href="#DejaVuSans-b7" transform="translate(403.943359 0)"/>
     <use xlink:href="#DejaVuSans-20" transform="translate(435.730469 0)"/>
     <use xlink:href="#DejaVuSans-53" transform="translate(467.517578 0)"/>
     <use xlink:href="#DejaVuSans-74" transform="translate(530.994141 0)"/>
     <use xlink:href="#DejaVuSans-75" transform="translate(570.203125 0)"/>
     <use xlink:href="#DejaVuSans-64" transform="translate(633.582031 0)"/>
     <use xlink:href="#DejaVuSans-65" transform="translate(697.058594 0)"/>
     <use xlink:href="#DejaVuSans-6e" transform="translate(758.582031 0)"/>
     <use xlink:href="#DejaVuSans-74" transform="translate(821.960938 0)"/>
     <use xlink:href="#DejaVuSans-73" transform="translate(861.169922 0)"/>
     <use xlink:href="#DejaVuSans-20" transform="translate(913.269531 0)"/>
     <use xlink:href="#DejaVuSans-b7" transform="translate(945.056641 0)"/>
     <use xlink:href="#DejaVuSans-20" transform="translate(976.84375 0)"/>
     <use xlink:href="#DejaVuSans-54" transform="translate(1008.630859 0)"/>
     <use xlink:href="#DejaVuSans-65" transform="translate(1052.714844 0)"/>
     <use xlink:href="#DejaVuSans-61" transform="translate(1114.238281 0)"/>
     <use xlink:href="#DejaVuSans-63" transform="translate(1175.517578 0)"/>
     <use xlink:href="#DejaVuSans-68" transform="translate(1230.498047 0)"/>
     <use xlink:href="#DejaVuSans-65" transform="translate(1293.876953 0)"/>
     <use xlink:href="#DejaVuSans-72" transform="translate(1355.400391 0)"/>
     <use xlink:href="#DejaVuSans-73" transform="translate(1396.513672 0)"/>
    </g>
   </g>
   <g id="patch_2">
    <path d="M 71.37 253.908 
L 222.03 253.908 
Q 235.98 253.908 235.98 240.048 
L 235.98 217.872 
Q 235.98 204.012 222.03 204.012 
L 71.37 204.012 
Q 57.42 204.012 57.42 217.872 
L 57.42 240.048 
Q 57.42 253.908 71.37 253.908 
z
" clip-path="url(#p7531092e94)" style="fill: #1565c0; stroke: #e3f2fd; stroke-width: 2; stroke-linejoin: miter"/>
   </g>
   <g id="patch_3">
    <path d="M 294.57 253.908 
L 445.23 253.908 
Q 459.18 253.908 459.18 240.048 
L 459.18 217.872 
Q 459.18 204.012 445.23 204.012 
L 294.57 204.012 
Q 280.62 204.012 280.62 217.872 
L 280.62 240.048 
Q 280.62 253.908 294.57 253.908 
z
" clip-path="url(#p7531092e94)" style="fill: #2e7d32; stroke: #e8f5e9; stroke-width: 2; stroke-linejoin: miter"/>
   </g>
   <g id="patch_4">
    <path d="M 517.77 253.908 
L 668.43 253.908 
Q 682.38 253.908 682.38 240.048 
L 682.38 217.872 
Q 682.38 204.012 668.43 204.012 
L 517.77 204.012 
Q 503.82 204.012 503.82 217.872 
L 503.82 240.048 
Q 503.82 253.908 517.77 253.908 
z
" clip-path="url(#p7531092e94)" style="fill: #e65100; stroke: #fff3e0; stroke-width: 2; stroke-linejoin: miter"/>
   </g>
   <g id="text_4">
    <!-- How to Read These Diagrams -->
    <g style="fill: #ffffff; opacity: 0.85" transform="translate(281.219063 284.4) scale(0.12 -0.12)">
     <defs>
      <path id="DejaVuSans-48" d="M 628 4666 
L 1259 4666 
L 1259 2753 
L 3553 2753 
L 3553 4666 
L 4184 4666 
L 4184 0 
L 3553 0 
L 3553 2222 
L 1259 2222 
L 1259 0 
L 628 0 
L 628 4666 
z
" transform="scale(0.015625)"/>
      <path id="DejaVuSans-77" d="M 269 3500 
L 844 3500 
L 1563 769 
L 2278 3500 
L 2956 3500 
L 3675 769 
L 4391 3500 
L 4966 3500 
L 4050 0 
L 3372 0 
L 2619 2869 
L 1863 0 
L 1184 0 
L 269 3500 
z
" transform="scale(0.015625)"/>
      <path id="DejaVuSans-52" d="M 2841 2188 
Q 3044 2119 3236 1894 
Q 3428 1669 3622 1275 
L 4263 0 
L 3584 0 
L 2988 1197 
Q 2756 1666 2539 1819 
Q 2322 1972 1947 1972 
L 1259 1972 
L 1259 0 
L 628 0 
L 628 4666 
L 2053 4666 
Q 2853 4666 3247 4331 
Q 3641 3997 3641 3322 
Q 3641 2881 3436 2590 
Q 3231 2300 2841 2188 
z
M 1259 4147 
L 1259 2491 
L 2053 2491 
Q 2509 2491 2742 2702 
Q 2975 2913 2975 3322 
Q 2975 3731 2742 3939 
Q 2509 4147 2053 4147 
L 1259 4147 
z
" transform="scale(0.015625)"/>
      <path id="DejaVuSans-44" d="M 1259 4147 
L 1259 519 
L 2022 519 
Q 2988 519 3436 956 
Q 3884 1394 3884 2338 
Q 3884 3275 3436 3711 
Q 2988 4147 2022 4147 
L 1259 4147 
z
M 628 4666 
L 1925 4666 
Q 3281 4666 3915 4102 
Q 4550 3538 4550 2338 
Q 4550 1131 3912 565 
Q 3275 0 1925 0 
L 628 0 
L 628 4666 
z
" transform="scale(0.015625)"/>
      <path id="DejaVuSans-67" d="M 2906 1791 
Q 2906 2416 2648 2759 
Q 2391 3103 1925 3103 
Q 1463 3103 1205 2759 
Q 947 2416 947 1791 
Q 947 1169 1205 825 
Q 1463 481 1925 481 
Q 2391 481 2648 825 
Q 2906 1169 2906 1791 
z
M 3481 434 
Q 3481 -459 3084 -895 
Q 2688 -1331 1869 -1331 
Q 1566 -1331 1297 -1286 
Q 1028 -1241 775 -1147 
L 775 -588 
Q 1028 -725 1275 -790 
Q 1522 -856 1778 -856 
Q 2344 -856 2625 -561 
Q 2906 -266 2906 331 
L 2906 616 
Q 2728 306 2450 153 
Q 2172 0 1784 0 
Q 1141 0 747 490 
Q 353 981 353 1791 
Q 353 2603 747 3093 
Q 1141 3584 1784 3584 
Q 2172 3584 2450 3431 
Q 2728 3278 2906 2969 
L 2906 3500 
L 3481 3500 
L 3481 434 
z
" transform="scale(0.015625)"/>
      <path id="DejaVuSans-6d" d="M 3328 2828 
Q 3544 3216 3844 3400 
Q 4144 3584 4550 3584 
Q 5097 3584 5394 3201 
Q 5691 2819 5691 2113 
L 5691 0 
L 5113 0 
L 5113 2094 
Q 5113 2597 4934 2840 
Q 4756 3084 4391 3084 
Q 3944 3084 3684 2787 
Q 3425 2491 3425 1978 
L 3425 0 
L 2847 0 
L 2847 2094 
Q 2847 2600 2669 2842 
Q 2491 3084 2119 3084 
Q 1678 3084 1418 2786 
Q 1159 2488 1159 1978 
L 1159 0 
L 581 0 
L 581 3500 
L 1159 3500 
L 1159 2956 
Q 1356 3278 1631 3431 
Q 1906 3584 2284 3584 
Q 2666 3584 2933 3390 
Q 3200 3197 3328 2828 
z
" transform="scale(0.015625)"/>
     </defs>
     <use xlink:href="#DejaVuSans-48"/>
     <use xlink:href="#DejaVuSans-6f" transform="translate(75.195312 0)"/>
     <use xlink:href="#DejaVuSans-77" transform="translate(136.376953 0)"/>
     <use xlink:href="#DejaVuSans-20" transform="translate(218.164062 0)"/>
     <use xlink:href="#DejaVuSans-74" transform="translate(249.951172 0)"/>
     <use xlink:href="#DejaVuSans-6f" transform="translate(289.160156 0)"/>
     <use xlink:href="#DejaVuSans-20" transform="translate(350.341797 0)"/>
     <use xlink:href="#DejaVuSans-52" transform="translate(382.128906 0)"/>
     <use xlink:href="#DejaVuSans-65" transform="translate(447.111328 0)"/>
     <use xlink:href="#DejaVuSans-61" transform="translate(508.634766 0)"/>
     <use xlink:href="#DejaVuSans-64" transform="translate(569.914062 0)"/>
     <use xlink:href="#DejaVuSans-20" transform="translate(633.390625 0)"/>
     <use xlink:href="#DejaVuSans-54" transform="translate(665.177734 0)"/>
     <use xlink:href="#DejaVuSans-68" transform="translate(726.261719 0)"/>
     <use xlink:href="#DejaVuSans-65" transform="translate(789.640625 0)"/>
     <use xlink:href="#DejaVuSans-73" transform="translate(851.164062 0)"/>
     <use xlink:href="#DejaVuSans-65" transform="translate(903.263672 0)"/>
     <use xlink:href="#DejaVuSans-20" transform="translate(964.787109 0)"/>
     <use xlink:href="#DejaVuSans-44" transform="translate(996.574219 0)"/>
     <use xlink:href="#DejaVuSans-69" transform="translate(1073.576172 0)"/>
     <use xlink:href="#DejaVuSans-61" transform="translate(1101.359375 0)"/>
     <use xlink:href="#DejaVuSans-67" transform="translate(1162.638672 0)"/>
     <use xlink:href="#DejaVuSans-72" transform="translate(1226.115234 0)"/>
     <use xlink:href="#DejaVuSans-61" transform="translate(1267.228516 0)"/>
     <use xlink:href="#DejaVuSans-6d" transform="translate(1328.507812 0)"/>
     <use xlink:href="#DejaVuSans-73" transform="translate(1425.919922 0)"/>
    </g>
   </g>
   <g id="patch_5">
    <path d="M 104.85 371.718 
L 634.95 371.718 
Q 648.9 371.718 648.9 357.858 
L 648.9 343.998 
Q 648.9 330.138 634.95 330.138 
L 104.85 330.138 
Q 90.9 330.138 90.9 343.998 
L 90.9 357.858 
Q 90.9 371.718 104.85 371.718 
z
" clip-path="url(#p7531092e94)" style="fill: #e3f2fd; stroke: #1565c0; stroke-width: 1.5; stroke-linejoin: miter"/>
   </g>
   <g id="patch_6">
    <path d="M 104.85 427.158 
L 634.95 427.158 
Q 648.9 427.158 648.9 413.298 
L 648.9 399.438 
Q 648.9 385.578 634.95 385.578 
L 104.85 385.578 
Q 90.9 385.578 90.9 399.438 
L 90.9 413.298 
Q 90.9 427.158 104.85 427.158 
z
" clip-path="url(#p7531092e94)" style="fill: #f3e5f5; stroke: #6a1b9a; stroke-width: 1.5; stroke-linejoin: miter"/>
   </g>
   <g id="patch_7">
    <path d="M 104.85 482.598 
L 634.95 482.598 
Q 648.9 482.598 648.9 468.738 
L 648.9 454.878 
Q 648.9 441.018 634.95 441.018 
L 104.85 441.018 
Q 90.9 441.018 90.9 454.878 
L 90.9 468.738 
Q 90.9 482.598 104.85 482.598 
z
" clip-path="url(#p7531092e94)" style="fill: #f1f8e9; stroke: #1b5e20; stroke-width: 1.5; stroke-linejoin: miter"/>
   </g>
   <g id="text_5">
    <!-- classbridge.ca  ·  March 2026 -->
    <g style="fill: #ffffff; opacity: 0.6" transform="translate(303.879375 495.072) scale(0.09 -0.09)">
     <defs>
      <path id="DejaVuSans-6c" d="M 603 4863 
L 1178 4863 
L 1178 0 
L 603 0 
L 603 4863 
z
" transform="scale(0.015625)"/>
      <path id="DejaVuSans-62" d="M 3116 1747 
Q 3116 2381 2855 2742 
Q 2594 3103 2138 3103 
Q 1681 3103 1420 2742 
Q 1159 2381 1159 1747 
Q 1159 1113 1420 752 
Q 1681 391 2138 391 
Q 2594 391 2855 752 
Q 3116 1113 3116 1747 
z
M 1159 2969 
Q 1341 3281 1617 3432 
Q 1894 3584 2278 3584 
Q 2916 3584 3314 3078 
Q 3713 2572 3713 1747 
Q 3713 922 3314 415 
Q 2916 -91 2278 -91 
Q 1894 -91 1617 61 
Q 1341 213 1159 525 
L 1159 0 
L 581 0 
L 581 4863 
L 1159 4863 
L 1159 2969 
z
" transform="scale(0.015625)"/>
      <path id="DejaVuSans-2e" d="M 684 794 
L 1344 794 
L 1344 0 
L 684 0 
L 684 794 
z
" transform="scale(0.015625)"/>
      <path id="DejaVuSans-4d" d="M 628 4666 
L 1569 4666 
L 2759 1491 
L 3956 4666 
L 4897 4666 
L 4897 0 
L 4281 0 
L 4281 4097 
L 3078 897 
L 2444 897 
L 1241 4097 
L 1241 0 
L 628 0 
L 628 4666 
z
" transform="scale(0.015625)"/>
      <path id="DejaVuSans-32" d="M 1228 531 
L 3431 531 
L 3431 0 
L 469 0 
L 469 531 
Q 828 903 1448 1529 
Q 2069 2156 2228 2338 
Q 2531 2678 2651 2914 
Q 2772 3150 2772 3378 
Q 2772 3750 2511 3984 
Q 2250 4219 1831 4219 
Q 1534 4219 1204 4116 
Q 875 4013 500 3803 
L 500 4441 
Q 881 4594 1212 4672 
Q 1544 4750 1819 4750 
Q 2544 4750 2975 4387 
Q 3406 4025 3406 3419 
Q 3406 3131 3298 2873 
Q 3191 2616 2906 2266 
Q 2828 2175 2409 1742 
Q 1991 1309 1228 531 
z
" transform="scale(0.015625)"/>
      <path id="DejaVuSans-30" d="M 2034 4250 
Q 1547 4250 1301 3770 
Q 1056 3291 1056 2328 
Q 1056 1369 1301 889 
Q 1547 409 2034 409 
Q 2525 409 2770 889 
Q 3016 1369 3016 2328 
Q 3016 3291 2770 3770 
Q 2525 4250 2034 4250 
z
M 2034 4750 
Q 2819 4750 3233 4129 
Q 3647 3509 3647 2328 
Q 3647 1150 3233 529 
Q 2819 -91 2034 -91 
Q 1250 -91 836 529 
Q 422 1150 422 2328 
Q 422 3509 836 4129 
Q 1250 4750 2034 4750 
z
" transform="scale(0.015625)"/>
      <path id="DejaVuSans-36" d="M 2113 2584 
Q 1688 2584 1439 2293 
Q 1191 2003 1191 1497 
Q 1191 994 1439 701 
Q 1688 409 2113 409 
Q 2538 409 2786 701 
Q 3034 994 3034 1497 
Q 3034 2003 2786 2293 
Q 2538 2584 2113 2584 
z
M 3366 4563 
L 3366 3988 
Q 3128 4100 2886 4159 
Q 2644 4219 2406 4219 
Q 1781 4219 1451 3797 
Q 1122 3375 1075 2522 
Q 1259 2794 1537 2939 
Q 1816 3084 2150 3084 
Q 2853 3084 3261 2657 
Q 3669 2231 3669 1497 
Q 3669 778 3244 343 
Q 2819 -91 2113 -91 
Q 1303 -91 875 529 
Q 447 1150 447 2328 
Q 447 3434 972 4092 
Q 1497 4750 2381 4750 
Q 2619 4750 2861 4703 
Q 3103 4656 3366 4563 
z
" transform="scale(0.015625)"/>
     </defs>
     <use xlink:href="#DejaVuSans-63"/>
     <use xlink:href="#DejaVuSans-6c" transform="translate(54.980469 0)"/>
     <use xlink:href="#DejaVuSans-61" transform="translate(82.763672 0)"/>
     <use xlink:href="#DejaVuSans-73" transform="translate(144.042969 0)"/>
     <use xlink:href="#DejaVuSans-73" transform="translate(196.142578 0)"/>
     <use xlink:href="#DejaVuSans-62" transform="translate(248.242188 0)"/>
     <use xlink:href="#DejaVuSans-72" transform="translate(311.71875 0)"/>
     <use xlink:href="#DejaVuSans-69" transform="translate(352.832031 0)"/>
     <use xlink:href="#DejaVuSans-64" transform="translate(380.615234 0)"/>
     <use xlink:href="#DejaVuSans-67" transform="translate(444.091797 0)"/>
     <use xlink:href="#DejaVuSans-65" transform="translate(507.568359 0)"/>
     <use xlink:href="#DejaVuSans-2e" transform="translate(569.091797 0)"/>
     <use xlink:href="#DejaVuSans-63" transform="translate(600.878906 0)"/>
     <use xlink:href="#DejaVuSans-61" transform="translate(655.859375 0)"/>
     <use xlink:href="#DejaVuSans-20" transform="translate(717.138672 0)"/>
     <use xlink:href="#DejaVuSans-20" transform="translate(748.925781 0)"/>
     <use xlink:href="#DejaVuSans-b7" transform="translate(780.712891 0)"/>
     <use xlink:href="#DejaVuSans-20" transform="translate(812.5 0)"/>
     <use xlink:href="#DejaVuSans-20" transform="translate(844.287109 0)"/>
     <use xlink:href="#DejaVuSans-4d" transform="translate(876.074219 0)"/>
     <use xlink:href="#DejaVuSans-61" transform="translate(962.353516 0)"/>
     <use xlink:href="#DejaVuSans-72" transform="translate(1023.632812 0)"/>
     <use xlink:href="#DejaVuSans-63" transform="translate(1062.496094 0)"/>
     <use xlink:href="#DejaVuSans-68" transform="translate(1117.476562 0)"/>
     <use xlink:href="#DejaVuSans-20" transform="translate(1180.855469 0)"/>
     <use xlink:href="#DejaVuSans-32" transform="translate(1212.642578 0)"/>
     <use xlink:href="#DejaVuSans-30" transform="translate(1276.265625 0)"/>
     <use xlink:href="#DejaVuSans-32" transform="translate(1339.888672 0)"/>
     <use xlink:href="#DejaVuSans-36" transform="translate(1403.511719 0)"/>
    </g>
   </g>
   <g id="patch_8">
    <path d="M 93.69 371.718 
L 92.574 371.718 
Q 95.364 371.718 95.364 368.946 
L 95.364 332.91 
Q 95.364 330.138 92.574 330.138 
L 93.69 330.138 
Q 90.9 330.138 90.9 332.91 
L 90.9 368.946 
Q 90.9 371.718 93.69 371.718 
z
" clip-path="url(#p7531092e94)" style="fill: #1565c0"/>
   </g>
   <g id="patch_9">
    <path d="M 93.69 427.158 
L 92.574 427.158 
Q 95.364 427.158 95.364 424.386 
L 95.364 388.35 
Q 95.364 385.578 92.574 385.578 
L 93.69 385.578 
Q 90.9 385.578 90.9 388.35 
L 90.9 424.386 
Q 90.9 427.158 93.69 427.158 
z
" clip-path="url(#p7531092e94)" style="fill: #6a1b9a"/>
   </g>
   <g id="patch_10">
    <path d="M 93.69 482.598 
L 92.574 482.598 
Q 95.364 482.598 95.364 479.826 
L 95.364 443.79 
Q 95.364 441.018 92.574 441.018 
L 93.69 441.018 
Q 90.9 441.018 90.9 443.79 
L 90.9 479.826 
Q 90.9 482.598 93.69 482.598 
z
" clip-path="url(#p7531092e94)" style="fill: #1b5e20"/>
   </g>
   <g id="text_6">
    <!-- PARENT -->
    <g style="fill: #ffffff" transform="translate(118.179219 232.547188) scale(0.13 -0.13)">
     <defs>
      <path id="DejaVuSans-Bold-50" d="M 588 4666 
L 2584 4666 
Q 3475 4666 3951 4270 
Q 4428 3875 4428 3144 
Q 4428 2409 3951 2014 
Q 3475 1619 2584 1619 
L 1791 1619 
L 1791 0 
L 588 0 
L 588 4666 
z
M 1791 3794 
L 1791 2491 
L 2456 2491 
Q 2806 2491 2997 2661 
Q 3188 2831 3188 3144 
Q 3188 3456 2997 3625 
Q 2806 3794 2456 3794 
L 1791 3794 
z
" transform="scale(0.015625)"/>
      <path id="DejaVuSans-Bold-41" d="M 3419 850 
L 1538 850 
L 1241 0 
L 31 0 
L 1759 4666 
L 3194 4666 
L 4922 0 
L 3713 0 
L 3419 850 
z
M 1838 1716 
L 3116 1716 
L 2478 3572 
L 1838 1716 
z
" transform="scale(0.015625)"/>
      <path id="DejaVuSans-Bold-52" d="M 2297 2597 
Q 2675 2597 2839 2737 
Q 3003 2878 3003 3200 
Q 3003 3519 2839 3656 
Q 2675 3794 2297 3794 
L 1791 3794 
L 1791 2597 
L 2297 2597 
z
M 1791 1766 
L 1791 0 
L 588 0 
L 588 4666 
L 2425 4666 
Q 3347 4666 3776 4356 
Q 4206 4047 4206 3378 
Q 4206 2916 3982 2619 
Q 3759 2322 3309 2181 
Q 3556 2125 3751 1926 
Q 3947 1728 4147 1325 
L 4800 0 
L 3519 0 
L 2950 1159 
Q 2778 1509 2601 1637 
Q 2425 1766 2131 1766 
L 1791 1766 
z
" transform="scale(0.015625)"/>
      <path id="DejaVuSans-Bold-45" d="M 588 4666 
L 3834 4666 
L 3834 3756 
L 1791 3756 
L 1791 2888 
L 3713 2888 
L 3713 1978 
L 1791 1978 
L 1791 909 
L 3903 909 
L 3903 0 
L 588 0 
L 588 4666 
z
" transform="scale(0.015625)"/>
      <path id="DejaVuSans-Bold-4e" d="M 588 4666 
L 1931 4666 
L 3628 1466 
L 3628 4666 
L 4769 4666 
L 4769 0 
L 3425 0 
L 1728 3200 
L 1728 0 
L 588 0 
L 588 4666 
z
" transform="scale(0.015625)"/>
      <path id="DejaVuSans-Bold-54" d="M 31 4666 
L 4331 4666 
L 4331 3756 
L 2784 3756 
L 2784 0 
L 1581 0 
L 1581 3756 
L 31 3756 
L 31 4666 
z
" transform="scale(0.015625)"/>
     </defs>
     <use xlink:href="#DejaVuSans-Bold-50"/>
     <use xlink:href="#DejaVuSans-Bold-41" transform="translate(64.166016 0)"/>
     <use xlink:href="#DejaVuSans-Bold-52" transform="translate(141.558594 0)"/>
     <use xlink:href="#DejaVuSans-Bold-45" transform="translate(218.560547 0)"/>
     <use xlink:href="#DejaVuSans-Bold-4e" transform="translate(286.871094 0)"/>
     <use xlink:href="#DejaVuSans-Bold-54" transform="translate(370.5625 0)"/>
    </g>
   </g>
   <g id="text_7">
    <!-- STUDENT -->
    <g style="fill: #ffffff" transform="translate(335.796328 232.547188) scale(0.13 -0.13)">
     <defs>
      <path id="DejaVuSans-Bold-53" d="M 3834 4519 
L 3834 3531 
Q 3450 3703 3084 3790 
Q 2719 3878 2394 3878 
Q 1963 3878 1756 3759 
Q 1550 3641 1550 3391 
Q 1550 3203 1689 3098 
Q 1828 2994 2194 2919 
L 2706 2816 
Q 3484 2659 3812 2340 
Q 4141 2022 4141 1434 
Q 4141 663 3683 286 
Q 3225 -91 2284 -91 
Q 1841 -91 1394 -6 
Q 947 78 500 244 
L 500 1259 
Q 947 1022 1364 901 
Q 1781 781 2169 781 
Q 2563 781 2772 912 
Q 2981 1044 2981 1288 
Q 2981 1506 2839 1625 
Q 2697 1744 2272 1838 
L 1806 1941 
Q 1106 2091 782 2419 
Q 459 2747 459 3303 
Q 459 4000 909 4375 
Q 1359 4750 2203 4750 
Q 2588 4750 2994 4692 
Q 3400 4634 3834 4519 
z
" transform="scale(0.015625)"/>
      <path id="DejaVuSans-Bold-55" d="M 588 4666 
L 1791 4666 
L 1791 1869 
Q 1791 1291 1980 1042 
Q 2169 794 2597 794 
Q 3028 794 3217 1042 
Q 3406 1291 3406 1869 
L 3406 4666 
L 4609 4666 
L 4609 1869 
Q 4609 878 4112 393 
Q 3616 -91 2597 -91 
Q 1581 -91 1084 393 
Q 588 878 588 1869 
L 588 4666 
z
" transform="scale(0.015625)"/>
      <path id="DejaVuSans-Bold-44" d="M 1791 3756 
L 1791 909 
L 2222 909 
Q 2959 909 3348 1275 
Q 3738 1641 3738 2338 
Q 3738 3031 3350 3393 
Q 2963 3756 2222 3756 
L 1791 3756 
z
M 588 4666 
L 1856 4666 
Q 2919 4666 3439 4514 
Q 3959 4363 4331 4000 
Q 4659 3684 4818 3271 
Q 4978 2859 4978 2338 
Q 4978 1809 4818 1395 
Q 4659 981 4331 666 
Q 3956 303 3431 151 
Q 2906 0 1856 0 
L 588 0 
L 588 4666 
z
" transform="scale(0.015625)"/>
     </defs>
     <use xlink:href="#DejaVuSans-Bold-53"/>
     <use xlink:href="#DejaVuSans-Bold-54" transform="translate(72.021484 0)"/>
     <use xlink:href="#DejaVuSans-Bold-55" transform="translate(140.234375 0)"/>
     <use xlink:href="#DejaVuSans-Bold-44" transform="translate(221.435547 0)"/>
     <use xlink:href="#DejaVuSans-Bold-45" transform="translate(304.443359 0)"/>
     <use xlink:href="#DejaVuSans-Bold-4e" transform="translate(372.753906 0)"/>
     <use xlink:href="#DejaVuSans-Bold-54" transform="translate(456.445312 0)"/>
    </g>
   </g>
   <g id="text_8">
    <!-- TEACHER -->
    <g style="fill: #ffffff" transform="translate(559.539688 232.547188) scale(0.13 -0.13)">
     <defs>
      <path id="DejaVuSans-Bold-48" d="M 588 4666 
L 1791 4666 
L 1791 2888 
L 3566 2888 
L 3566 4666 
L 4769 4666 
L 4769 0 
L 3566 0 
L 3566 1978 
L 1791 1978 
L 1791 0 
L 588 0 
L 588 4666 
z
" transform="scale(0.015625)"/>
     </defs>
     <use xlink:href="#DejaVuSans-Bold-54"/>
     <use xlink:href="#DejaVuSans-Bold-45" transform="translate(68.212891 0)"/>
     <use xlink:href="#DejaVuSans-Bold-41" transform="translate(136.523438 0)"/>
     <use xlink:href="#DejaVuSans-Bold-43" transform="translate(213.916016 0)"/>
     <use xlink:href="#DejaVuSans-Bold-48" transform="translate(287.304688 0)"/>
     <use xlink:href="#DejaVuSans-Bold-45" transform="translate(370.996094 0)"/>
     <use xlink:href="#DejaVuSans-Bold-52" transform="translate(439.306641 0)"/>
    </g>
   </g>
   <g id="text_9">
    <!-- Numbered boxes -->
    <g style="fill: #1a1a1a" transform="translate(324.982969 348.697775) scale(0.1 -0.1)">
     <defs>
      <path id="DejaVuSans-Bold-75" d="M 500 1363 
L 500 3500 
L 1625 3500 
L 1625 3150 
Q 1625 2866 1622 2436 
Q 1619 2006 1619 1863 
Q 1619 1441 1641 1255 
Q 1663 1069 1716 984 
Q 1784 875 1895 815 
Q 2006 756 2150 756 
Q 2500 756 2700 1025 
Q 2900 1294 2900 1772 
L 2900 3500 
L 4019 3500 
L 4019 0 
L 2900 0 
L 2900 506 
Q 2647 200 2364 54 
Q 2081 -91 1741 -91 
Q 1134 -91 817 281 
Q 500 653 500 1363 
z
" transform="scale(0.015625)"/>
      <path id="DejaVuSans-Bold-6d" d="M 3781 2919 
Q 3994 3244 4286 3414 
Q 4578 3584 4928 3584 
Q 5531 3584 5847 3212 
Q 6163 2841 6163 2131 
L 6163 0 
L 5038 0 
L 5038 1825 
Q 5041 1866 5042 1909 
Q 5044 1953 5044 2034 
Q 5044 2406 4934 2573 
Q 4825 2741 4581 2741 
Q 4263 2741 4089 2478 
Q 3916 2216 3909 1719 
L 3909 0 
L 2784 0 
L 2784 1825 
Q 2784 2406 2684 2573 
Q 2584 2741 2328 2741 
Q 2006 2741 1831 2477 
Q 1656 2213 1656 1722 
L 1656 0 
L 531 0 
L 531 3500 
L 1656 3500 
L 1656 2988 
Q 1863 3284 2130 3434 
Q 2397 3584 2719 3584 
Q 3081 3584 3359 3409 
Q 3638 3234 3781 2919 
z
" transform="scale(0.015625)"/>
      <path id="DejaVuSans-Bold-62" d="M 2400 722 
Q 2759 722 2948 984 
Q 3138 1247 3138 1747 
Q 3138 2247 2948 2509 
Q 2759 2772 2400 2772 
Q 2041 2772 1848 2508 
Q 1656 2244 1656 1747 
Q 1656 1250 1848 986 
Q 2041 722 2400 722 
z
M 1656 2988 
Q 1888 3294 2169 3439 
Q 2450 3584 2816 3584 
Q 3463 3584 3878 3070 
Q 4294 2556 4294 1747 
Q 4294 938 3878 423 
Q 3463 -91 2816 -91 
Q 2450 -91 2169 54 
Q 1888 200 1656 506 
L 1656 0 
L 538 0 
L 538 4863 
L 1656 4863 
L 1656 2988 
z
" transform="scale(0.015625)"/>
      <path id="DejaVuSans-Bold-20" transform="scale(0.015625)"/>
      <path id="DejaVuSans-Bold-6f" d="M 2203 2784 
Q 1831 2784 1636 2517 
Q 1441 2250 1441 1747 
Q 1441 1244 1636 976 
Q 1831 709 2203 709 
Q 2569 709 2762 976 
Q 2956 1244 2956 1747 
Q 2956 2250 2762 2517 
Q 2569 2784 2203 2784 
z
M 2203 3584 
Q 3106 3584 3614 3096 
Q 4122 2609 4122 1747 
Q 4122 884 3614 396 
Q 3106 -91 2203 -91 
Q 1297 -91 786 396 
Q 275 884 275 1747 
Q 275 2609 786 3096 
Q 1297 3584 2203 3584 
z
" transform="scale(0.015625)"/>
      <path id="DejaVuSans-Bold-78" d="M 1422 1791 
L 159 3500 
L 1344 3500 
L 2059 2463 
L 2784 3500 
L 3969 3500 
L 2706 1797 
L 4031 0 
L 2847 0 
L 2059 1106 
L 1281 0 
L 97 0 
L 1422 1791 
z
" transform="scale(0.015625)"/>
     </defs>
     <use xlink:href="#DejaVuSans-Bold-4e"/>
     <use xlink:href="#DejaVuSans-Bold-75" transform="translate(83.691406 0)"/>
     <use xlink:href="#DejaVuSans-Bold-6d" transform="translate(154.882812 0)"/>
     <use xlink:href="#DejaVuSans-Bold-62" transform="translate(259.082031 0)"/>
     <use xlink:href="#DejaVuSans-Bold-65" transform="translate(330.664062 0)"/>
     <use xlink:href="#DejaVuSans-Bold-72" transform="translate(398.486328 0)"/>
     <use xlink:href="#DejaVuSans-Bold-65" transform="translate(447.802734 0)"/>
     <use xlink:href="#DejaVuSans-Bold-64" transform="translate(515.625 0)"/>
     <use xlink:href="#DejaVuSans-Bold-20" transform="translate(587.207031 0)"/>
     <use xlink:href="#DejaVuSans-Bold-62" transform="translate(622.021484 0)"/>
     <use xlink:href="#DejaVuSans-Bold-6f" transform="translate(693.603516 0)"/>
     <use xlink:href="#DejaVuSans-Bold-78" transform="translate(762.304688 0)"/>
     <use xlink:href="#DejaVuSans-Bold-65" transform="translate(826.806641 0)"/>
     <use xlink:href="#DejaVuSans-Bold-73" transform="translate(894.628906 0)"/>
    </g>
   </g>
   <g id="text_10">
    <!-- Each box is one step — follow the arrows in order -->
    <g style="fill: #5a5a5a" transform="translate(267.121992 360.757869) scale(0.085 -0.085)">
     <defs>
      <path id="DejaVuSans-Oblique-45" d="M 1081 4666 
L 4031 4666 
L 3928 4134 
L 1606 4134 
L 1338 2753 
L 3566 2753 
L 3463 2222 
L 1234 2222 
L 909 531 
L 3284 531 
L 3181 0 
L 172 0 
L 1081 4666 
z
" transform="scale(0.015625)"/>
      <path id="DejaVuSans-Oblique-61" d="M 3438 1997 
L 3047 0 
L 2472 0 
L 2578 531 
Q 2325 219 2001 64 
Q 1678 -91 1281 -91 
Q 834 -91 548 182 
Q 263 456 263 884 
Q 263 1497 752 1853 
Q 1241 2209 2100 2209 
L 2900 2209 
L 2931 2363 
Q 2938 2388 2941 2417 
Q 2944 2447 2944 2509 
Q 2944 2788 2717 2942 
Q 2491 3097 2081 3097 
Q 1800 3097 1504 3025 
Q 1209 2953 897 2809 
L 997 3341 
Q 1322 3463 1633 3523 
Q 1944 3584 2234 3584 
Q 2853 3584 3176 3315 
Q 3500 3047 3500 2534 
Q 3500 2431 3484 2292 
Q 3469 2153 3438 1997 
z
M 2816 1759 
L 2241 1759 
Q 1534 1759 1195 1570 
Q 856 1381 856 984 
Q 856 709 1029 553 
Q 1203 397 1509 397 
Q 1978 397 2328 733 
Q 2678 1069 2791 1631 
L 2816 1759 
z
" transform="scale(0.015625)"/>
      <path id="DejaVuSans-Oblique-63" d="M 3431 3366 
L 3316 2797 
Q 3109 2947 2876 3022 
Q 2644 3097 2394 3097 
Q 2119 3097 1870 3000 
Q 1622 2903 1453 2725 
Q 1184 2453 1037 2087 
Q 891 1722 891 1331 
Q 891 859 1127 628 
Q 1363 397 1844 397 
Q 2081 397 2348 469 
Q 2616 541 2906 684 
L 2797 116 
Q 2547 13 2283 -39 
Q 2019 -91 1741 -91 
Q 1044 -91 669 257 
Q 294 606 294 1253 
Q 294 1797 489 2255 
Q 684 2713 1069 3078 
Q 1331 3328 1684 3456 
Q 2038 3584 2456 3584 
Q 2700 3584 2940 3529 
Q 3181 3475 3431 3366 
z
" transform="scale(0.015625)"/>
      <path id="DejaVuSans-Oblique-68" d="M 3566 2113 
L 3156 0 
L 2578 0 
L 2988 2091 
Q 3016 2238 3031 2350 
Q 3047 2463 3047 2528 
Q 3047 2791 2881 2937 
Q 2716 3084 2419 3084 
Q 1956 3084 1617 2771 
Q 1278 2459 1178 1941 
L 800 0 
L 225 0 
L 1172 4863 
L 1747 4863 
L 1375 2950 
Q 1594 3244 1934 3414 
Q 2275 3584 2650 3584 
Q 3113 3584 3367 3334 
Q 3622 3084 3622 2631 
Q 3622 2519 3608 2391 
Q 3594 2263 3566 2113 
z
" transform="scale(0.015625)"/>
      <path id="DejaVuSans-Oblique-20" transform="scale(0.015625)"/>
      <path id="DejaVuSans-Oblique-62" d="M 3169 2138 
Q 3169 2591 2961 2847 
Q 2753 3103 2388 3103 
Q 2122 3103 1889 2973 
Q 1656 2844 1484 2597 
Q 1303 2338 1198 1995 
Q 1094 1653 1094 1313 
Q 1094 881 1298 636 
Q 1503 391 1863 391 
Q 2134 391 2365 517 
Q 2597 644 2772 891 
Q 2950 1147 3059 1487 
Q 3169 1828 3169 2138 
z
M 1381 2969 
Q 1594 3256 1914 3420 
Q 2234 3584 2584 3584 
Q 3122 3584 3439 3221 
Q 3756 2859 3756 2241 
Q 3756 1734 3570 1259 
Q 3384 784 3041 416 
Q 2816 172 2522 40 
Q 2228 -91 1906 -91 
Q 1566 -91 1316 65 
Q 1066 222 909 531 
L 806 0 
L 231 0 
L 1178 4863 
L 1753 4863 
L 1381 2969 
z
" transform="scale(0.015625)"/>
      <path id="DejaVuSans-Oblique-6f" d="M 1625 -91 
Q 1009 -91 651 289 
Q 294 669 294 1325 
Q 294 1706 417 2101 
Q 541 2497 738 2766 
Q 1047 3184 1428 3384 
Q 1809 3584 2291 3584 
Q 2888 3584 3255 3212 
Q 3622 2841 3622 2241 
Q 3622 1825 3500 1412 
Q 3378 1000 3181 728 
Q 2875 309 2494 109 
Q 2113 -91 1625 -91 
z
M 891 1344 
Q 891 869 1089 633 
Q 1288 397 1691 397 
Q 2269 397 2648 901 
Q 3028 1406 3028 2181 
Q 3028 2634 2825 2865 
Q 2622 3097 2228 3097 
Q 1903 3097 1650 2945 
Q 1397 2794 1197 2484 
Q 1050 2253 970 1956 
Q 891 1659 891 1344 
z
" transform="scale(0.015625)"/>
      <path id="DejaVuSans-Oblique-78" d="M 3841 3500 
L 2234 1784 
L 3219 0 
L 2559 0 
L 1819 1388 
L 531 0 
L -166 0 
L 1556 1844 
L 641 3500 
L 1300 3500 
L 1972 2234 
L 3144 3500 
L 3841 3500 
z
" transform="scale(0.015625)"/>
      <path id="DejaVuSans-Oblique-69" d="M 1172 4863 
L 1747 4863 
L 1606 4134 
L 1031 4134 
L 1172 4863 
z
M 909 3500 
L 1484 3500 
L 800 0 
L 225 0 
L 909 3500 
z
" transform="scale(0.015625)"/>
      <path id="DejaVuSans-Oblique-73" d="M 3200 3397 
L 3091 2853 
Q 2863 2978 2609 3040 
Q 2356 3103 2088 3103 
Q 1634 3103 1373 2948 
Q 1113 2794 1113 2528 
Q 1113 2219 1719 2053 
Q 1766 2041 1788 2034 
L 1972 1978 
Q 2547 1819 2739 1644 
Q 2931 1469 2931 1166 
Q 2931 609 2489 259 
Q 2047 -91 1331 -91 
Q 1053 -91 747 -37 
Q 441 16 72 128 
L 184 722 
Q 500 559 806 475 
Q 1113 391 1394 391 
Q 1816 391 2080 572 
Q 2344 753 2344 1031 
Q 2344 1331 1650 1516 
L 1591 1531 
L 1394 1581 
Q 956 1697 753 1886 
Q 550 2075 550 2369 
Q 550 2928 970 3256 
Q 1391 3584 2113 3584 
Q 2397 3584 2667 3537 
Q 2938 3491 3200 3397 
z
" transform="scale(0.015625)"/>
      <path id="DejaVuSans-Oblique-6e" d="M 3566 2113 
L 3156 0 
L 2578 0 
L 2988 2091 
Q 3016 2238 3031 2350 
Q 3047 2463 3047 2528 
Q 3047 2791 2881 2937 
Q 2716 3084 2419 3084 
Q 1956 3084 1622 2776 
Q 1288 2469 1184 1941 
L 800 0 
L 225 0 
L 903 3500 
L 1478 3500 
L 1363 2950 
Q 1603 3253 1940 3418 
Q 2278 3584 2650 3584 
Q 3113 3584 3367 3334 
Q 3622 3084 3622 2631 
Q 3622 2519 3608 2391 
Q 3594 2263 3566 2113 
z
" transform="scale(0.015625)"/>
      <path id="DejaVuSans-Oblique-65" d="M 3078 2063 
Q 3088 2113 3092 2166 
Q 3097 2219 3097 2272 
Q 3097 2653 2873 2875 
Q 2650 3097 2266 3097 
Q 1838 3097 1509 2826 
Q 1181 2556 1013 2059 
L 3078 2063 
z
M 3578 1613 
L 903 1613 
Q 884 1494 878 1425 
Q 872 1356 872 1306 
Q 872 872 1139 634 
Q 1406 397 1894 397 
Q 2269 397 2603 481 
Q 2938 566 3225 728 
L 3116 159 
Q 2806 34 2476 -28 
Q 2147 -91 1806 -91 
Q 1078 -91 686 257 
Q 294 606 294 1247 
Q 294 1794 489 2264 
Q 684 2734 1063 3103 
Q 1306 3334 1642 3459 
Q 1978 3584 2356 3584 
Q 2950 3584 3301 3228 
Q 3653 2872 3653 2272 
Q 3653 2128 3634 1964 
Q 3616 1800 3578 1613 
z
" transform="scale(0.015625)"/>
      <path id="DejaVuSans-Oblique-74" d="M 2706 3500 
L 2619 3053 
L 1472 3053 
L 1100 1153 
Q 1081 1047 1072 975 
Q 1063 903 1063 863 
Q 1063 663 1183 572 
Q 1303 481 1569 481 
L 2150 481 
L 2053 0 
L 1503 0 
Q 991 0 739 200 
Q 488 400 488 806 
Q 488 878 497 964 
Q 506 1050 525 1153 
L 897 3053 
L 409 3053 
L 500 3500 
L 978 3500 
L 1172 4494 
L 1747 4494 
L 1556 3500 
L 2706 3500 
z
" transform="scale(0.015625)"/>
      <path id="DejaVuSans-Oblique-70" d="M 3175 2156 
Q 3175 2616 2975 2859 
Q 2775 3103 2400 3103 
Q 2144 3103 1911 2972 
Q 1678 2841 1497 2591 
Q 1319 2344 1212 1994 
Q 1106 1644 1106 1300 
Q 1106 863 1306 627 
Q 1506 391 1875 391 
Q 2147 391 2380 519 
Q 2613 647 2778 891 
Q 2956 1147 3065 1494 
Q 3175 1841 3175 2156 
z
M 1394 2969 
Q 1625 3272 1939 3428 
Q 2253 3584 2638 3584 
Q 3175 3584 3472 3232 
Q 3769 2881 3769 2247 
Q 3769 1728 3584 1258 
Q 3400 788 3053 416 
Q 2822 169 2531 39 
Q 2241 -91 1919 -91 
Q 1547 -91 1294 64 
Q 1041 219 916 525 
L 556 -1331 
L -19 -1331 
L 922 3500 
L 1497 3500 
L 1394 2969 
z
" transform="scale(0.015625)"/>
      <path id="DejaVuSans-Oblique-2014" d="M 356 1978 
L 6131 1978 
L 6044 1528 
L 269 1528 
L 356 1978 
z
" transform="scale(0.015625)"/>
      <path id="DejaVuSans-Oblique-66" d="M 3059 4863 
L 2969 4384 
L 2419 4384 
Q 2106 4384 1964 4261 
Q 1822 4138 1753 3809 
L 1691 3500 
L 2638 3500 
L 2553 3053 
L 1606 3053 
L 1013 0 
L 434 0 
L 1031 3053 
L 481 3053 
L 563 3500 
L 1113 3500 
L 1159 3744 
Q 1278 4363 1576 4613 
Q 1875 4863 2516 4863 
L 3059 4863 
z
" transform="scale(0.015625)"/>
      <path id="DejaVuSans-Oblique-6c" d="M 1172 4863 
L 1747 4863 
L 800 0 
L 225 0 
L 1172 4863 
z
" transform="scale(0.015625)"/>
      <path id="DejaVuSans-Oblique-77" d="M 544 3500 
L 1113 3500 
L 1259 684 
L 2566 3500 
L 3231 3500 
L 3425 684 
L 4666 3500 
L 5241 3500 
L 3641 0 
L 2969 0 
L 2797 2900 
L 1459 0 
L 781 0 
L 544 3500 
z
" transform="scale(0.015625)"/>
      <path id="DejaVuSans-Oblique-72" d="M 2853 2969 
Q 2766 3016 2653 3041 
Q 2541 3066 2413 3066 
Q 1953 3066 1609 2717 
Q 1266 2369 1153 1784 
L 800 0 
L 225 0 
L 909 3500 
L 1484 3500 
L 1375 2956 
Q 1603 3259 1920 3421 
Q 2238 3584 2597 3584 
Q 2691 3584 2781 3573 
Q 2872 3563 2963 3538 
L 2853 2969 
z
" transform="scale(0.015625)"/>
      <path id="DejaVuSans-Oblique-64" d="M 2675 525 
Q 2444 222 2128 65 
Q 1813 -91 1428 -91 
Q 903 -91 598 267 
Q 294 625 294 1247 
Q 294 1766 478 2236 
Q 663 2706 1013 3078 
Q 1244 3325 1534 3454 
Q 1825 3584 2144 3584 
Q 2481 3584 2739 3421 
Q 2997 3259 3138 2956 
L 3513 4863 
L 4091 4863 
L 3144 0 
L 2566 0 
L 2675 525 
z
M 891 1350 
Q 891 897 1095 644 
Q 1300 391 1663 391 
Q 1931 391 2161 520 
Q 2391 650 2566 903 
Q 2750 1166 2856 1509 
Q 2963 1853 2963 2188 
Q 2963 2622 2758 2865 
Q 2553 3109 2194 3109 
Q 1922 3109 1687 2981 
Q 1453 2853 1288 2613 
Q 1106 2353 998 2009 
Q 891 1666 891 1350 
z
" transform="scale(0.015625)"/>
     </defs>
     <use xlink:href="#DejaVuSans-Oblique-45"/>
     <use xlink:href="#DejaVuSans-Oblique-61" transform="translate(63.183594 0)"/>
     <use xlink:href="#DejaVuSans-Oblique-63" transform="translate(124.462891 0)"/>
     <use xlink:href="#DejaVuSans-Oblique-68" transform="translate(179.443359 0)"/>
     <use xlink:href="#DejaVuSans-Oblique-20" transform="translate(242.822266 0)"/>
     <use xlink:href="#DejaVuSans-Oblique-62" transform="translate(274.609375 0)"/>
     <use xlink:href="#DejaVuSans-Oblique-6f" transform="translate(338.085938 0)"/>
     <use xlink:href="#DejaVuSans-Oblique-78" transform="translate(399.267578 0)"/>
     <use xlink:href="#DejaVuSans-Oblique-20" transform="translate(458.447266 0)"/>
     <use xlink:href="#DejaVuSans-Oblique-69" transform="translate(490.234375 0)"/>
     <use xlink:href="#DejaVuSans-Oblique-73" transform="translate(518.017578 0)"/>
     <use xlink:href="#DejaVuSans-Oblique-20" transform="translate(570.117188 0)"/>
     <use xlink:href="#DejaVuSans-Oblique-6f" transform="translate(601.904297 0)"/>
     <use xlink:href="#DejaVuSans-Oblique-6e" transform="translate(663.085938 0)"/>
     <use xlink:href="#DejaVuSans-Oblique-65" transform="translate(726.464844 0)"/>
     <use xlink:href="#DejaVuSans-Oblique-20" transform="translate(787.988281 0)"/>
     <use xlink:href="#DejaVuSans-Oblique-73" transform="translate(819.775391 0)"/>
     <use xlink:href="#DejaVuSans-Oblique-74" transform="translate(871.875 0)"/>
     <use xlink:href="#DejaVuSans-Oblique-65" transform="translate(911.083984 0)"/>
     <use xlink:href="#DejaVuSans-Oblique-70" transform="translate(972.607422 0)"/>
     <use xlink:href="#DejaVuSans-Oblique-20" transform="translate(1036.083984 0)"/>
     <use xlink:href="#DejaVuSans-Oblique-2014" transform="translate(1067.871094 0)"/>
     <use xlink:href="#DejaVuSans-Oblique-20" transform="translate(1167.871094 0)"/>
     <use xlink:href="#DejaVuSans-Oblique-66" transform="translate(1199.658203 0)"/>
     <use xlink:href="#DejaVuSans-Oblique-6f" transform="translate(1234.863281 0)"/>
     <use xlink:href="#DejaVuSans-Oblique-6c" transform="translate(1296.044922 0)"/>
     <use xlink:href="#DejaVuSans-Oblique-6c" transform="translate(1323.828125 0)"/>
     <use xlink:href="#DejaVuSans-Oblique-6f" transform="translate(1351.611328 0)"/>
     <use xlink:href="#DejaVuSans-Oblique-77" transform="translate(1412.792969 0)"/>
     <use xlink:href="#DejaVuSans-Oblique-20" transform="translate(1494.580078 0)"/>
     <use xlink:href="#DejaVuSans-Oblique-74" transform="translate(1526.367188 0)"/>
     <use xlink:href="#DejaVuSans-Oblique-68" transform="translate(1565.576172 0)"/>
     <use xlink:href="#DejaVuSans-Oblique-65" transform="translate(1628.955078 0)"/>
     <use xlink:href="#DejaVuSans-Oblique-20" transform="translate(1690.478516 0)"/>
     <use xlink:href="#DejaVuSans-Oblique-61" transform="translate(1722.265625 0)"/>
     <use xlink:href="#DejaVuSans-Oblique-72" transform="translate(1783.544922 0)"/>
     <use xlink:href="#DejaVuSans-Oblique-72" transform="translate(1824.658203 0)"/>
     <use xlink:href="#DejaVuSans-Oblique-6f" transform="translate(1865.771484 0)"/>
     <use xlink:href="#DejaVuSans-Oblique-77" transform="translate(1926.953125 0)"/>
     <use xlink:href="#DejaVuSans-Oblique-73" transform="translate(2008.740234 0)"/>
     <use xlink:href="#DejaVuSans-Oblique-20" transform="translate(2060.839844 0)"/>
     <use xlink:href="#DejaVuSans-Oblique-69" transform="translate(2092.626953 0)"/>
     <use xlink:href="#DejaVuSans-Oblique-6e" transform="translate(2120.410156 0)"/>
     <use xlink:href="#DejaVuSans-Oblique-20" transform="translate(2183.789062 0)"/>
     <use xlink:href="#DejaVuSans-Oblique-6f" transform="translate(2215.576172 0)"/>
     <use xlink:href="#DejaVuSans-Oblique-72" transform="translate(2276.757812 0)"/>
     <use xlink:href="#DejaVuSans-Oblique-64" transform="translate(2317.871094 0)"/>
     <use xlink:href="#DejaVuSans-Oblique-65" transform="translate(2381.347656 0)"/>
     <use xlink:href="#DejaVuSans-Oblique-72" transform="translate(2442.871094 0)"/>
    </g>
   </g>
   <g id="text_11">
    <!-- AI / System boxes -->
    <g style="fill: #1a1a1a" transform="translate(322.478281 404.098713) scale(0.1 -0.1)">
     <defs>
      <path id="DejaVuSans-Bold-49" d="M 588 4666 
L 1791 4666 
L 1791 0 
L 588 0 
L 588 4666 
z
" transform="scale(0.015625)"/>
      <path id="DejaVuSans-Bold-2f" d="M 1644 4666 
L 2338 4666 
L 691 -594 
L 0 -594 
L 1644 4666 
z
" transform="scale(0.015625)"/>
      <path id="DejaVuSans-Bold-79" d="M 78 3500 
L 1197 3500 
L 2138 1125 
L 2938 3500 
L 4056 3500 
L 2584 -331 
Q 2363 -916 2067 -1148 
Q 1772 -1381 1288 -1381 
L 641 -1381 
L 641 -647 
L 991 -647 
Q 1275 -647 1404 -556 
Q 1534 -466 1606 -231 
L 1638 -134 
L 78 3500 
z
" transform="scale(0.015625)"/>
      <path id="DejaVuSans-Bold-74" d="M 1759 4494 
L 1759 3500 
L 2913 3500 
L 2913 2700 
L 1759 2700 
L 1759 1216 
Q 1759 972 1856 886 
Q 1953 800 2241 800 
L 2816 800 
L 2816 0 
L 1856 0 
Q 1194 0 917 276 
Q 641 553 641 1216 
L 641 2700 
L 84 2700 
L 84 3500 
L 641 3500 
L 641 4494 
L 1759 4494 
z
" transform="scale(0.015625)"/>
     </defs>
     <use xlink:href="#DejaVuSans-Bold-41"/>
     <use xlink:href="#DejaVuSans-Bold-49" transform="translate(77.392578 0)"/>
     <use xlink:href="#DejaVuSans-Bold-20" transform="translate(114.599609 0)"/>
     <use xlink:href="#DejaVuSans-Bold-2f" transform="translate(149.414062 0)"/>
     <use xlink:href="#DejaVuSans-Bold-20" transform="translate(185.9375 0)"/>
     <use xlink:href="#DejaVuSans-Bold-53" transform="translate(220.751953 0)"/>
     <use xlink:href="#DejaVuSans-Bold-79" transform="translate(292.773438 0)"/>
     <use xlink:href="#DejaVuSans-Bold-73" transform="translate(357.958984 0)"/>
     <use xlink:href="#DejaVuSans-Bold-74" transform="translate(417.480469 0)"/>
     <use xlink:href="#DejaVuSans-Bold-65" transform="translate(465.283203 0)"/>
     <use xlink:href="#DejaVuSans-Bold-6d" transform="translate(533.105469 0)"/>
     <use xlink:href="#DejaVuSans-Bold-20" transform="translate(637.304688 0)"/>
     <use xlink:href="#DejaVuSans-Bold-62" transform="translate(672.119141 0)"/>
     <use xlink:href="#DejaVuSans-Bold-6f" transform="translate(743.701172 0)"/>
     <use xlink:href="#DejaVuSans-Bold-78" transform="translate(812.402344 0)"/>
     <use xlink:href="#DejaVuSans-Bold-65" transform="translate(876.904297 0)"/>
     <use xlink:href="#DejaVuSans-Bold-73" transform="translate(944.726562 0)"/>
    </g>
   </g>
   <g id="text_12">
    <!-- Purple = AI does the work  ·  Grey = System does it -->
    <g style="fill: #5a5a5a" transform="translate(262.618984 416.197869) scale(0.085 -0.085)">
     <defs>
      <path id="DejaVuSans-Oblique-50" d="M 1081 4666 
L 2541 4666 
Q 3178 4666 3512 4369 
Q 3847 4072 3847 3500 
Q 3847 2731 3353 2303 
Q 2859 1875 1966 1875 
L 1172 1875 
L 806 0 
L 172 0 
L 1081 4666 
z
M 1613 4147 
L 1275 2394 
L 2069 2394 
Q 2606 2394 2893 2669 
Q 3181 2944 3181 3456 
Q 3181 3784 2986 3965 
Q 2791 4147 2438 4147 
L 1613 4147 
z
" transform="scale(0.015625)"/>
      <path id="DejaVuSans-Oblique-75" d="M 428 1388 
L 838 3500 
L 1416 3500 
L 1006 1409 
Q 975 1256 961 1147 
Q 947 1038 947 966 
Q 947 700 1109 554 
Q 1272 409 1569 409 
Q 2031 409 2368 721 
Q 2706 1034 2809 1563 
L 3194 3500 
L 3769 3500 
L 3091 0 
L 2516 0 
L 2631 550 
Q 2388 244 2052 76 
Q 1716 -91 1338 -91 
Q 878 -91 622 161 
Q 366 413 366 863 
Q 366 956 381 1097 
Q 397 1238 428 1388 
z
" transform="scale(0.015625)"/>
      <path id="DejaVuSans-Oblique-3d" d="M 678 2906 
L 4684 2906 
L 4684 2381 
L 678 2381 
L 678 2906 
z
M 678 1631 
L 4684 1631 
L 4684 1100 
L 678 1100 
L 678 1631 
z
" transform="scale(0.015625)"/>
      <path id="DejaVuSans-Oblique-41" d="M 2356 4666 
L 3072 4666 
L 3938 0 
L 3278 0 
L 3084 1197 
L 984 1197 
L 325 0 
L -341 0 
L 2356 4666 
z
M 2584 4044 
L 1275 1722 
L 2988 1722 
L 2584 4044 
z
" transform="scale(0.015625)"/>
      <path id="DejaVuSans-Oblique-49" d="M 1081 4666 
L 1716 4666 
L 806 0 
L 172 0 
L 1081 4666 
z
" transform="scale(0.015625)"/>
      <path id="DejaVuSans-Oblique-6b" d="M 1172 4863 
L 1747 4863 
L 1197 2028 
L 3169 3500 
L 3916 3500 
L 1716 1825 
L 3322 0 
L 2625 0 
L 1131 1709 
L 800 0 
L 225 0 
L 1172 4863 
z
" transform="scale(0.015625)"/>
      <path id="DejaVuSans-Oblique-b7" d="M 884 2619 
L 1544 2619 
L 1388 1825 
L 728 1825 
L 884 2619 
z
" transform="scale(0.015625)"/>
      <path id="DejaVuSans-Oblique-47" d="M 3494 697 
L 3738 1919 
L 2700 1919 
L 2797 2438 
L 4453 2438 
L 4050 384 
Q 3634 156 3143 32 
Q 2653 -91 2156 -91 
Q 1278 -91 783 396 
Q 288 884 288 1753 
Q 288 2475 589 3126 
Q 891 3778 1422 4213 
Q 1756 4484 2153 4617 
Q 2550 4750 3034 4750 
Q 3472 4750 3873 4639 
Q 4275 4528 4641 4306 
L 4513 3634 
Q 4231 3928 3853 4083 
Q 3475 4238 3047 4238 
Q 2550 4238 2172 4048 
Q 1794 3859 1497 3463 
Q 1244 3125 1098 2667 
Q 953 2209 953 1734 
Q 953 1081 1287 751 
Q 1622 422 2284 422 
Q 2616 422 2925 492 
Q 3234 563 3494 697 
z
" transform="scale(0.015625)"/>
      <path id="DejaVuSans-Oblique-79" d="M 1588 -325 
Q 1188 -997 936 -1164 
Q 684 -1331 294 -1331 
L -159 -1331 
L -63 -850 
L 269 -850 
Q 509 -850 678 -719 
Q 847 -588 1056 -206 
L 1234 128 
L 459 3500 
L 1069 3500 
L 1650 819 
L 3256 3500 
L 3859 3500 
L 1588 -325 
z
" transform="scale(0.015625)"/>
      <path id="DejaVuSans-Oblique-53" d="M 3859 4513 
L 3738 3897 
Q 3422 4066 3111 4152 
Q 2800 4238 2509 4238 
Q 1944 4238 1609 3991 
Q 1275 3744 1275 3334 
Q 1275 3109 1398 2989 
Q 1522 2869 2034 2731 
L 2413 2638 
Q 3053 2472 3303 2217 
Q 3553 1963 3553 1503 
Q 3553 797 2998 353 
Q 2444 -91 1538 -91 
Q 1166 -91 791 -17 
Q 416 56 38 206 
L 166 856 
Q 513 641 861 531 
Q 1209 422 1556 422 
Q 2147 422 2503 684 
Q 2859 947 2859 1369 
Q 2859 1650 2717 1795 
Q 2575 1941 2106 2059 
L 1728 2156 
Q 1081 2325 845 2545 
Q 609 2766 609 3163 
Q 609 3859 1145 4304 
Q 1681 4750 2541 4750 
Q 2875 4750 3203 4690 
Q 3531 4631 3859 4513 
z
" transform="scale(0.015625)"/>
      <path id="DejaVuSans-Oblique-6d" d="M 5747 2113 
L 5338 0 
L 4763 0 
L 5166 2094 
Q 5191 2228 5203 2325 
Q 5216 2422 5216 2491 
Q 5216 2772 5059 2928 
Q 4903 3084 4622 3084 
Q 4203 3084 3875 2770 
Q 3547 2456 3450 1953 
L 3066 0 
L 2491 0 
L 2900 2094 
Q 2925 2209 2937 2307 
Q 2950 2406 2950 2484 
Q 2950 2769 2794 2926 
Q 2638 3084 2363 3084 
Q 1938 3084 1609 2770 
Q 1281 2456 1184 1953 
L 800 0 
L 225 0 
L 909 3500 
L 1484 3500 
L 1375 2956 
Q 1609 3263 1923 3423 
Q 2238 3584 2597 3584 
Q 2978 3584 3223 3384 
Q 3469 3184 3519 2828 
Q 3781 3197 4126 3390 
Q 4472 3584 4856 3584 
Q 5306 3584 5551 3325 
Q 5797 3066 5797 2591 
Q 5797 2488 5784 2364 
Q 5772 2241 5747 2113 
z
" transform="scale(0.015625)"/>
     </defs>
     <use xlink:href="#DejaVuSans-Oblique-50"/>
     <use xlink:href="#DejaVuSans-Oblique-75" transform="translate(60.302734 0)"/>
     <use xlink:href="#DejaVuSans-Oblique-72" transform="translate(123.681641 0)"/>
     <use xlink:href="#DejaVuSans-Oblique-70" transform="translate(164.794922 0)"/>
     <use xlink:href="#DejaVuSans-Oblique-6c" transform="translate(228.271484 0)"/>
     <use xlink:href="#DejaVuSans-Oblique-65" transform="translate(256.054688 0)"/>
     <use xlink:href="#DejaVuSans-Oblique-20" transform="translate(317.578125 0)"/>
     <use xlink:href="#DejaVuSans-Oblique-3d" transform="translate(349.365234 0)"/>
     <use xlink:href="#DejaVuSans-Oblique-20" transform="translate(433.154297 0)"/>
     <use xlink:href="#DejaVuSans-Oblique-41" transform="translate(464.941406 0)"/>
     <use xlink:href="#DejaVuSans-Oblique-49" transform="translate(533.349609 0)"/>
     <use xlink:href="#DejaVuSans-Oblique-20" transform="translate(562.841797 0)"/>
     <use xlink:href="#DejaVuSans-Oblique-64" transform="translate(594.628906 0)"/>
     <use xlink:href="#DejaVuSans-Oblique-6f" transform="translate(658.105469 0)"/>
     <use xlink:href="#DejaVuSans-Oblique-65" transform="translate(719.287109 0)"/>
     <use xlink:href="#DejaVuSans-Oblique-73" transform="translate(780.810547 0)"/>
     <use xlink:href="#DejaVuSans-Oblique-20" transform="translate(832.910156 0)"/>
     <use xlink:href="#DejaVuSans-Oblique-74" transform="translate(864.697266 0)"/>
     <use xlink:href="#DejaVuSans-Oblique-68" transform="translate(903.90625 0)"/>
     <use xlink:href="#DejaVuSans-Oblique-65" transform="translate(967.285156 0)"/>
     <use xlink:href="#DejaVuSans-Oblique-20" transform="translate(1028.808594 0)"/>
     <use xlink:href="#DejaVuSans-Oblique-77" transform="translate(1060.595703 0)"/>
     <use xlink:href="#DejaVuSans-Oblique-6f" transform="translate(1142.382812 0)"/>
     <use xlink:href="#DejaVuSans-Oblique-72" transform="translate(1203.564453 0)"/>
     <use xlink:href="#DejaVuSans-Oblique-6b" transform="translate(1244.677734 0)"/>
     <use xlink:href="#DejaVuSans-Oblique-20" transform="translate(1302.587891 0)"/>
     <use xlink:href="#DejaVuSans-Oblique-20" transform="translate(1334.375 0)"/>
     <use xlink:href="#DejaVuSans-Oblique-b7" transform="translate(1366.162109 0)"/>
     <use xlink:href="#DejaVuSans-Oblique-20" transform="translate(1397.949219 0)"/>
     <use xlink:href="#DejaVuSans-Oblique-20" transform="translate(1429.736328 0)"/>
     <use xlink:href="#DejaVuSans-Oblique-47" transform="translate(1461.523438 0)"/>
     <use xlink:href="#DejaVuSans-Oblique-72" transform="translate(1539.013672 0)"/>
     <use xlink:href="#DejaVuSans-Oblique-65" transform="translate(1580.126953 0)"/>
     <use xlink:href="#DejaVuSans-Oblique-79" transform="translate(1641.650391 0)"/>
     <use xlink:href="#DejaVuSans-Oblique-20" transform="translate(1700.830078 0)"/>
     <use xlink:href="#DejaVuSans-Oblique-3d" transform="translate(1732.617188 0)"/>
     <use xlink:href="#DejaVuSans-Oblique-20" transform="translate(1816.40625 0)"/>
     <use xlink:href="#DejaVuSans-Oblique-53" transform="translate(1848.193359 0)"/>
     <use xlink:href="#DejaVuSans-Oblique-79" transform="translate(1911.669922 0)"/>
     <use xlink:href="#DejaVuSans-Oblique-73" transform="translate(1970.849609 0)"/>
     <use xlink:href="#DejaVuSans-Oblique-74" transform="translate(2022.949219 0)"/>
     <use xlink:href="#DejaVuSans-Oblique-65" transform="translate(2062.158203 0)"/>
     <use xlink:href="#DejaVuSans-Oblique-6d" transform="translate(2123.681641 0)"/>
     <use xlink:href="#DejaVuSans-Oblique-20" transform="translate(2221.09375 0)"/>
     <use xlink:href="#DejaVuSans-Oblique-64" transform="translate(2252.880859 0)"/>
     <use xlink:href="#DejaVuSans-Oblique-6f" transform="translate(2316.357422 0)"/>
     <use xlink:href="#DejaVuSans-Oblique-65" transform="translate(2377.539062 0)"/>
     <use xlink:href="#DejaVuSans-Oblique-73" transform="translate(2439.0625 0)"/>
     <use xlink:href="#DejaVuSans-Oblique-20" transform="translate(2491.162109 0)"/>
     <use xlink:href="#DejaVuSans-Oblique-69" transform="translate(2522.949219 0)"/>
     <use xlink:href="#DejaVuSans-Oblique-74" transform="translate(2550.732422 0)"/>
    </g>
   </g>
   <g id="text_13">
    <!-- Green box = outcome -->
    <g style="fill: #1a1a1a" transform="translate(311.742344 459.577775) scale(0.1 -0.1)">
     <defs>
      <path id="DejaVuSans-Bold-47" d="M 4781 347 
Q 4331 128 3847 18 
Q 3363 -91 2847 -91 
Q 1681 -91 1000 561 
Q 319 1213 319 2328 
Q 319 3456 1012 4103 
Q 1706 4750 2913 4750 
Q 3378 4750 3804 4662 
Q 4231 4575 4609 4403 
L 4609 3438 
Q 4219 3659 3833 3768 
Q 3447 3878 3059 3878 
Q 2341 3878 1952 3476 
Q 1563 3075 1563 2328 
Q 1563 1588 1938 1184 
Q 2313 781 3003 781 
Q 3191 781 3352 804 
Q 3513 828 3641 878 
L 3641 1784 
L 2906 1784 
L 2906 2591 
L 4781 2591 
L 4781 347 
z
" transform="scale(0.015625)"/>
      <path id="DejaVuSans-Bold-6e" d="M 4056 2131 
L 4056 0 
L 2931 0 
L 2931 347 
L 2931 1631 
Q 2931 2084 2911 2256 
Q 2891 2428 2841 2509 
Q 2775 2619 2662 2680 
Q 2550 2741 2406 2741 
Q 2056 2741 1856 2470 
Q 1656 2200 1656 1722 
L 1656 0 
L 538 0 
L 538 3500 
L 1656 3500 
L 1656 2988 
Q 1909 3294 2193 3439 
Q 2478 3584 2822 3584 
Q 3428 3584 3742 3212 
Q 4056 2841 4056 2131 
z
" transform="scale(0.015625)"/>
      <path id="DejaVuSans-Bold-3d" d="M 678 3084 
L 4684 3084 
L 4684 2350 
L 678 2350 
L 678 3084 
z
M 678 1663 
L 4684 1663 
L 4684 922 
L 678 922 
L 678 1663 
z
" transform="scale(0.015625)"/>
      <path id="DejaVuSans-Bold-63" d="M 3366 3391 
L 3366 2478 
Q 3138 2634 2908 2709 
Q 2678 2784 2431 2784 
Q 1963 2784 1702 2511 
Q 1441 2238 1441 1747 
Q 1441 1256 1702 982 
Q 1963 709 2431 709 
Q 2694 709 2930 787 
Q 3166 866 3366 1019 
L 3366 103 
Q 3103 6 2833 -42 
Q 2563 -91 2291 -91 
Q 1344 -91 809 395 
Q 275 881 275 1747 
Q 275 2613 809 3098 
Q 1344 3584 2291 3584 
Q 2566 3584 2833 3536 
Q 3100 3488 3366 3391 
z
" transform="scale(0.015625)"/>
     </defs>
     <use xlink:href="#DejaVuSans-Bold-47"/>
     <use xlink:href="#DejaVuSans-Bold-72" transform="translate(82.080078 0)"/>
     <use xlink:href="#DejaVuSans-Bold-65" transform="translate(131.396484 0)"/>
     <use xlink:href="#DejaVuSans-Bold-65" transform="translate(199.21875 0)"/>
     <use xlink:href="#DejaVuSans-Bold-6e" transform="translate(267.041016 0)"/>
     <use xlink:href="#DejaVuSans-Bold-20" transform="translate(338.232422 0)"/>
     <use xlink:href="#DejaVuSans-Bold-62" transform="translate(373.046875 0)"/>
     <use xlink:href="#DejaVuSans-Bold-6f" transform="translate(444.628906 0)"/>
     <use xlink:href="#DejaVuSans-Bold-78" transform="translate(513.330078 0)"/>
     <use xlink:href="#DejaVuSans-Bold-20" transform="translate(577.832031 0)"/>
     <use xlink:href="#DejaVuSans-Bold-3d" transform="translate(612.646484 0)"/>
     <use xlink:href="#DejaVuSans-Bold-20" transform="translate(696.435547 0)"/>
     <use xlink:href="#DejaVuSans-Bold-6f" transform="translate(731.25 0)"/>
     <use xlink:href="#DejaVuSans-Bold-75" transform="translate(799.951172 0)"/>
     <use xlink:href="#DejaVuSans-Bold-74" transform="translate(871.142578 0)"/>
     <use xlink:href="#DejaVuSans-Bold-63" transform="translate(918.945312 0)"/>
     <use xlink:href="#DejaVuSans-Bold-6f" transform="translate(978.222656 0)"/>
     <use xlink:href="#DejaVuSans-Bold-6d" transform="translate(1046.923828 0)"/>
     <use xlink:href="#DejaVuSans-Bold-65" transform="translate(1151.123047 0)"/>
    </g>
   </g>
   <g id="text_14">
    <!-- You've completed the journey! -->
    <g style="fill: #5a5a5a" transform="translate(307.642422 471.637869) scale(0.085 -0.085)">
     <defs>
      <path id="DejaVuSans-Oblique-59" d="M 403 4666 
L 1081 4666 
L 1953 2747 
L 3616 4666 
L 4325 4666 
L 2209 2222 
L 1778 0 
L 1147 0 
L 1575 2222 
L 403 4666 
z
" transform="scale(0.015625)"/>
      <path id="DejaVuSans-Oblique-27" d="M 1147 4666 
L 1147 2931 
L 616 2931 
L 616 4666 
L 1147 4666 
z
" transform="scale(0.015625)"/>
      <path id="DejaVuSans-Oblique-76" d="M 459 3500 
L 1069 3500 
L 1581 525 
L 3256 3500 
L 3866 3500 
L 1875 0 
L 1100 0 
L 459 3500 
z
" transform="scale(0.015625)"/>
      <path id="DejaVuSans-Oblique-6a" d="M 928 3500 
L 1503 3500 
L 813 -63 
L 809 -78 
Q 694 -675 544 -897 
Q 403 -1106 132 -1218 
Q -138 -1331 -506 -1331 
L -722 -1331 
L -628 -844 
L -481 -844 
Q -144 -844 -1 -703 
Q 141 -563 238 -63 
L 928 3500 
z
M 1197 4863 
L 1772 4863 
L 1631 4134 
L 1056 4134 
L 1197 4863 
z
" transform="scale(0.015625)"/>
      <path id="DejaVuSans-Oblique-21" d="M 1416 4666 
L 2047 4666 
L 1650 2619 
L 1369 1503 
L 863 1503 
L 1019 2619 
L 1416 4666 
z
M 666 794 
L 1300 794 
L 1147 0 
L 506 0 
L 666 794 
z
" transform="scale(0.015625)"/>
     </defs>
     <use xlink:href="#DejaVuSans-Oblique-59"/>
     <use xlink:href="#DejaVuSans-Oblique-6f" transform="translate(50.083984 0)"/>
     <use xlink:href="#DejaVuSans-Oblique-75" transform="translate(111.265625 0)"/>
     <use xlink:href="#DejaVuSans-Oblique-27" transform="translate(174.644531 0)"/>
     <use xlink:href="#DejaVuSans-Oblique-76" transform="translate(202.134766 0)"/>
     <use xlink:href="#DejaVuSans-Oblique-65" transform="translate(261.314453 0)"/>
     <use xlink:href="#DejaVuSans-Oblique-20" transform="translate(322.837891 0)"/>
     <use xlink:href="#DejaVuSans-Oblique-63" transform="translate(354.625 0)"/>
     <use xlink:href="#DejaVuSans-Oblique-6f" transform="translate(409.605469 0)"/>
     <use xlink:href="#DejaVuSans-Oblique-6d" transform="translate(470.787109 0)"/>
     <use xlink:href="#DejaVuSans-Oblique-70" transform="translate(568.199219 0)"/>
     <use xlink:href="#DejaVuSans-Oblique-6c" transform="translate(631.675781 0)"/>
     <use xlink:href="#DejaVuSans-Oblique-65" transform="translate(659.458984 0)"/>
     <use xlink:href="#DejaVuSans-Oblique-74" transform="translate(720.982422 0)"/>
     <use xlink:href="#DejaVuSans-Oblique-65" transform="translate(760.191406 0)"/>
     <use xlink:href="#DejaVuSans-Oblique-64" transform="translate(821.714844 0)"/>
     <use xlink:href="#DejaVuSans-Oblique-20" transform="translate(885.191406 0)"/>
     <use xlink:href="#DejaVuSans-Oblique-74" transform="translate(916.978516 0)"/>
     <use xlink:href="#DejaVuSans-Oblique-68" transform="translate(956.1875 0)"/>
     <use xlink:href="#DejaVuSans-Oblique-65" transform="translate(1019.566406 0)"/>
     <use xlink:href="#DejaVuSans-Oblique-20" transform="translate(1081.089844 0)"/>
     <use xlink:href="#DejaVuSans-Oblique-6a" transform="translate(1112.876953 0)"/>
     <use xlink:href="#DejaVuSans-Oblique-6f" transform="translate(1140.660156 0)"/>
     <use xlink:href="#DejaVuSans-Oblique-75" transform="translate(1201.841797 0)"/>
     <use xlink:href="#DejaVuSans-Oblique-72" transform="translate(1265.220703 0)"/>
     <use xlink:href="#DejaVuSans-Oblique-6e" transform="translate(1306.333984 0)"/>
     <use xlink:href="#DejaVuSans-Oblique-65" transform="translate(1369.712891 0)"/>
     <use xlink:href="#DejaVuSans-Oblique-79" transform="translate(1431.236328 0)"/>
     <use xlink:href="#DejaVuSans-Oblique-21" transform="translate(1490.416016 0)"/>
    </g>
   </g>
  </g>
 </g>
 <defs>
  <clipPath id="p7531092e94">
   <rect x="7.2" y="7.2" width="725.4" height="498.96"/>
  </clipPath>
 </defs>
</svg>
