<?xml version="1.0" encoding="utf-8" standalone="no"?>
<!DOCTYPE svg PUBLIC "-//W3C//DTD SVG 1.1//EN"
  "http://www.w3.org/Graphics/SVG/1.1/DTD/svg11.dtd">
<svg xmlns:xlink="http://www.w3.org/1999/xlink" width="928.8pt" height="1000.8pt" viewBox="0 0 928.8 1000.8" xmlns="http://www.w3.org/2000/svg" version="1.1">
 <metadata>
  <rdf:RDF xmlns:dc="http://purl.org/dc/elements/1.1/" xmlns:cc="http://creativecommons.org/ns#" xmlns:rdf="http://www.w3.org/1999/02/22-rdf-syntax-ns#">
   <cc:Work>
    <dc:type rdf:resource="http://purl.org/dc/dcmitype/StillImage"/>
    <dc:date>2026-03-29T04:24:07.947626</dc:date>
    <dc:format>image/svg+xml</dc:format>
    <dc:creator>
     <cc:Agent>
      <dc:title>Matplotlib v3.10.8, https://matplotlib.org/</dc:title>
     </cc:Agent>
    </dc:creator>
   </cc:Work>
  </rdf:RDF>
 </metadata>
 <defs>
  <style type="text/css">*{stroke-linejoin: round; stroke-linecap: butt}</style>
 </defs>
 <g id="figure_1">
  <g id="patch_1">
   <path d="M 0 1000.8 
L 928.8 1000.8 
L 928.8 0 
L 0 0 
z
" style="fill: #fafafa"/>
  </g>
  <g id="axes_1">
   <g id="patch_2">
    <path d="M 7.2 84.702857 
L 851.261538 84.702857 
L 851.261538 7.2 
L 7.2 7.2 
z
" clip-path="url(#p498cff469d)" style="fill: #e65100"/>
   </g>
   <g id="patch_3">
    <path d="M 183.046154 240.300301 
Q 183.046154 260.845394 183.046154 279.713436 
" style="fill: none; stroke: #e65100; stroke-width: 1.5; stroke-linecap: round"/>
    <path d="M 185.846154 274.113436 
L 183.046154 279.713436 
L 180.246154 274.113436 
z
" style="fill: #e65100; stroke: #e65100; stroke-width: 1.5; stroke-linecap: round"/>
   </g>
   <g id="patch_4">
    <path d="M 183.046154 395.306016 
Q 183.046154 415.851109 183.046154 434.719151 
" style="fill: none; stroke: #e65100; stroke-width: 1.5; stroke-linecap: round"/>
    <path d="M 185.846154 429.119151 
L 183.046154 434.719151 
L 180.246154 429.119151 
z
" style="fill: #e65100; stroke: #e65100; stroke-width: 1.5; stroke-linecap: round"/>
   </g>
   <g id="patch_5">
    <path d="M 464.4 240.300301 
Q 464.4 260.845394 464.4 279.713436 
" style="fill: none; stroke: #2e7d32; stroke-width: 1.5; stroke-linecap: round"/>
    <path d="M 467.2 274.113436 
L 464.4 279.713436 
L 461.6 274.113436 
z
" style="fill: #2e7d32; stroke: #2e7d32; stroke-width: 1.5; stroke-linecap: round"/>
   </g>
   <g id="patch_6">
    <path d="M 464.4 395.306016 
Q 464.4 415.851109 464.4 434.719151 
" style="fill: none; stroke: #2e7d32; stroke-width: 1.5; stroke-linecap: round"/>
    <path d="M 467.2 429.119151 
L 464.4 434.719151 
L 461.6 429.119151 
z
" style="fill: #2e7d32; stroke: #2e7d32; stroke-width: 1.5; stroke-linecap: round"/>
   </g>
   <g id="patch_7">
    <path d="M 745.753846 240.300301 
Q 745.753846 260.845394 745.753846 279.713436 
" style="fill: none; stroke: #1565c0; stroke-width: 1.5; stroke-linecap: round"/>
    <path d="M 748.553846 274.113436 
L 745.753846 279.713436 
L 742.953846 274.113436 
z
" style="fill: #1565c0; stroke: #1565c0; stroke-width: 1.5; stroke-linecap: round"/>
   </g>
   <g id="patch_8">
    <path d="M 745.753846 395.306016 
Q 745.753846 415.851109 745.753846 434.719151 
" style="fill: none; stroke: #1565c0; stroke-width: 1.5; stroke-linecap: round"/>
    <path d="M 748.553846 429.119151 
L 745.753846 434.719151 
L 742.953846 429.119151 
z
" style="fill: #1565c0; stroke: #1565c0; stroke-width: 1.5; stroke-linecap: round"/>
   </g>
   <g id="patch_9">
    <path d="M 184.546599 549.633477 
Q 323.722808 672.315191 461.640958 793.887947 
" style="fill: none; stroke: #455a64; stroke-width: 1.5; stroke-linecap: round"/>
    <path d="M 459.291573 788.084466 
L 461.640958 793.887947 
L 455.588542 792.285367 
z
" style="fill: #455a64; stroke: #455a64; stroke-width: 1.5; stroke-linecap: round"/>
   </g>
   <g id="patch_10">
    <path d="M 464.4 550.312762 
Q 464.4 672.316001 464.4 792.642188 
" style="fill: none; stroke: #455a64; stroke-width: 1.5; stroke-linecap: round"/>
    <path d="M 467.2 787.042188 
L 464.4 792.642188 
L 461.6 787.042188 
z
" style="fill: #455a64; stroke: #455a64; stroke-width: 1.5; stroke-linecap: round"/>
   </g>
   <g id="patch_11">
    <path d="M 744.253401 549.633477 
Q 605.077192 672.315191 467.159042 793.887947 
" style="fill: none; stroke: #455a64; stroke-width: 1.5; stroke-linecap: round"/>
    <path d="M 473.211458 792.285367 
L 467.159042 793.887947 
L 469.508427 788.084466 
z
" style="fill: #455a64; stroke: #455a64; stroke-width: 1.5; stroke-linecap: round"/>
   </g>
   <g id="patch_12">
    <path d="M 66.987692 123.454286 
L 292.070769 123.454286 
Q 302.621538 123.454286 302.621538 112.885714 
L 302.621538 70.611429 
Q 302.621538 60.042857 292.070769 60.042857 
L 66.987692 60.042857 
Q 56.436923 60.042857 56.436923 70.611429 
L 56.436923 112.885714 
Q 56.436923 123.454286 66.987692 123.454286 
z
" clip-path="url(#p498cff469d)" style="fill: #e65100; stroke: #e65100; stroke-width: 2; stroke-linejoin: miter"/>
   </g>
   <g id="patch_13">
    <path d="M 84.572308 237.947143 
L 281.52 237.947143 
Q 299.104615 237.947143 299.104615 220.332857 
L 299.104615 146.352857 
Q 299.104615 128.738571 281.52 128.738571 
L 84.572308 128.738571 
Q 66.987692 128.738571 66.987692 146.352857 
L 66.987692 220.332857 
Q 66.987692 237.947143 84.572308 237.947143 
z
" clip-path="url(#p498cff469d)" style="fill: #fff3e0; stroke: #e65100; stroke-width: 1.5; stroke-linejoin: miter"/>
   </g>
   <g id="patch_14">
    <path d="M 84.572308 392.952857 
L 281.52 392.952857 
Q 299.104615 392.952857 299.104615 375.338571 
L 299.104615 301.358571 
Q 299.104615 283.744286 281.52 283.744286 
L 84.572308 283.744286 
Q 66.987692 283.744286 66.987692 301.358571 
L 66.987692 375.338571 
Q 66.987692 392.952857 84.572308 392.952857 
z
" clip-path="url(#p498cff469d)" style="fill: #fff3e0; stroke: #e65100; stroke-width: 1.5; stroke-linejoin: miter"/>
   </g>
   <g id="patch_15">
    <path d="M 84.572308 547.958571 
L 281.52 547.958571 
Q 299.104615 547.958571 299.104615 530.344286 
L 299.104615 456.364286 
Q 299.104615 438.75 281.52 438.75 
L 84.572308 438.75 
Q 66.987692 438.75 66.987692 456.364286 
L 66.987692 530.344286 
Q 66.987692 547.958571 84.572308 547.958571 
z
" clip-path="url(#p498cff469d)" style="fill: #fff3e0; stroke: #e65100; stroke-width: 1.5; stroke-linejoin: miter"/>
   </g>
   <g id="patch_16">
    <path d="M 348.341538 123.454286 
L 573.424615 123.454286 
Q 583.975385 123.454286 583.975385 112.885714 
L 583.975385 70.611429 
Q 583.975385 60.042857 573.424615 60.042857 
L 348.341538 60.042857 
Q 337.790769 60.042857 337.790769 70.611429 
L 337.790769 112.885714 
Q 337.790769 123.454286 348.341538 123.454286 
z
" clip-path="url(#p498cff469d)" style="fill: #2e7d32; stroke: #2e7d32; stroke-width: 2; stroke-linejoin: miter"/>
   </g>
   <g id="patch_17">
    <path d="M 365.926154 237.947143 
L 562.873846 237.947143 
Q 580.458462 237.947143 580.458462 220.332857 
L 580.458462 146.352857 
Q 580.458462 128.738571 562.873846 128.738571 
L 365.926154 128.738571 
Q 348.341538 128.738571 348.341538 146.352857 
L 348.341538 220.332857 
Q 348.341538 237.947143 365.926154 237.947143 
z
" clip-path="url(#p498cff469d)" style="fill: #e8f5e9; stroke: #2e7d32; stroke-width: 1.5; stroke-linejoin: miter"/>
   </g>
   <g id="patch_18">
    <path d="M 365.926154 392.952857 
L 562.873846 392.952857 
Q 580.458462 392.952857 580.458462 375.338571 
L 580.458462 301.358571 
Q 580.458462 283.744286 562.873846 283.744286 
L 365.926154 283.744286 
Q 348.341538 283.744286 348.341538 301.358571 
L 348.341538 375.338571 
Q 348.341538 392.952857 365.926154 392.952857 
z
" clip-path="url(#p498cff469d)" style="fill: #e8f5e9; stroke: #2e7d32; stroke-width: 1.5; stroke-linejoin: miter"/>
   </g>
   <g id="patch_19">
    <path d="M 365.926154 547.958571 
L 562.873846 547.958571 
Q 580.458462 547.958571 580.458462 530.344286 
L 580.458462 456.364286 
Q 580.458462 438.75 562.873846 438.75 
L 365.926154 438.75 
Q 348.341538 438.75 348.341538 456.364286 
L 348.341538 530.344286 
Q 348.341538 547.958571 365.926154 547.958571 
z
" clip-path="url(#p498cff469d)" style="fill: #e8f5e9; stroke: #2e7d32; stroke-width: 1.5; stroke-linejoin: miter"/>
   </g>
   <g id="patch_20">
    <path d="M 629.695385 123.454286 
L 854.778462 123.454286 
Q 865.329231 123.454286 865.329231 112.885714 
L 865.329231 70.611429 
Q 865.329231 60.042857 854.778462 60.042857 
L 629.695385 60.042857 
Q 619.144615 60.042857 619.144615 70.611429 
L 619.144615 112.885714 
Q 619.144615 123.454286 629.695385 123.454286 
z
" clip-path="url(#p498cff469d)" style="fill: #1565c0; stroke: #1565c0; stroke-width: 2; stroke-linejoin: miter"/>
   </g>
   <g id="patch_21">
    <path d="M 647.28 237.947143 
L 844.227692 237.947143 
Q 861.812308 237.947143 861.812308 220.332857 
L 861.812308 146.352857 
Q 861.812308 128.738571 844.227692 128.738571 
L 647.28 128.738571 
Q 629.695385 128.738571 629.695385 146.352857 
L 629.695385 220.332857 
Q 629.695385 237.947143 647.28 237.947143 
z
" clip-path="url(#p498cff469d)" style="fill: #e3f2fd; stroke: #1565c0; stroke-width: 1.5; stroke-linejoin: miter"/>
   </g>
   <g id="patch_22">
    <path d="M 647.28 392.952857 
L 844.227692 392.952857 
Q 861.812308 392.952857 861.812308 375.338571 
L 861.812308 301.358571 
Q 861.812308 283.744286 844.227692 283.744286 
L 647.28 283.744286 
Q 629.695385 283.744286 629.695385 301.358571 
L 629.695385 375.338571 
Q 629.695385 392.952857 647.28 392.952857 
z
" clip-path="url(#p498cff469d)" style="fill: #e3f2fd; stroke: #1565c0; stroke-width: 1.5; stroke-linejoin: miter"/>
   </g>
   <g id="patch_23">
    <path d="M 647.28 547.958571 
L 844.227692 547.958571 
Q 861.812308 547.958571 861.812308 530.344286 
L 861.812308 456.364286 
Q 861.812308 438.75 844.227692 438.75 
L 647.28 438.75 
Q 629.695385 438.75 629.695385 456.364286 
L 629.695385 530.344286 
Q 629.695385 547.958571 647.28 547.958571 
z
" clip-path="url(#p498cff469d)" style="fill: #e3f2fd; stroke: #1565c0; stroke-width: 1.5; stroke-linejoin: miter"/>
   </g>
   <g id="patch_24">
    <path d="M 165.461538 842.117143 
L 763.338462 842.117143 
Q 780.923077 842.117143 780.923077 824.502857 
L 780.923077 810.411429 
Q 780.923077 792.797143 763.338462 792.797143 
L 165.461538 792.797143 
Q 147.876923 792.797143 147.876923 810.411429 
L 147.876923 824.502857 
Q 147.876923 842.117143 165.461538 842.117143 
z
" clip-path="url(#p498cff469d)" style="fill: #f1f8e9; stroke: #1b5e20; stroke-width: 1.5; stroke-linejoin: miter"/>
   </g>
   <g id="text_1">
    <!-- ClassBridge  ·  Journey T07  ·  classbridge.ca -->
    <g style="fill: #aaaaaa" transform="translate(28.301538 983.031429) scale(0.075 -0.075)">
     <defs>
      <path id="DejaVuSans-43" d="M 4122 4306 
L 4122 3641 
Q 3803 3938 3442 4084 
Q 3081 4231 2675 4231 
Q 1875 4231 1450 3742 
Q 1025 3253 1025 2328 
Q 1025 1406 1450 917 
Q 1875 428 2675 428 
Q 3081 428 3442 575 
Q 3803 722 4122 1019 
L 4122 359 
Q 3791 134 3420 21 
Q 3050 -91 2638 -91 
Q 1578 -91 968 557 
Q 359 1206 359 2328 
Q 359 3453 968 4101 
Q 1578 4750 2638 4750 
Q 3056 4750 3426 4639 
Q 3797 4528 4122 4306 
z
" transform="scale(0.015625)"/>
      <path id="DejaVuSans-6c" d="M 603 4863 
L 1178 4863 
L 1178 0 
L 603 0 
L 603 4863 
z
" transform="scale(0.015625)"/>
      <path id="DejaVuSans-61" d="M 2194 1759 
Q 1497 1759 1228 1600 
Q 959 1441 959 1056 
Q 959 750 1161 570 
Q 1363 391 1709 391 
Q 2188 391 2477 730 
Q 2766 1069 2766 1631 
L 2766 1759 
L 2194 1759 
z
M 3341 1997 
L 3341 0 
L 2766 0 
L 2766 531 
Q 2569 213 2275 61 
Q 1981 -91 1556 -91 
Q 1019 -91 701 211 
Q 384 513 384 1019 
Q 384 1609 779 1909 
Q 1175 2209 1959 2209 
L 2766 2209 
L 2766 2266 
Q 2766 2663 2505 2880 
Q 2244 3097 1772 3097 
Q 1472 3097 1187 3025 
Q 903 2953 641 2809 
L 641 3341 
Q 956 3463 1253 3523 
Q 1550 3584 1831 3584 
Q 2591 3584 2966 3190 
Q 3341 2797 3341 1997 
z
" transform="scale(0.015625)"/>
      <path id="DejaVuSans-73" d="M 2834 3397 
L 2834 2853 
Q 2591 2978 2328 3040 
Q 2066 3103 1784 3103 
Q 1356 3103 1142 2972 
Q 928 2841 928 2578 
Q 928 2378 1081 2264 
Q 1234 2150 1697 2047 
L 1894 2003 
Q 2506 1872 2764 1633 
Q 3022 1394 3022 966 
Q 3022 478 2636 193 
Q 2250 -91 1575 -91 
Q 1294 -91 989 -36 
Q 684 19 347 128 
L 347 722 
Q 666 556 975 473 
Q 1284 391 1588 391 
Q 1994 391 2212 530 
Q 2431 669 2431 922 
Q 2431 1156 2273 1281 
Q 2116 1406 1581 1522 
L 1381 1569 
Q 847 1681 609 1914 
Q 372 2147 372 2553 
Q 372 3047 722 3315 
Q 1072 3584 1716 3584 
Q 2034 3584 2315 3537 
Q 2597 3491 2834 3397 
z
" transform="scale(0.015625)"/>
      <path id="DejaVuSans-42" d="M 1259 2228 
L 1259 519 
L 2272 519 
Q 2781 519 3026 730 
Q 3272 941 3272 1375 
Q 3272 1813 3026 2020 
Q 2781 2228 2272 2228 
L 1259 2228 
z
M 1259 4147 
L 1259 2741 
L 2194 2741 
Q 2656 2741 2882 2914 
Q 3109 3088 3109 3444 
Q 3109 3797 2882 3972 
Q 2656 4147 2194 4147 
L 1259 4147 
z
M 628 4666 
L 2241 4666 
Q 2963 4666 3353 4366 
Q 3744 4066 3744 3513 
Q 3744 3084 3544 2831 
Q 3344 2578 2956 2516 
Q 3422 2416 3680 2098 
Q 3938 1781 3938 1306 
Q 3938 681 3513 340 
Q 3088 0 2303 0 
L 628 0 
L 628 4666 
z
" transform="scale(0.015625)"/>
      <path id="DejaVuSans-72" d="M 2631 2963 
Q 2534 3019 2420 3045 
Q 2306 3072 2169 3072 
Q 1681 3072 1420 2755 
Q 1159 2438 1159 1844 
L 1159 0 
L 581 0 
L 581 3500 
L 1159 3500 
L 1159 2956 
Q 1341 3275 1631 3429 
Q 1922 3584 2338 3584 
Q 2397 3584 2469 3576 
Q 2541 3569 2628 3553 
L 2631 2963 
z
" transform="scale(0.015625)"/>
      <path id="DejaVuSans-69" d="M 603 3500 
L 1178 3500 
L 1178 0 
L 603 0 
L 603 3500 
z
M 603 4863 
L 1178 4863 
L 1178 4134 
L 603 4134 
L 603 4863 
z
" transform="scale(0.015625)"/>
      <path id="DejaVuSans-64" d="M 2906 2969 
L 2906 4863 
L 3481 4863 
L 3481 0 
L 2906 0 
L 2906 525 
Q 2725 213 2448 61 
Q 2172 -91 1784 -91 
Q 1150 -91 751 415 
Q 353 922 353 1747 
Q 353 2572 751 3078 
Q 1150 3584 1784 3584 
Q 2172 3584 2448 3432 
Q 2725 3281 2906 2969 
z
M 947 1747 
Q 947 1113 1208 752 
Q 1469 391 1925 391 
Q 2381 391 2643 752 
Q 2906 1113 2906 1747 
Q 2906 2381 2643 2742 
Q 2381 3103 1925 3103 
Q 1469 3103 1208 2742 
Q 947 2381 947 1747 
z
" transform="scale(0.015625)"/>
      <path id="DejaVuSans-67" d="M 2906 1791 
Q 2906 2416 2648 2759 
Q 2391 3103 1925 3103 
Q 1463 3103 1205 2759 
Q 947 2416 947 1791 
Q 947 1169 1205 825 
Q 1463 481 1925 481 
Q 2391 481 2648 825 
Q 2906 1169 2906 1791 
z
M 3481 434 
Q 3481 -459 3084 -895 
Q 2688 -1331 1869 -1331 
Q 1566 -1331 1297 -1286 
Q 1028 -1241 775 -1147 
L 775 -588 
Q 1028 -725 1275 -790 
Q 1522 -856 1778 -856 
Q 2344 -856 2625 -561 
Q 2906 -266 2906 331 
L 2906 616 
Q 2728 306 2450 153 
Q 2172 0 1784 0 
Q 1141 0 747 490 
Q 353 981 353 1791 
Q 353 2603 747 3093 
Q 1141 3584 1784 3584 
Q 2172 3584 2450 3431 
Q 2728 3278 2906 2969 
L 2906 3500 
L 3481 3500 
L 3481 434 
z
" transform="scale(0.015625)"/>
      <path id="DejaVuSans-65" d="M 3597 1894 
L 3597 1613 
L 953 1613 
Q 991 1019 1311 708 
Q 1631 397 2203 397 
Q 2534 397 2845 478 
Q 3156 559 3463 722 
L 3463 178 
Q 3153 47 2828 -22 
Q 2503 -91 2169 -91 
Q 1331 -91 842 396 
Q 353 884 353 1716 
Q 353 2575 817 3079 
Q 1281 3584 2069 3584 
Q 2775 3584 3186 3129 
Q 3597 2675 3597 1894 
z
M 3022 2063 
Q 3016 2534 2758 2815 
Q 2500 3097 2075 3097 
Q 1594 3097 1305 2825 
Q 1016 2553 972 2059 
L 3022 2063 
z
" transform="scale(0.015625)"/>
      <path id="DejaVuSans-20" transform="scale(0.015625)"/>
      <path id="DejaVuSans-b7" d="M 684 2619 
L 1344 2619 
L 1344 1825 
L 684 1825 
L 684 2619 
z
" transform="scale(0.015625)"/>
      <path id="DejaVuSans-4a" d="M 628 4666 
L 1259 4666 
L 1259 325 
Q 1259 -519 939 -900 
Q 619 -1281 -91 -1281 
L -331 -1281 
L -331 -750 
L -134 -750 
Q 284 -750 456 -515 
Q 628 -281 628 325 
L 628 4666 
z
" transform="scale(0.015625)"/>
      <path id="DejaVuSans-6f" d="M 1959 3097 
Q 1497 3097 1228 2736 
Q 959 2375 959 1747 
Q 959 1119 1226 758 
Q 1494 397 1959 397 
Q 2419 397 2687 759 
Q 2956 1122 2956 1747 
Q 2956 2369 2687 2733 
Q 2419 3097 1959 3097 
z
M 1959 3584 
Q 2709 3584 3137 3096 
Q 3566 2609 3566 1747 
Q 3566 888 3137 398 
Q 2709 -91 1959 -91 
Q 1206 -91 779 398 
Q 353 888 353 1747 
Q 353 2609 779 3096 
Q 1206 3584 1959 3584 
z
" transform="scale(0.015625)"/>
      <path id="DejaVuSans-75" d="M 544 1381 
L 544 3500 
L 1119 3500 
L 1119 1403 
Q 1119 906 1312 657 
Q 1506 409 1894 409 
Q 2359 409 2629 706 
Q 2900 1003 2900 1516 
L 2900 3500 
L 3475 3500 
L 3475 0 
L 2900 0 
L 2900 538 
Q 2691 219 2414 64 
Q 2138 -91 1772 -91 
Q 1169 -91 856 284 
Q 544 659 544 1381 
z
M 1991 3584 
L 1991 3584 
z
" transform="scale(0.015625)"/>
      <path id="DejaVuSans-6e" d="M 3513 2113 
L 3513 0 
L 2938 0 
L 2938 2094 
Q 2938 2591 2744 2837 
Q 2550 3084 2163 3084 
Q 1697 3084 1428 2787 
Q 1159 2491 1159 1978 
L 1159 0 
L 581 0 
L 581 3500 
L 1159 3500 
L 1159 2956 
Q 1366 3272 1645 3428 
Q 1925 3584 2291 3584 
Q 2894 3584 3203 3211 
Q 3513 2838 3513 2113 
z
" transform="scale(0.015625)"/>
      <path id="DejaVuSans-79" d="M 2059 -325 
Q 1816 -950 1584 -1140 
Q 1353 -1331 966 -1331 
L 506 -1331 
L 506 -850 
L 844 -850 
Q 1081 -850 1212 -737 
Q 1344 -625 1503 -206 
L 1606 56 
L 191 3500 
L 800 3500 
L 1894 763 
L 2988 3500 
L 3597 3500 
L 2059 -325 
z
" transform="scale(0.015625)"/>
      <path id="DejaVuSans-54" d="M -19 4666 
L 3928 4666 
L 3928 4134 
L 2272 4134 
L 2272 0 
L 1638 0 
L 1638 4134 
L -19 4134 
L -19 4666 
z
" transform="scale(0.015625)"/>
      <path id="DejaVuSans-30" d="M 2034 4250 
Q 1547 4250 1301 3770 
Q 1056 3291 1056 2328 
Q 1056 1369 1301 889 
Q 1547 409 2034 409 
Q 2525 409 2770 889 
Q 3016 1369 3016 2328 
Q 3016 3291 2770 3770 
Q 2525 4250 2034 4250 
z
M 2034 4750 
Q 2819 4750 3233 4129 
Q 3647 3509 3647 2328 
Q 3647 1150 3233 529 
Q 2819 -91 2034 -91 
Q 1250 -91 836 529 
Q 422 1150 422 2328 
Q 422 3509 836 4129 
Q 1250 4750 2034 4750 
z
" transform="scale(0.015625)"/>
      <path id="DejaVuSans-37" d="M 525 4666 
L 3525 4666 
L 3525 4397 
L 1831 0 
L 1172 0 
L 2766 4134 
L 525 4134 
L 525 4666 
z
" transform="scale(0.015625)"/>
      <path id="DejaVuSans-63" d="M 3122 3366 
L 3122 2828 
Q 2878 2963 2633 3030 
Q 2388 3097 2138 3097 
Q 1578 3097 1268 2742 
Q 959 2388 959 1747 
Q 959 1106 1268 751 
Q 1578 397 2138 397 
Q 2388 397 2633 464 
Q 2878 531 3122 666 
L 3122 134 
Q 2881 22 2623 -34 
Q 2366 -91 2075 -91 
Q 1284 -91 818 406 
Q 353 903 353 1747 
Q 353 2603 823 3093 
Q 1294 3584 2113 3584 
Q 2378 3584 2631 3529 
Q 2884 3475 3122 3366 
z
" transform="scale(0.015625)"/>
      <path id="DejaVuSans-62" d="M 3116 1747 
Q 3116 2381 2855 2742 
Q 2594 3103 2138 3103 
Q 1681 3103 1420 2742 
Q 1159 2381 1159 1747 
Q 1159 1113 1420 752 
Q 1681 391 2138 391 
Q 2594 391 2855 752 
Q 3116 1113 3116 1747 
z
M 1159 2969 
Q 1341 3281 1617 3432 
Q 1894 3584 2278 3584 
Q 2916 3584 3314 3078 
Q 3713 2572 3713 1747 
Q 3713 922 3314 415 
Q 2916 -91 2278 -91 
Q 1894 -91 1617 61 
Q 1341 213 1159 525 
L 1159 0 
L 581 0 
L 581 4863 
L 1159 4863 
L 1159 2969 
z
" transform="scale(0.015625)"/>
      <path id="DejaVuSans-2e" d="M 684 794 
L 1344 794 
L 1344 0 
L 684 0 
L 684 794 
z
" transform="scale(0.015625)"/>
     </defs>
     <use xlink:href="#DejaVuSans-43"/>
     <use xlink:href="#DejaVuSans-6c" transform="translate(69.824219 0)"/>
     <use xlink:href="#DejaVuSans-61" transform="translate(97.607422 0)"/>
     <use xlink:href="#DejaVuSans-73" transform="translate(158.886719 0)"/>
     <use xlink:href="#DejaVuSans-73" transform="translate(210.986328 0)"/>
     <use xlink:href="#DejaVuSans-42" transform="translate(263.085938 0)"/>
     <use xlink:href="#DejaVuSans-72" transform="translate(331.689453 0)"/>
     <use xlink:href="#DejaVuSans-69" transform="translate(372.802734 0)"/>
     <use xlink:href="#DejaVuSans-64" transform="translate(400.585938 0)"/>
     <use xlink:href="#DejaVuSans-67" transform="translate(464.0625 0)"/>
     <use xlink:href="#DejaVuSans-65" transform="translate(527.539062 0)"/>
     <use xlink:href="#DejaVuSans-20" transform="translate(589.0625 0)"/>
     <use xlink:href="#DejaVuSans-20" transform="translate(620.849609 0)"/>
     <use xlink:href="#DejaVuSans-b7" transform="translate(652.636719 0)"/>
     <use xlink:href="#DejaVuSans-20" transform="translate(684.423828 0)"/>
     <use xlink:href="#DejaVuSans-20" transform="translate(716.210938 0)"/>
     <use xlink:href="#DejaVuSans-4a" transform="translate(747.998047 0)"/>
     <use xlink:href="#DejaVuSans-6f" transform="translate(777.490234 0)"/>
     <use xlink:href="#DejaVuSans-75" transform="translate(838.671875 0)"/>
     <use xlink:href="#DejaVuSans-72" transform="translate(902.050781 0)"/>
     <use xlink:href="#DejaVuSans-6e" transform="translate(941.414062 0)"/>
     <use xlink:href="#DejaVuSans-65" transform="translate(1004.792969 0)"/>
     <use xlink:href="#DejaVuSans-79" transform="translate(1066.316406 0)"/>
     <use xlink:href="#DejaVuSans-20" transform="translate(1125.496094 0)"/>
     <use xlink:href="#DejaVuSans-54" transform="translate(1157.283203 0)"/>
     <use xlink:href="#DejaVuSans-30" transform="translate(1218.367188 0)"/>
     <use xlink:href="#DejaVuSans-37" transform="translate(1281.990234 0)"/>
     <use xlink:href="#DejaVuSans-20" transform="translate(1345.613281 0)"/>
     <use xlink:href="#DejaVuSans-20" transform="translate(1377.400391 0)"/>
     <use xlink:href="#DejaVuSans-b7" transform="translate(1409.1875 0)"/>
     <use xlink:href="#DejaVuSans-20" transform="translate(1440.974609 0)"/>
     <use xlink:href="#DejaVuSans-20" transform="translate(1472.761719 0)"/>
     <use xlink:href="#DejaVuSans-63" transform="translate(1504.548828 0)"/>
     <use xlink:href="#DejaVuSans-6c" transform="translate(1559.529297 0)"/>
     <use xlink:href="#DejaVuSans-61" transform="translate(1587.3125 0)"/>
     <use xlink:href="#DejaVuSans-73" transform="translate(1648.591797 0)"/>
     <use xlink:href="#DejaVuSans-73" transform="translate(1700.691406 0)"/>
     <use xlink:href="#DejaVuSans-62" transform="translate(1752.791016 0)"/>
     <use xlink:href="#DejaVuSans-72" transform="translate(1816.267578 0)"/>
     <use xlink:href="#DejaVuSans-69" transform="translate(1857.380859 0)"/>
     <use xlink:href="#DejaVuSans-64" transform="translate(1885.164062 0)"/>
     <use xlink:href="#DejaVuSans-67" transform="translate(1948.640625 0)"/>
     <use xlink:href="#DejaVuSans-65" transform="translate(2012.117188 0)"/>
     <use xlink:href="#DejaVuSans-2e" transform="translate(2073.640625 0)"/>
     <use xlink:href="#DejaVuSans-63" transform="translate(2105.427734 0)"/>
     <use xlink:href="#DejaVuSans-61" transform="translate(2160.408203 0)"/>
    </g>
   </g>
   <g id="patch_25">
    <path d="M 70.504615 237.947143 
L 69.097846 237.947143 
Q 72.614769 237.947143 72.614769 234.424286 
L 72.614769 132.261429 
Q 72.614769 128.738571 69.097846 128.738571 
L 70.504615 128.738571 
Q 66.987692 128.738571 66.987692 132.261429 
L 66.987692 234.424286 
Q 66.987692 237.947143 70.504615 237.947143 
z
" clip-path="url(#p498cff469d)" style="fill: #e65100"/>
   </g>
   <g id="patch_26">
    <path d="M 70.504615 392.952857 
L 69.097846 392.952857 
Q 72.614769 392.952857 72.614769 389.43 
L 72.614769 287.267143 
Q 72.614769 283.744286 69.097846 283.744286 
L 70.504615 283.744286 
Q 66.987692 283.744286 66.987692 287.267143 
L 66.987692 389.43 
Q 66.987692 392.952857 70.504615 392.952857 
z
" clip-path="url(#p498cff469d)" style="fill: #e65100"/>
   </g>
   <g id="patch_27">
    <path d="M 70.504615 547.958571 
L 69.097846 547.958571 
Q 72.614769 547.958571 72.614769 544.435714 
L 72.614769 442.272857 
Q 72.614769 438.75 69.097846 438.75 
L 70.504615 438.75 
Q 66.987692 438.75 66.987692 442.272857 
L 66.987692 544.435714 
Q 66.987692 547.958571 70.504615 547.958571 
z
" clip-path="url(#p498cff469d)" style="fill: #e65100"/>
   </g>
   <g id="patch_28">
    <path d="M 351.858462 237.947143 
L 350.451692 237.947143 
Q 353.968615 237.947143 353.968615 234.424286 
L 353.968615 132.261429 
Q 353.968615 128.738571 350.451692 128.738571 
L 351.858462 128.738571 
Q 348.341538 128.738571 348.341538 132.261429 
L 348.341538 234.424286 
Q 348.341538 237.947143 351.858462 237.947143 
z
" clip-path="url(#p498cff469d)" style="fill: #2e7d32"/>
   </g>
   <g id="patch_29">
    <path d="M 351.858462 392.952857 
L 350.451692 392.952857 
Q 353.968615 392.952857 353.968615 389.43 
L 353.968615 287.267143 
Q 353.968615 283.744286 350.451692 283.744286 
L 351.858462 283.744286 
Q 348.341538 283.744286 348.341538 287.267143 
L 348.341538 389.43 
Q 348.341538 392.952857 351.858462 392.952857 
z
" clip-path="url(#p498cff469d)" style="fill: #2e7d32"/>
   </g>
   <g id="patch_30">
    <path d="M 351.858462 547.958571 
L 350.451692 547.958571 
Q 353.968615 547.958571 353.968615 544.435714 
L 353.968615 442.272857 
Q 353.968615 438.75 350.451692 438.75 
L 351.858462 438.75 
Q 348.341538 438.75 348.341538 442.272857 
L 348.341538 544.435714 
Q 348.341538 547.958571 351.858462 547.958571 
z
" clip-path="url(#p498cff469d)" style="fill: #2e7d32"/>
   </g>
   <g id="patch_31">
    <path d="M 633.212308 237.947143 
L 631.805538 237.947143 
Q 635.322462 237.947143 635.322462 234.424286 
L 635.322462 132.261429 
Q 635.322462 128.738571 631.805538 128.738571 
L 633.212308 128.738571 
Q 629.695385 128.738571 629.695385 132.261429 
L 629.695385 234.424286 
Q 629.695385 237.947143 633.212308 237.947143 
z
" clip-path="url(#p498cff469d)" style="fill: #1565c0"/>
   </g>
   <g id="patch_32">
    <path d="M 633.212308 392.952857 
L 631.805538 392.952857 
Q 635.322462 392.952857 635.322462 389.43 
L 635.322462 287.267143 
Q 635.322462 283.744286 631.805538 283.744286 
L 633.212308 283.744286 
Q 629.695385 283.744286 629.695385 287.267143 
L 629.695385 389.43 
Q 629.695385 392.952857 633.212308 392.952857 
z
" clip-path="url(#p498cff469d)" style="fill: #1565c0"/>
   </g>
   <g id="patch_33">
    <path d="M 633.212308 547.958571 
L 631.805538 547.958571 
Q 635.322462 547.958571 635.322462 544.435714 
L 635.322462 442.272857 
Q 635.322462 438.75 631.805538 438.75 
L 633.212308 438.75 
Q 629.695385 438.75 629.695385 442.272857 
L 629.695385 544.435714 
Q 629.695385 547.958571 633.212308 547.958571 
z
" clip-path="url(#p498cff469d)" style="fill: #1565c0"/>
   </g>
   <g id="patch_34">
    <path d="M 151.393846 842.117143 
L 149.987077 842.117143 
Q 153.504 842.117143 153.504 838.594286 
L 153.504 796.32 
Q 153.504 792.797143 149.987077 792.797143 
L 151.393846 792.797143 
Q 147.876923 792.797143 147.876923 796.32 
L 147.876923 838.594286 
Q 147.876923 842.117143 151.393846 842.117143 
z
" clip-path="url(#p498cff469d)" style="fill: #1b5e20"/>
   </g>
   <g id="text_2">
    <!-- T07 · Inviting Parents &amp; Students to Your Class -->
    <g style="fill: #ffffff" transform="translate(217.259519 41.1445) scale(0.16 -0.16)">
     <defs>
      <path id="DejaVuSans-Bold-54" d="M 31 4666 
L 4331 4666 
L 4331 3756 
L 2784 3756 
L 2784 0 
L 1581 0 
L 1581 3756 
L 31 3756 
L 31 4666 
z
" transform="scale(0.015625)"/>
      <path id="DejaVuSans-Bold-30" d="M 2944 2338 
Q 2944 3213 2780 3570 
Q 2616 3928 2228 3928 
Q 1841 3928 1675 3570 
Q 1509 3213 1509 2338 
Q 1509 1453 1675 1090 
Q 1841 728 2228 728 
Q 2613 728 2778 1090 
Q 2944 1453 2944 2338 
z
M 4147 2328 
Q 4147 1169 3647 539 
Q 3147 -91 2228 -91 
Q 1306 -91 806 539 
Q 306 1169 306 2328 
Q 306 3491 806 4120 
Q 1306 4750 2228 4750 
Q 3147 4750 3647 4120 
Q 4147 3491 4147 2328 
z
" transform="scale(0.015625)"/>
      <path id="DejaVuSans-Bold-37" d="M 428 4666 
L 3944 4666 
L 3944 3988 
L 2125 0 
L 953 0 
L 2675 3781 
L 428 3781 
L 428 4666 
z
" transform="scale(0.015625)"/>
      <path id="DejaVuSans-Bold-20" transform="scale(0.015625)"/>
      <path id="DejaVuSans-Bold-b7" d="M 653 2828 
L 1778 2828 
L 1778 1619 
L 653 1619 
L 653 2828 
z
" transform="scale(0.015625)"/>
      <path id="DejaVuSans-Bold-49" d="M 588 4666 
L 1791 4666 
L 1791 0 
L 588 0 
L 588 4666 
z
" transform="scale(0.015625)"/>
      <path id="DejaVuSans-Bold-6e" d="M 4056 2131 
L 4056 0 
L 2931 0 
L 2931 347 
L 2931 1631 
Q 2931 2084 2911 2256 
Q 2891 2428 2841 2509 
Q 2775 2619 2662 2680 
Q 2550 2741 2406 2741 
Q 2056 2741 1856 2470 
Q 1656 2200 1656 1722 
L 1656 0 
L 538 0 
L 538 3500 
L 1656 3500 
L 1656 2988 
Q 1909 3294 2193 3439 
Q 2478 3584 2822 3584 
Q 3428 3584 3742 3212 
Q 4056 2841 4056 2131 
z
" transform="scale(0.015625)"/>
      <path id="DejaVuSans-Bold-76" d="M 97 3500 
L 1216 3500 
L 2088 1081 
L 2956 3500 
L 4078 3500 
L 2700 0 
L 1472 0 
L 97 3500 
z
" transform="scale(0.015625)"/>
      <path id="DejaVuSans-Bold-69" d="M 538 3500 
L 1656 3500 
L 1656 0 
L 538 0 
L 538 3500 
z
M 538 4863 
L 1656 4863 
L 1656 3950 
L 538 3950 
L 538 4863 
z
" transform="scale(0.015625)"/>
      <path id="DejaVuSans-Bold-74" d="M 1759 4494 
L 1759 3500 
L 2913 3500 
L 2913 2700 
L 1759 2700 
L 1759 1216 
Q 1759 972 1856 886 
Q 1953 800 2241 800 
L 2816 800 
L 2816 0 
L 1856 0 
Q 1194 0 917 276 
Q 641 553 641 1216 
L 641 2700 
L 84 2700 
L 84 3500 
L 641 3500 
L 641 4494 
L 1759 4494 
z
" transform="scale(0.015625)"/>
      <path id="DejaVuSans-Bold-67" d="M 2919 594 
Q 2688 288 2409 144 
Q 2131 0 1766 0 
Q 1125 0 706 504 
Q 288 1009 288 1791 
Q 288 2575 706 3076 
Q 1125 3578 1766 3578 
Q 2131 3578 2409 3434 
Q 2688 3291 2919 2981 
L 2919 3500 
L 4044 3500 
L 4044 353 
Q 4044 -491 3511 -936 
Q 2978 -1381 1966 -1381 
Q 1638 -1381 1331 -1331 
Q 1025 -1281 716 -1178 
L 716 -306 
Q 1009 -475 1290 -558 
Q 1572 -641 1856 -641 
Q 2406 -641 2662 -400 
Q 2919 -159 2919 353 
L 2919 594 
z
M 2181 2772 
Q 1834 2772 1640 2515 
Q 1447 2259 1447 1791 
Q 1447 1309 1634 1061 
Q 1822 813 2181 813 
Q 2531 813 2725 1069 
Q 2919 1325 2919 1791 
Q 2919 2259 2725 2515 
Q 2531 2772 2181 2772 
z
" transform="scale(0.015625)"/>
      <path id="DejaVuSans-Bold-50" d="M 588 4666 
L 2584 4666 
Q 3475 4666 3951 4270 
Q 4428 3875 4428 3144 
Q 4428 2409 3951 2014 
Q 3475 1619 2584 1619 
L 1791 1619 
L 1791 0 
L 588 0 
L 588 4666 
z
M 1791 3794 
L 1791 2491 
L 2456 2491 
Q 2806 2491 2997 2661 
Q 3188 2831 3188 3144 
Q 3188 3456 2997 3625 
Q 2806 3794 2456 3794 
L 1791 3794 
z
" transform="scale(0.015625)"/>
      <path id="DejaVuSans-Bold-61" d="M 2106 1575 
Q 1756 1575 1579 1456 
Q 1403 1338 1403 1106 
Q 1403 894 1545 773 
Q 1688 653 1941 653 
Q 2256 653 2472 879 
Q 2688 1106 2688 1447 
L 2688 1575 
L 2106 1575 
z
M 3816 1997 
L 3816 0 
L 2688 0 
L 2688 519 
Q 2463 200 2181 54 
Q 1900 -91 1497 -91 
Q 953 -91 614 226 
Q 275 544 275 1050 
Q 275 1666 698 1953 
Q 1122 2241 2028 2241 
L 2688 2241 
L 2688 2328 
Q 2688 2594 2478 2717 
Q 2269 2841 1825 2841 
Q 1466 2841 1156 2769 
Q 847 2697 581 2553 
L 581 3406 
Q 941 3494 1303 3539 
Q 1666 3584 2028 3584 
Q 2975 3584 3395 3211 
Q 3816 2838 3816 1997 
z
" transform="scale(0.015625)"/>
      <path id="DejaVuSans-Bold-72" d="M 3138 2547 
Q 2991 2616 2845 2648 
Q 2700 2681 2553 2681 
Q 2122 2681 1889 2404 
Q 1656 2128 1656 1613 
L 1656 0 
L 538 0 
L 538 3500 
L 1656 3500 
L 1656 2925 
Q 1872 3269 2151 3426 
Q 2431 3584 2822 3584 
Q 2878 3584 2943 3579 
Q 3009 3575 3134 3559 
L 3138 2547 
z
" transform="scale(0.015625)"/>
      <path id="DejaVuSans-Bold-65" d="M 4031 1759 
L 4031 1441 
L 1416 1441 
Q 1456 1047 1700 850 
Q 1944 653 2381 653 
Q 2734 653 3104 758 
Q 3475 863 3866 1075 
L 3866 213 
Q 3469 63 3072 -14 
Q 2675 -91 2278 -91 
Q 1328 -91 801 392 
Q 275 875 275 1747 
Q 275 2603 792 3093 
Q 1309 3584 2216 3584 
Q 3041 3584 3536 3087 
Q 4031 2591 4031 1759 
z
M 2881 2131 
Q 2881 2450 2695 2645 
Q 2509 2841 2209 2841 
Q 1884 2841 1681 2658 
Q 1478 2475 1428 2131 
L 2881 2131 
z
" transform="scale(0.015625)"/>
      <path id="DejaVuSans-Bold-73" d="M 3272 3391 
L 3272 2541 
Q 2913 2691 2578 2766 
Q 2244 2841 1947 2841 
Q 1628 2841 1473 2761 
Q 1319 2681 1319 2516 
Q 1319 2381 1436 2309 
Q 1553 2238 1856 2203 
L 2053 2175 
Q 2913 2066 3209 1816 
Q 3506 1566 3506 1031 
Q 3506 472 3093 190 
Q 2681 -91 1863 -91 
Q 1516 -91 1145 -36 
Q 775 19 384 128 
L 384 978 
Q 719 816 1070 734 
Q 1422 653 1784 653 
Q 2113 653 2278 743 
Q 2444 834 2444 1013 
Q 2444 1163 2330 1236 
Q 2216 1309 1875 1350 
L 1678 1375 
Q 931 1469 631 1722 
Q 331 1975 331 2491 
Q 331 3047 712 3315 
Q 1094 3584 1881 3584 
Q 2191 3584 2531 3537 
Q 2872 3491 3272 3391 
z
" transform="scale(0.015625)"/>
      <path id="DejaVuSans-Bold-26" d="M 2497 3097 
L 3775 1691 
Q 3941 1909 4027 2181 
Q 4113 2453 4128 2797 
L 5100 2797 
Q 5053 2228 4879 1784 
Q 4706 1341 4397 1006 
L 5313 0 
L 3988 0 
L 3681 341 
Q 3353 122 2990 15 
Q 2628 -91 2222 -91 
Q 1400 -91 892 342 
Q 384 775 384 1459 
Q 384 1916 607 2267 
Q 831 2619 1338 2950 
Q 1206 3116 1143 3281 
Q 1081 3447 1081 3628 
Q 1081 4138 1478 4444 
Q 1875 4750 2534 4750 
Q 2819 4750 3126 4704 
Q 3434 4659 3769 4569 
L 3769 3700 
Q 3475 3850 3212 3922 
Q 2950 3994 2700 3994 
Q 2459 3994 2326 3901 
Q 2194 3809 2194 3641 
Q 2194 3534 2270 3398 
Q 2347 3263 2497 3097 
z
M 1875 2322 
Q 1672 2175 1569 1989 
Q 1466 1803 1466 1581 
Q 1466 1222 1731 969 
Q 1997 716 2369 716 
Q 2578 716 2759 780 
Q 2941 844 3097 972 
L 1875 2322 
z
" transform="scale(0.015625)"/>
      <path id="DejaVuSans-Bold-53" d="M 3834 4519 
L 3834 3531 
Q 3450 3703 3084 3790 
Q 2719 3878 2394 3878 
Q 1963 3878 1756 3759 
Q 1550 3641 1550 3391 
Q 1550 3203 1689 3098 
Q 1828 2994 2194 2919 
L 2706 2816 
Q 3484 2659 3812 2340 
Q 4141 2022 4141 1434 
Q 4141 663 3683 286 
Q 3225 -91 2284 -91 
Q 1841 -91 1394 -6 
Q 947 78 500 244 
L 500 1259 
Q 947 1022 1364 901 
Q 1781 781 2169 781 
Q 2563 781 2772 912 
Q 2981 1044 2981 1288 
Q 2981 1506 2839 1625 
Q 2697 1744 2272 1838 
L 1806 1941 
Q 1106 2091 782 2419 
Q 459 2747 459 3303 
Q 459 4000 909 4375 
Q 1359 4750 2203 4750 
Q 2588 4750 2994 4692 
Q 3400 4634 3834 4519 
z
" transform="scale(0.015625)"/>
      <path id="DejaVuSans-Bold-75" d="M 500 1363 
L 500 3500 
L 1625 3500 
L 1625 3150 
Q 1625 2866 1622 2436 
Q 1619 2006 1619 1863 
Q 1619 1441 1641 1255 
Q 1663 1069 1716 984 
Q 1784 875 1895 815 
Q 2006 756 2150 756 
Q 2500 756 2700 1025 
Q 2900 1294 2900 1772 
L 2900 3500 
L 4019 3500 
L 4019 0 
L 2900 0 
L 2900 506 
Q 2647 200 2364 54 
Q 2081 -91 1741 -91 
Q 1134 -91 817 281 
Q 500 653 500 1363 
z
" transform="scale(0.015625)"/>
      <path id="DejaVuSans-Bold-64" d="M 2919 2988 
L 2919 4863 
L 4044 4863 
L 4044 0 
L 2919 0 
L 2919 506 
Q 2688 197 2409 53 
Q 2131 -91 1766 -91 
Q 1119 -91 703 423 
Q 288 938 288 1747 
Q 288 2556 703 3070 
Q 1119 3584 1766 3584 
Q 2128 3584 2408 3439 
Q 2688 3294 2919 2988 
z
M 2181 722 
Q 2541 722 2730 984 
Q 2919 1247 2919 1747 
Q 2919 2247 2730 2509 
Q 2541 2772 2181 2772 
Q 1825 2772 1636 2509 
Q 1447 2247 1447 1747 
Q 1447 1247 1636 984 
Q 1825 722 2181 722 
z
" transform="scale(0.015625)"/>
      <path id="DejaVuSans-Bold-6f" d="M 2203 2784 
Q 1831 2784 1636 2517 
Q 1441 2250 1441 1747 
Q 1441 1244 1636 976 
Q 1831 709 2203 709 
Q 2569 709 2762 976 
Q 2956 1244 2956 1747 
Q 2956 2250 2762 2517 
Q 2569 2784 2203 2784 
z
M 2203 3584 
Q 3106 3584 3614 3096 
Q 4122 2609 4122 1747 
Q 4122 884 3614 396 
Q 3106 -91 2203 -91 
Q 1297 -91 786 396 
Q 275 884 275 1747 
Q 275 2609 786 3096 
Q 1297 3584 2203 3584 
z
" transform="scale(0.015625)"/>
      <path id="DejaVuSans-Bold-59" d="M -63 4666 
L 1253 4666 
L 2316 3003 
L 3378 4666 
L 4697 4666 
L 2919 1966 
L 2919 0 
L 1716 0 
L 1716 1966 
L -63 4666 
z
" transform="scale(0.015625)"/>
      <path id="DejaVuSans-Bold-43" d="M 4288 256 
Q 3956 84 3597 -3 
Q 3238 -91 2847 -91 
Q 1681 -91 1000 561 
Q 319 1213 319 2328 
Q 319 3447 1000 4098 
Q 1681 4750 2847 4750 
Q 3238 4750 3597 4662 
Q 3956 4575 4288 4403 
L 4288 3438 
Q 3953 3666 3628 3772 
Q 3303 3878 2944 3878 
Q 2300 3878 1931 3465 
Q 1563 3053 1563 2328 
Q 1563 1606 1931 1193 
Q 2300 781 2944 781 
Q 3303 781 3628 887 
Q 3953 994 4288 1222 
L 4288 256 
z
" transform="scale(0.015625)"/>
      <path id="DejaVuSans-Bold-6c" d="M 538 4863 
L 1656 4863 
L 1656 0 
L 538 0 
L 538 4863 
z
" transform="scale(0.015625)"/>
     </defs>
     <use xlink:href="#DejaVuSans-Bold-54"/>
     <use xlink:href="#DejaVuSans-Bold-30" transform="translate(68.212891 0)"/>
     <use xlink:href="#DejaVuSans-Bold-37" transform="translate(137.792969 0)"/>
     <use xlink:href="#DejaVuSans-Bold-20" transform="translate(207.373047 0)"/>
     <use xlink:href="#DejaVuSans-Bold-b7" transform="translate(242.1875 0)"/>
     <use xlink:href="#DejaVuSans-Bold-20" transform="translate(280.175781 0)"/>
     <use xlink:href="#DejaVuSans-Bold-49" transform="translate(314.990234 0)"/>
     <use xlink:href="#DejaVuSans-Bold-6e" transform="translate(352.197266 0)"/>
     <use xlink:href="#DejaVuSans-Bold-76" transform="translate(423.388672 0)"/>
     <use xlink:href="#DejaVuSans-Bold-69" transform="translate(488.574219 0)"/>
     <use xlink:href="#DejaVuSans-Bold-74" transform="translate(522.851562 0)"/>
     <use xlink:href="#DejaVuSans-Bold-69" transform="translate(570.654297 0)"/>
     <use xlink:href="#DejaVuSans-Bold-6e" transform="translate(604.931641 0)"/>
     <use xlink:href="#DejaVuSans-Bold-67" transform="translate(676.123047 0)"/>
     <use xlink:href="#DejaVuSans-Bold-20" transform="translate(747.705078 0)"/>
     <use xlink:href="#DejaVuSans-Bold-50" transform="translate(782.519531 0)"/>
     <use xlink:href="#DejaVuSans-Bold-61" transform="translate(853.185547 0)"/>
     <use xlink:href="#DejaVuSans-Bold-72" transform="translate(920.666016 0)"/>
     <use xlink:href="#DejaVuSans-Bold-65" transform="translate(969.982422 0)"/>
     <use xlink:href="#DejaVuSans-Bold-6e" transform="translate(1037.804688 0)"/>
     <use xlink:href="#DejaVuSans-Bold-74" transform="translate(1108.996094 0)"/>
     <use xlink:href="#DejaVuSans-Bold-73" transform="translate(1156.798828 0)"/>
     <use xlink:href="#DejaVuSans-Bold-20" transform="translate(1216.320312 0)"/>
     <use xlink:href="#DejaVuSans-Bold-26" transform="translate(1251.134766 0)"/>
     <use xlink:href="#DejaVuSans-Bold-20" transform="translate(1338.341797 0)"/>
     <use xlink:href="#DejaVuSans-Bold-53" transform="translate(1373.15625 0)"/>
     <use xlink:href="#DejaVuSans-Bold-74" transform="translate(1445.177734 0)"/>
     <use xlink:href="#DejaVuSans-Bold-75" transform="translate(1492.980469 0)"/>
     <use xlink:href="#DejaVuSans-Bold-64" transform="translate(1564.171875 0)"/>
     <use xlink:href="#DejaVuSans-Bold-65" transform="translate(1635.753906 0)"/>
     <use xlink:href="#DejaVuSans-Bold-6e" transform="translate(1703.576172 0)"/>
     <use xlink:href="#DejaVuSans-Bold-74" transform="translate(1774.767578 0)"/>
     <use xlink:href="#DejaVuSans-Bold-73" transform="translate(1822.570312 0)"/>
     <use xlink:href="#DejaVuSans-Bold-20" transform="translate(1882.091797 0)"/>
     <use xlink:href="#DejaVuSans-Bold-74" transform="translate(1916.90625 0)"/>
     <use xlink:href="#DejaVuSans-Bold-6f" transform="translate(1964.708984 0)"/>
     <use xlink:href="#DejaVuSans-Bold-20" transform="translate(2033.410156 0)"/>
     <use xlink:href="#DejaVuSans-Bold-59" transform="translate(2068.224609 0)"/>
     <use xlink:href="#DejaVuSans-Bold-6f" transform="translate(2131.511719 0)"/>
     <use xlink:href="#DejaVuSans-Bold-75" transform="translate(2200.212891 0)"/>
     <use xlink:href="#DejaVuSans-Bold-72" transform="translate(2271.404297 0)"/>
     <use xlink:href="#DejaVuSans-Bold-20" transform="translate(2320.720703 0)"/>
     <use xlink:href="#DejaVuSans-Bold-43" transform="translate(2355.535156 0)"/>
     <use xlink:href="#DejaVuSans-Bold-6c" transform="translate(2428.923828 0)"/>
     <use xlink:href="#DejaVuSans-Bold-61" transform="translate(2463.201172 0)"/>
     <use xlink:href="#DejaVuSans-Bold-73" transform="translate(2530.681641 0)"/>
     <use xlink:href="#DejaVuSans-Bold-73" transform="translate(2590.203125 0)"/>
    </g>
   </g>
   <g id="text_3">
    <!-- Three easy ways to get people into your ClassBridge class -->
    <g style="fill: #ffffff; opacity: 0.88" transform="translate(283.322175 67.734232) scale(0.1 -0.1)">
     <defs>
      <path id="DejaVuSans-68" d="M 3513 2113 
L 3513 0 
L 2938 0 
L 2938 2094 
Q 2938 2591 2744 2837 
Q 2550 3084 2163 3084 
Q 1697 3084 1428 2787 
Q 1159 2491 1159 1978 
L 1159 0 
L 581 0 
L 581 4863 
L 1159 4863 
L 1159 2956 
Q 1366 3272 1645 3428 
Q 1925 3584 2291 3584 
Q 2894 3584 3203 3211 
Q 3513 2838 3513 2113 
z
" transform="scale(0.015625)"/>
      <path id="DejaVuSans-77" d="M 269 3500 
L 844 3500 
L 1563 769 
L 2278 3500 
L 2956 3500 
L 3675 769 
L 4391 3500 
L 4966 3500 
L 4050 0 
L 3372 0 
L 2619 2869 
L 1863 0 
L 1184 0 
L 269 3500 
z
" transform="scale(0.015625)"/>
      <path id="DejaVuSans-74" d="M 1172 4494 
L 1172 3500 
L 2356 3500 
L 2356 3053 
L 1172 3053 
L 1172 1153 
Q 1172 725 1289 603 
Q 1406 481 1766 481 
L 2356 481 
L 2356 0 
L 1766 0 
Q 1100 0 847 248 
Q 594 497 594 1153 
L 594 3053 
L 172 3053 
L 172 3500 
L 594 3500 
L 594 4494 
L 1172 4494 
z
" transform="scale(0.015625)"/>
      <path id="DejaVuSans-70" d="M 1159 525 
L 1159 -1331 
L 581 -1331 
L 581 3500 
L 1159 3500 
L 1159 2969 
Q 1341 3281 1617 3432 
Q 1894 3584 2278 3584 
Q 2916 3584 3314 3078 
Q 3713 2572 3713 1747 
Q 3713 922 3314 415 
Q 2916 -91 2278 -91 
Q 1894 -91 1617 61 
Q 1341 213 1159 525 
z
M 3116 1747 
Q 3116 2381 2855 2742 
Q 2594 3103 2138 3103 
Q 1681 3103 1420 2742 
Q 1159 2381 1159 1747 
Q 1159 1113 1420 752 
Q 1681 391 2138 391 
Q 2594 391 2855 752 
Q 3116 1113 3116 1747 
z
" transform="scale(0.015625)"/>
     </defs>
     <use xlink:href="#DejaVuSans-54"/>
     <use xlink:href="#DejaVuSans-68" transform="translate(61.083984 0)"/>
     <use xlink:href="#DejaVuSans-72" transform="translate(124.462891 0)"/>
     <use xlink:href="#DejaVuSans-65" transform="translate(163.326172 0)"/>
     <use xlink:href="#DejaVuSans-65" transform="translate(224.849609 0)"/>
     <use xlink:href="#DejaVuSans-20" transform="translate(286.373047 0)"/>
     <use xlink:href="#DejaVuSans-65" transform="translate(318.160156 0)"/>
     <use xlink:href="#DejaVuSans-61" transform="translate(379.683594 0)"/>
     <use xlink:href="#DejaVuSans-73" transform="translate(440.962891 0)"/>
     <use xlink:href="#DejaVuSans-79" transform="translate(493.0625 0)"/>
     <use xlink:href="#DejaVuSans-20" transform="translate(552.242188 0)"/>
     <use xlink:href="#DejaVuSans-77" transform="translate(584.029297 0)"/>
     <use xlink:href="#DejaVuSans-61" transform="translate(665.816406 0)"/>
     <use xlink:href="#DejaVuSans-79" transform="translate(727.095703 0)"/>
     <use xlink:href="#DejaVuSans-73" transform="translate(786.275391 0)"/>
     <use xlink:href="#DejaVuSans-20" transform="translate(838.375 0)"/>
     <use xlink:href="#DejaVuSans-74" transform="translate(870.162109 0)"/>
     <use xlink:href="#DejaVuSans-6f" transform="translate(909.371094 0)"/>
     <use xlink:href="#DejaVuSans-20" transform="translate(970.552734 0)"/>
     <use xlink:href="#DejaVuSans-67" transform="translate(1002.339844 0)"/>
     <use xlink:href="#DejaVuSans-65" transform="translate(1065.816406 0)"/>
     <use xlink:href="#DejaVuSans-74" transform="translate(1127.339844 0)"/>
     <use xlink:href="#DejaVuSans-20" transform="translate(1166.548828 0)"/>
     <use xlink:href="#DejaVuSans-70" transform="translate(1198.335938 0)"/>
     <use xlink:href="#DejaVuSans-65" transform="translate(1261.8125 0)"/>
     <use xlink:href="#DejaVuSans-6f" transform="translate(1323.335938 0)"/>
     <use xlink:href="#DejaVuSans-70" transform="translate(1384.517578 0)"/>
     <use xlink:href="#DejaVuSans-6c" transform="translate(1447.994141 0)"/>
     <use xlink:href="#DejaVuSans-65" transform="translate(1475.777344 0)"/>
     <use xlink:href="#DejaVuSans-20" transform="translate(1537.300781 0)"/>
     <use xlink:href="#DejaVuSans-69" transform="translate(1569.087891 0)"/>
     <use xlink:href="#DejaVuSans-6e" transform="translate(1596.871094 0)"/>
     <use xlink:href="#DejaVuSans-74" transform="translate(1660.25 0)"/>
     <use xlink:href="#DejaVuSans-6f" transform="translate(1699.458984 0)"/>
     <use xlink:href="#DejaVuSans-20" transform="translate(1760.640625 0)"/>
     <use xlink:href="#DejaVuSans-79" transform="translate(1792.427734 0)"/>
     <use xlink:href="#DejaVuSans-6f" transform="translate(1851.607422 0)"/>
     <use xlink:href="#DejaVuSans-75" transform="translate(1912.789062 0)"/>
     <use xlink:href="#DejaVuSans-72" transform="translate(1976.167969 0)"/>
     <use xlink:href="#DejaVuSans-20" transform="translate(2017.28125 0)"/>
     <use xlink:href="#DejaVuSans-43" transform="translate(2049.068359 0)"/>
     <use xlink:href="#DejaVuSans-6c" transform="translate(2118.892578 0)"/>
     <use xlink:href="#DejaVuSans-61" transform="translate(2146.675781 0)"/>
     <use xlink:href="#DejaVuSans-73" transform="translate(2207.955078 0)"/>
     <use xlink:href="#DejaVuSans-73" transform="translate(2260.054688 0)"/>
     <use xlink:href="#DejaVuSans-42" transform="translate(2312.154297 0)"/>
     <use xlink:href="#DejaVuSans-72" transform="translate(2380.757812 0)"/>
     <use xlink:href="#DejaVuSans-69" transform="translate(2421.871094 0)"/>
     <use xlink:href="#DejaVuSans-64" transform="translate(2449.654297 0)"/>
     <use xlink:href="#DejaVuSans-67" transform="translate(2513.130859 0)"/>
     <use xlink:href="#DejaVuSans-65" transform="translate(2576.607422 0)"/>
     <use xlink:href="#DejaVuSans-20" transform="translate(2638.130859 0)"/>
     <use xlink:href="#DejaVuSans-63" transform="translate(2669.917969 0)"/>
     <use xlink:href="#DejaVuSans-6c" transform="translate(2724.898438 0)"/>
     <use xlink:href="#DejaVuSans-61" transform="translate(2752.681641 0)"/>
     <use xlink:href="#DejaVuSans-73" transform="translate(2813.960938 0)"/>
     <use xlink:href="#DejaVuSans-73" transform="translate(2866.060547 0)"/>
    </g>
   </g>
   <g id="text_4">
    <!-- Path A -->
    <g style="fill: #ffffff" transform="translate(164.578966 88.90904) scale(0.1 -0.1)">
     <defs>
      <path id="DejaVuSans-Bold-68" d="M 4056 2131 
L 4056 0 
L 2931 0 
L 2931 347 
L 2931 1625 
Q 2931 2084 2911 2256 
Q 2891 2428 2841 2509 
Q 2775 2619 2662 2680 
Q 2550 2741 2406 2741 
Q 2056 2741 1856 2470 
Q 1656 2200 1656 1722 
L 1656 0 
L 538 0 
L 538 4863 
L 1656 4863 
L 1656 2988 
Q 1909 3294 2193 3439 
Q 2478 3584 2822 3584 
Q 3428 3584 3742 3212 
Q 4056 2841 4056 2131 
z
" transform="scale(0.015625)"/>
      <path id="DejaVuSans-Bold-41" d="M 3419 850 
L 1538 850 
L 1241 0 
L 31 0 
L 1759 4666 
L 3194 4666 
L 4922 0 
L 3713 0 
L 3419 850 
z
M 1838 1716 
L 3116 1716 
L 2478 3572 
L 1838 1716 
z
" transform="scale(0.015625)"/>
     </defs>
     <use xlink:href="#DejaVuSans-Bold-50"/>
     <use xlink:href="#DejaVuSans-Bold-61" transform="translate(70.666016 0)"/>
     <use xlink:href="#DejaVuSans-Bold-74" transform="translate(138.146484 0)"/>
     <use xlink:href="#DejaVuSans-Bold-68" transform="translate(185.949219 0)"/>
     <use xlink:href="#DejaVuSans-Bold-20" transform="translate(257.140625 0)"/>
     <use xlink:href="#DejaVuSans-Bold-41" transform="translate(291.955078 0)"/>
    </g>
    <!-- Share Class Code -->
    <g style="fill: #ffffff" transform="translate(134.389123 100.106853) scale(0.1 -0.1)">
     <use xlink:href="#DejaVuSans-Bold-53"/>
     <use xlink:href="#DejaVuSans-Bold-68" transform="translate(72.021484 0)"/>
     <use xlink:href="#DejaVuSans-Bold-61" transform="translate(143.212891 0)"/>
     <use xlink:href="#DejaVuSans-Bold-72" transform="translate(210.693359 0)"/>
     <use xlink:href="#DejaVuSans-Bold-65" transform="translate(260.009766 0)"/>
     <use xlink:href="#DejaVuSans-Bold-20" transform="translate(327.832031 0)"/>
     <use xlink:href="#DejaVuSans-Bold-43" transform="translate(362.646484 0)"/>
     <use xlink:href="#DejaVuSans-Bold-6c" transform="translate(436.035156 0)"/>
     <use xlink:href="#DejaVuSans-Bold-61" transform="translate(470.3125 0)"/>
     <use xlink:href="#DejaVuSans-Bold-73" transform="translate(537.792969 0)"/>
     <use xlink:href="#DejaVuSans-Bold-73" transform="translate(597.314453 0)"/>
     <use xlink:href="#DejaVuSans-Bold-20" transform="translate(656.835938 0)"/>
     <use xlink:href="#DejaVuSans-Bold-43" transform="translate(691.650391 0)"/>
     <use xlink:href="#DejaVuSans-Bold-6f" transform="translate(765.039062 0)"/>
     <use xlink:href="#DejaVuSans-Bold-64" transform="translate(833.740234 0)"/>
     <use xlink:href="#DejaVuSans-Bold-65" transform="translate(905.322266 0)"/>
    </g>
   </g>
   <g id="text_5">
    <!-- Post the code on -->
    <g style="fill: #1a1a1a" transform="translate(146.931007 180.645302) scale(0.095 -0.095)">
     <defs>
      <path id="DejaVuSans-50" d="M 1259 4147 
L 1259 2394 
L 2053 2394 
Q 2494 2394 2734 2622 
Q 2975 2850 2975 3272 
Q 2975 3691 2734 3919 
Q 2494 4147 2053 4147 
L 1259 4147 
z
M 628 4666 
L 2053 4666 
Q 2838 4666 3239 4311 
Q 3641 3956 3641 3272 
Q 3641 2581 3239 2228 
Q 2838 1875 2053 1875 
L 1259 1875 
L 1259 0 
L 628 0 
L 628 4666 
z
" transform="scale(0.015625)"/>
     </defs>
     <use xlink:href="#DejaVuSans-50"/>
     <use xlink:href="#DejaVuSans-6f" transform="translate(56.677734 0)"/>
     <use xlink:href="#DejaVuSans-73" transform="translate(117.859375 0)"/>
     <use xlink:href="#DejaVuSans-74" transform="translate(169.958984 0)"/>
     <use xlink:href="#DejaVuSans-20" transform="translate(209.167969 0)"/>
     <use xlink:href="#DejaVuSans-74" transform="translate(240.955078 0)"/>
     <use xlink:href="#DejaVuSans-68" transform="translate(280.164062 0)"/>
     <use xlink:href="#DejaVuSans-65" transform="translate(343.542969 0)"/>
     <use xlink:href="#DejaVuSans-20" transform="translate(405.066406 0)"/>
     <use xlink:href="#DejaVuSans-63" transform="translate(436.853516 0)"/>
     <use xlink:href="#DejaVuSans-6f" transform="translate(491.833984 0)"/>
     <use xlink:href="#DejaVuSans-64" transform="translate(553.015625 0)"/>
     <use xlink:href="#DejaVuSans-65" transform="translate(616.492188 0)"/>
     <use xlink:href="#DejaVuSans-20" transform="translate(678.015625 0)"/>
     <use xlink:href="#DejaVuSans-6f" transform="translate(709.802734 0)"/>
     <use xlink:href="#DejaVuSans-6e" transform="translate(770.984375 0)"/>
    </g>
    <!-- your board or email -->
    <g style="fill: #1a1a1a" transform="translate(139.676866 191.283224) scale(0.095 -0.095)">
     <defs>
      <path id="DejaVuSans-6d" d="M 3328 2828 
Q 3544 3216 3844 3400 
Q 4144 3584 4550 3584 
Q 5097 3584 5394 3201 
Q 5691 2819 5691 2113 
L 5691 0 
L 5113 0 
L 5113 2094 
Q 5113 2597 4934 2840 
Q 4756 3084 4391 3084 
Q 3944 3084 3684 2787 
Q 3425 2491 3425 1978 
L 3425 0 
L 2847 0 
L 2847 2094 
Q 2847 2600 2669 2842 
Q 2491 3084 2119 3084 
Q 1678 3084 1418 2786 
Q 1159 2488 1159 1978 
L 1159 0 
L 581 0 
L 581 3500 
L 1159 3500 
L 1159 2956 
Q 1356 3278 1631 3431 
Q 1906 3584 2284 3584 
Q 2666 3584 2933 3390 
Q 3200 3197 3328 2828 
z
" transform="scale(0.015625)"/>
     </defs>
     <use xlink:href="#DejaVuSans-79"/>
     <use xlink:href="#DejaVuSans-6f" transform="translate(59.179688 0)"/>
     <use xlink:href="#DejaVuSans-75" transform="translate(120.361328 0)"/>
     <use xlink:href="#DejaVuSans-72" transform="translate(183.740234 0)"/>
     <use xlink:href="#DejaVuSans-20" transform="translate(224.853516 0)"/>
     <use xlink:href="#DejaVuSans-62" transform="translate(256.640625 0)"/>
     <use xlink:href="#DejaVuSans-6f" transform="translate(320.117188 0)"/>
     <use xlink:href="#DejaVuSans-61" transform="translate(381.298828 0)"/>
     <use xlink:href="#DejaVuSans-72" transform="translate(442.578125 0)"/>
     <use xlink:href="#DejaVuSans-64" transform="translate(481.941406 0)"/>
     <use xlink:href="#DejaVuSans-20" transform="translate(545.417969 0)"/>
     <use xlink:href="#DejaVuSans-6f" transform="translate(577.205078 0)"/>
     <use xlink:href="#DejaVuSans-72" transform="translate(638.386719 0)"/>
     <use xlink:href="#DejaVuSans-20" transform="translate(679.5 0)"/>
     <use xlink:href="#DejaVuSans-65" transform="translate(711.287109 0)"/>
     <use xlink:href="#DejaVuSans-6d" transform="translate(772.810547 0)"/>
     <use xlink:href="#DejaVuSans-61" transform="translate(870.222656 0)"/>
     <use xlink:href="#DejaVuSans-69" transform="translate(931.501953 0)"/>
     <use xlink:href="#DejaVuSans-6c" transform="translate(959.285156 0)"/>
    </g>
   </g>
   <g id="text_6">
    <!-- Students type code -->
    <g style="fill: #1a1a1a" transform="translate(140.30253 335.651017) scale(0.095 -0.095)">
     <defs>
      <path id="DejaVuSans-53" d="M 3425 4513 
L 3425 3897 
Q 3066 4069 2747 4153 
Q 2428 4238 2131 4238 
Q 1616 4238 1336 4038 
Q 1056 3838 1056 3469 
Q 1056 3159 1242 3001 
Q 1428 2844 1947 2747 
L 2328 2669 
Q 3034 2534 3370 2195 
Q 3706 1856 3706 1288 
Q 3706 609 3251 259 
Q 2797 -91 1919 -91 
Q 1588 -91 1214 -16 
Q 841 59 441 206 
L 441 856 
Q 825 641 1194 531 
Q 1563 422 1919 422 
Q 2459 422 2753 634 
Q 3047 847 3047 1241 
Q 3047 1584 2836 1778 
Q 2625 1972 2144 2069 
L 1759 2144 
Q 1053 2284 737 2584 
Q 422 2884 422 3419 
Q 422 4038 858 4394 
Q 1294 4750 2059 4750 
Q 2388 4750 2728 4690 
Q 3069 4631 3425 4513 
z
" transform="scale(0.015625)"/>
     </defs>
     <use xlink:href="#DejaVuSans-53"/>
     <use xlink:href="#DejaVuSans-74" transform="translate(63.476562 0)"/>
     <use xlink:href="#DejaVuSans-75" transform="translate(102.685547 0)"/>
     <use xlink:href="#DejaVuSans-64" transform="translate(166.064453 0)"/>
     <use xlink:href="#DejaVuSans-65" transform="translate(229.541016 0)"/>
     <use xlink:href="#DejaVuSans-6e" transform="translate(291.064453 0)"/>
     <use xlink:href="#DejaVuSans-74" transform="translate(354.443359 0)"/>
     <use xlink:href="#DejaVuSans-73" transform="translate(393.652344 0)"/>
     <use xlink:href="#DejaVuSans-20" transform="translate(445.751953 0)"/>
     <use xlink:href="#DejaVuSans-74" transform="translate(477.539062 0)"/>
     <use xlink:href="#DejaVuSans-79" transform="translate(516.748047 0)"/>
     <use xlink:href="#DejaVuSans-70" transform="translate(575.927734 0)"/>
     <use xlink:href="#DejaVuSans-65" transform="translate(639.404297 0)"/>
     <use xlink:href="#DejaVuSans-20" transform="translate(700.927734 0)"/>
     <use xlink:href="#DejaVuSans-63" transform="translate(732.714844 0)"/>
     <use xlink:href="#DejaVuSans-6f" transform="translate(787.695312 0)"/>
     <use xlink:href="#DejaVuSans-64" transform="translate(848.876953 0)"/>
     <use xlink:href="#DejaVuSans-65" transform="translate(912.353516 0)"/>
    </g>
    <!-- into ClassBridge -->
    <g style="fill: #1a1a1a" transform="translate(147.97378 346.288939) scale(0.095 -0.095)">
     <use xlink:href="#DejaVuSans-69"/>
     <use xlink:href="#DejaVuSans-6e" transform="translate(27.783203 0)"/>
     <use xlink:href="#DejaVuSans-74" transform="translate(91.162109 0)"/>
     <use xlink:href="#DejaVuSans-6f" transform="translate(130.371094 0)"/>
     <use xlink:href="#DejaVuSans-20" transform="translate(191.552734 0)"/>
     <use xlink:href="#DejaVuSans-43" transform="translate(223.339844 0)"/>
     <use xlink:href="#DejaVuSans-6c" transform="translate(293.164062 0)"/>
     <use xlink:href="#DejaVuSans-61" transform="translate(320.947266 0)"/>
     <use xlink:href="#DejaVuSans-73" transform="translate(382.226562 0)"/>
     <use xlink:href="#DejaVuSans-73" transform="translate(434.326172 0)"/>
     <use xlink:href="#DejaVuSans-42" transform="translate(486.425781 0)"/>
     <use xlink:href="#DejaVuSans-72" transform="translate(555.029297 0)"/>
     <use xlink:href="#DejaVuSans-69" transform="translate(596.142578 0)"/>
     <use xlink:href="#DejaVuSans-64" transform="translate(623.925781 0)"/>
     <use xlink:href="#DejaVuSans-67" transform="translate(687.402344 0)"/>
     <use xlink:href="#DejaVuSans-65" transform="translate(750.878906 0)"/>
    </g>
   </g>
   <g id="text_7">
    <!-- Instant enrollment -->
    <g style="fill: #1a1a1a" transform="translate(142.775499 490.656731) scale(0.095 -0.095)">
     <defs>
      <path id="DejaVuSans-49" d="M 628 4666 
L 1259 4666 
L 1259 0 
L 628 0 
L 628 4666 
z
" transform="scale(0.015625)"/>
     </defs>
     <use xlink:href="#DejaVuSans-49"/>
     <use xlink:href="#DejaVuSans-6e" transform="translate(29.492188 0)"/>
     <use xlink:href="#DejaVuSans-73" transform="translate(92.871094 0)"/>
     <use xlink:href="#DejaVuSans-74" transform="translate(144.970703 0)"/>
     <use xlink:href="#DejaVuSans-61" transform="translate(184.179688 0)"/>
     <use xlink:href="#DejaVuSans-6e" transform="translate(245.458984 0)"/>
     <use xlink:href="#DejaVuSans-74" transform="translate(308.837891 0)"/>
     <use xlink:href="#DejaVuSans-20" transform="translate(348.046875 0)"/>
     <use xlink:href="#DejaVuSans-65" transform="translate(379.833984 0)"/>
     <use xlink:href="#DejaVuSans-6e" transform="translate(441.357422 0)"/>
     <use xlink:href="#DejaVuSans-72" transform="translate(504.736328 0)"/>
     <use xlink:href="#DejaVuSans-6f" transform="translate(543.599609 0)"/>
     <use xlink:href="#DejaVuSans-6c" transform="translate(604.78125 0)"/>
     <use xlink:href="#DejaVuSans-6c" transform="translate(632.564453 0)"/>
     <use xlink:href="#DejaVuSans-6d" transform="translate(660.347656 0)"/>
     <use xlink:href="#DejaVuSans-65" transform="translate(757.759766 0)"/>
     <use xlink:href="#DejaVuSans-6e" transform="translate(819.283203 0)"/>
     <use xlink:href="#DejaVuSans-74" transform="translate(882.662109 0)"/>
    </g>
    <!-- (or approval required) -->
    <g style="fill: #1a1a1a" transform="translate(134.344249 501.294653) scale(0.095 -0.095)">
     <defs>
      <path id="DejaVuSans-28" d="M 1984 4856 
Q 1566 4138 1362 3434 
Q 1159 2731 1159 2009 
Q 1159 1288 1364 580 
Q 1569 -128 1984 -844 
L 1484 -844 
Q 1016 -109 783 600 
Q 550 1309 550 2009 
Q 550 2706 781 3412 
Q 1013 4119 1484 4856 
L 1984 4856 
z
" transform="scale(0.015625)"/>
      <path id="DejaVuSans-76" d="M 191 3500 
L 800 3500 
L 1894 563 
L 2988 3500 
L 3597 3500 
L 2284 0 
L 1503 0 
L 191 3500 
z
" transform="scale(0.015625)"/>
      <path id="DejaVuSans-71" d="M 947 1747 
Q 947 1113 1208 752 
Q 1469 391 1925 391 
Q 2381 391 2643 752 
Q 2906 1113 2906 1747 
Q 2906 2381 2643 2742 
Q 2381 3103 1925 3103 
Q 1469 3103 1208 2742 
Q 947 2381 947 1747 
z
M 2906 525 
Q 2725 213 2448 61 
Q 2172 -91 1784 -91 
Q 1150 -91 751 415 
Q 353 922 353 1747 
Q 353 2572 751 3078 
Q 1150 3584 1784 3584 
Q 2172 3584 2448 3432 
Q 2725 3281 2906 2969 
L 2906 3500 
L 3481 3500 
L 3481 -1331 
L 2906 -1331 
L 2906 525 
z
" transform="scale(0.015625)"/>
      <path id="DejaVuSans-29" d="M 513 4856 
L 1013 4856 
Q 1481 4119 1714 3412 
Q 1947 2706 1947 2009 
Q 1947 1309 1714 600 
Q 1481 -109 1013 -844 
L 513 -844 
Q 928 -128 1133 580 
Q 1338 1288 1338 2009 
Q 1338 2731 1133 3434 
Q 928 4138 513 4856 
z
" transform="scale(0.015625)"/>
     </defs>
     <use xlink:href="#DejaVuSans-28"/>
     <use xlink:href="#DejaVuSans-6f" transform="translate(39.013672 0)"/>
     <use xlink:href="#DejaVuSans-72" transform="translate(100.195312 0)"/>
     <use xlink:href="#DejaVuSans-20" transform="translate(141.308594 0)"/>
     <use xlink:href="#DejaVuSans-61" transform="translate(173.095703 0)"/>
     <use xlink:href="#DejaVuSans-70" transform="translate(234.375 0)"/>
     <use xlink:href="#DejaVuSans-70" transform="translate(297.851562 0)"/>
     <use xlink:href="#DejaVuSans-72" transform="translate(361.328125 0)"/>
     <use xlink:href="#DejaVuSans-6f" transform="translate(400.191406 0)"/>
     <use xlink:href="#DejaVuSans-76" transform="translate(461.373047 0)"/>
     <use xlink:href="#DejaVuSans-61" transform="translate(520.552734 0)"/>
     <use xlink:href="#DejaVuSans-6c" transform="translate(581.832031 0)"/>
     <use xlink:href="#DejaVuSans-20" transform="translate(609.615234 0)"/>
     <use xlink:href="#DejaVuSans-72" transform="translate(641.402344 0)"/>
     <use xlink:href="#DejaVuSans-65" transform="translate(680.265625 0)"/>
     <use xlink:href="#DejaVuSans-71" transform="translate(741.789062 0)"/>
     <use xlink:href="#DejaVuSans-75" transform="translate(805.265625 0)"/>
     <use xlink:href="#DejaVuSans-69" transform="translate(868.644531 0)"/>
     <use xlink:href="#DejaVuSans-72" transform="translate(896.427734 0)"/>
     <use xlink:href="#DejaVuSans-65" transform="translate(935.291016 0)"/>
     <use xlink:href="#DejaVuSans-64" transform="translate(996.814453 0)"/>
     <use xlink:href="#DejaVuSans-29" transform="translate(1060.291016 0)"/>
    </g>
   </g>
   <g id="text_8">
    <!-- Path B -->
    <g style="fill: #ffffff" transform="translate(445.991406 88.90904) scale(0.1 -0.1)">
     <defs>
      <path id="DejaVuSans-Bold-42" d="M 2456 2859 
Q 2741 2859 2887 2984 
Q 3034 3109 3034 3353 
Q 3034 3594 2887 3720 
Q 2741 3847 2456 3847 
L 1791 3847 
L 1791 2859 
L 2456 2859 
z
M 2497 819 
Q 2859 819 3042 972 
Q 3225 1125 3225 1434 
Q 3225 1738 3044 1889 
Q 2863 2041 2497 2041 
L 1791 2041 
L 1791 819 
L 2497 819 
z
M 3616 2497 
Q 4003 2384 4215 2081 
Q 4428 1778 4428 1338 
Q 4428 663 3972 331 
Q 3516 0 2584 0 
L 588 0 
L 588 4666 
L 2394 4666 
Q 3366 4666 3802 4372 
Q 4238 4078 4238 3431 
Q 4238 3091 4078 2852 
Q 3919 2613 3616 2497 
z
" transform="scale(0.015625)"/>
     </defs>
     <use xlink:href="#DejaVuSans-Bold-50"/>
     <use xlink:href="#DejaVuSans-Bold-61" transform="translate(70.666016 0)"/>
     <use xlink:href="#DejaVuSans-Bold-74" transform="translate(138.146484 0)"/>
     <use xlink:href="#DejaVuSans-Bold-68" transform="translate(185.949219 0)"/>
     <use xlink:href="#DejaVuSans-Bold-20" transform="translate(257.140625 0)"/>
     <use xlink:href="#DejaVuSans-Bold-42" transform="translate(291.955078 0)"/>
    </g>
    <!-- Email Invite -->
    <g style="fill: #ffffff" transform="translate(431.057031 100.106853) scale(0.1 -0.1)">
     <defs>
      <path id="DejaVuSans-Bold-45" d="M 588 4666 
L 3834 4666 
L 3834 3756 
L 1791 3756 
L 1791 2888 
L 3713 2888 
L 3713 1978 
L 1791 1978 
L 1791 909 
L 3903 909 
L 3903 0 
L 588 0 
L 588 4666 
z
" transform="scale(0.015625)"/>
      <path id="DejaVuSans-Bold-6d" d="M 3781 2919 
Q 3994 3244 4286 3414 
Q 4578 3584 4928 3584 
Q 5531 3584 5847 3212 
Q 6163 2841 6163 2131 
L 6163 0 
L 5038 0 
L 5038 1825 
Q 5041 1866 5042 1909 
Q 5044 1953 5044 2034 
Q 5044 2406 4934 2573 
Q 4825 2741 4581 2741 
Q 4263 2741 4089 2478 
Q 3916 2216 3909 1719 
L 3909 0 
L 2784 0 
L 2784 1825 
Q 2784 2406 2684 2573 
Q 2584 2741 2328 2741 
Q 2006 2741 1831 2477 
Q 1656 2213 1656 1722 
L 1656 0 
L 531 0 
L 531 3500 
L 1656 3500 
L 1656 2988 
Q 1863 3284 2130 3434 
Q 2397 3584 2719 3584 
Q 3081 3584 3359 3409 
Q 3638 3234 3781 2919 
z
" transform="scale(0.015625)"/>
     </defs>
     <use xlink:href="#DejaVuSans-Bold-45"/>
     <use xlink:href="#DejaVuSans-Bold-6d" transform="translate(68.310547 0)"/>
     <use xlink:href="#DejaVuSans-Bold-61" transform="translate(172.509766 0)"/>
     <use xlink:href="#DejaVuSans-Bold-69" transform="translate(239.990234 0)"/>
     <use xlink:href="#DejaVuSans-Bold-6c" transform="translate(274.267578 0)"/>
     <use xlink:href="#DejaVuSans-Bold-20" transform="translate(308.544922 0)"/>
     <use xlink:href="#DejaVuSans-Bold-49" transform="translate(343.359375 0)"/>
     <use xlink:href="#DejaVuSans-Bold-6e" transform="translate(380.566406 0)"/>
     <use xlink:href="#DejaVuSans-Bold-76" transform="translate(451.757812 0)"/>
     <use xlink:href="#DejaVuSans-Bold-69" transform="translate(516.943359 0)"/>
     <use xlink:href="#DejaVuSans-Bold-74" transform="translate(551.220703 0)"/>
     <use xlink:href="#DejaVuSans-Bold-65" transform="translate(599.023438 0)"/>
    </g>
   </g>
   <g id="text_9">
    <!-- Enter student email -->
    <g style="fill: #1a1a1a" transform="translate(420.891181 180.645302) scale(0.095 -0.095)">
     <defs>
      <path id="DejaVuSans-45" d="M 628 4666 
L 3578 4666 
L 3578 4134 
L 1259 4134 
L 1259 2753 
L 3481 2753 
L 3481 2222 
L 1259 2222 
L 1259 531 
L 3634 531 
L 3634 0 
L 628 0 
L 628 4666 
z
" transform="scale(0.015625)"/>
     </defs>
     <use xlink:href="#DejaVuSans-45"/>
     <use xlink:href="#DejaVuSans-6e" transform="translate(63.183594 0)"/>
     <use xlink:href="#DejaVuSans-74" transform="translate(126.5625 0)"/>
     <use xlink:href="#DejaVuSans-65" transform="translate(165.771484 0)"/>
     <use xlink:href="#DejaVuSans-72" transform="translate(227.294922 0)"/>
     <use xlink:href="#DejaVuSans-20" transform="translate(268.408203 0)"/>
     <use xlink:href="#DejaVuSans-73" transform="translate(300.195312 0)"/>
     <use xlink:href="#DejaVuSans-74" transform="translate(352.294922 0)"/>
     <use xlink:href="#DejaVuSans-75" transform="translate(391.503906 0)"/>
     <use xlink:href="#DejaVuSans-64" transform="translate(454.882812 0)"/>
     <use xlink:href="#DejaVuSans-65" transform="translate(518.359375 0)"/>
     <use xlink:href="#DejaVuSans-6e" transform="translate(579.882812 0)"/>
     <use xlink:href="#DejaVuSans-74" transform="translate(643.261719 0)"/>
     <use xlink:href="#DejaVuSans-20" transform="translate(682.470703 0)"/>
     <use xlink:href="#DejaVuSans-65" transform="translate(714.257812 0)"/>
     <use xlink:href="#DejaVuSans-6d" transform="translate(775.78125 0)"/>
     <use xlink:href="#DejaVuSans-61" transform="translate(873.193359 0)"/>
     <use xlink:href="#DejaVuSans-69" transform="translate(934.472656 0)"/>
     <use xlink:href="#DejaVuSans-6c" transform="translate(962.255859 0)"/>
    </g>
    <!-- in Invite panel -->
    <g style="fill: #1a1a1a" transform="translate(434.061298 191.283224) scale(0.095 -0.095)">
     <use xlink:href="#DejaVuSans-69"/>
     <use xlink:href="#DejaVuSans-6e" transform="translate(27.783203 0)"/>
     <use xlink:href="#DejaVuSans-20" transform="translate(91.162109 0)"/>
     <use xlink:href="#DejaVuSans-49" transform="translate(122.949219 0)"/>
     <use xlink:href="#DejaVuSans-6e" transform="translate(152.441406 0)"/>
     <use xlink:href="#DejaVuSans-76" transform="translate(215.820312 0)"/>
     <use xlink:href="#DejaVuSans-69" transform="translate(275 0)"/>
     <use xlink:href="#DejaVuSans-74" transform="translate(302.783203 0)"/>
     <use xlink:href="#DejaVuSans-65" transform="translate(341.992188 0)"/>
     <use xlink:href="#DejaVuSans-20" transform="translate(403.515625 0)"/>
     <use xlink:href="#DejaVuSans-70" transform="translate(435.302734 0)"/>
     <use xlink:href="#DejaVuSans-61" transform="translate(498.779297 0)"/>
     <use xlink:href="#DejaVuSans-6e" transform="translate(560.058594 0)"/>
     <use xlink:href="#DejaVuSans-65" transform="translate(623.4375 0)"/>
     <use xlink:href="#DejaVuSans-6c" transform="translate(684.960938 0)"/>
    </g>
   </g>
   <g id="text_10">
    <!-- Student gets invite -->
    <g style="fill: #1a1a1a" transform="translate(422.678368 335.651017) scale(0.095 -0.095)">
     <use xlink:href="#DejaVuSans-53"/>
     <use xlink:href="#DejaVuSans-74" transform="translate(63.476562 0)"/>
     <use xlink:href="#DejaVuSans-75" transform="translate(102.685547 0)"/>
     <use xlink:href="#DejaVuSans-64" transform="translate(166.064453 0)"/>
     <use xlink:href="#DejaVuSans-65" transform="translate(229.541016 0)"/>
     <use xlink:href="#DejaVuSans-6e" transform="translate(291.064453 0)"/>
     <use xlink:href="#DejaVuSans-74" transform="translate(354.443359 0)"/>
     <use xlink:href="#DejaVuSans-20" transform="translate(393.652344 0)"/>
     <use xlink:href="#DejaVuSans-67" transform="translate(425.439453 0)"/>
     <use xlink:href="#DejaVuSans-65" transform="translate(488.916016 0)"/>
     <use xlink:href="#DejaVuSans-74" transform="translate(550.439453 0)"/>
     <use xlink:href="#DejaVuSans-73" transform="translate(589.648438 0)"/>
     <use xlink:href="#DejaVuSans-20" transform="translate(641.748047 0)"/>
     <use xlink:href="#DejaVuSans-69" transform="translate(673.535156 0)"/>
     <use xlink:href="#DejaVuSans-6e" transform="translate(701.318359 0)"/>
     <use xlink:href="#DejaVuSans-76" transform="translate(764.697266 0)"/>
     <use xlink:href="#DejaVuSans-69" transform="translate(823.876953 0)"/>
     <use xlink:href="#DejaVuSans-74" transform="translate(851.660156 0)"/>
     <use xlink:href="#DejaVuSans-65" transform="translate(890.869141 0)"/>
    </g>
    <!-- link by email -->
    <g style="fill: #1a1a1a" transform="translate(437.571103 346.288939) scale(0.095 -0.095)">
     <defs>
      <path id="DejaVuSans-6b" d="M 581 4863 
L 1159 4863 
L 1159 1991 
L 2875 3500 
L 3609 3500 
L 1753 1863 
L 3688 0 
L 2938 0 
L 1159 1709 
L 1159 0 
L 581 0 
L 581 4863 
z
" transform="scale(0.015625)"/>
     </defs>
     <use xlink:href="#DejaVuSans-6c"/>
     <use xlink:href="#DejaVuSans-69" transform="translate(27.783203 0)"/>
     <use xlink:href="#DejaVuSans-6e" transform="translate(55.566406 0)"/>
     <use xlink:href="#DejaVuSans-6b" transform="translate(118.945312 0)"/>
     <use xlink:href="#DejaVuSans-20" transform="translate(176.855469 0)"/>
     <use xlink:href="#DejaVuSans-62" transform="translate(208.642578 0)"/>
     <use xlink:href="#DejaVuSans-79" transform="translate(272.119141 0)"/>
     <use xlink:href="#DejaVuSans-20" transform="translate(331.298828 0)"/>
     <use xlink:href="#DejaVuSans-65" transform="translate(363.085938 0)"/>
     <use xlink:href="#DejaVuSans-6d" transform="translate(424.609375 0)"/>
     <use xlink:href="#DejaVuSans-61" transform="translate(522.021484 0)"/>
     <use xlink:href="#DejaVuSans-69" transform="translate(583.300781 0)"/>
     <use xlink:href="#DejaVuSans-6c" transform="translate(611.083984 0)"/>
    </g>
   </g>
   <g id="text_11">
    <!-- They click and -->
    <g style="fill: #1a1a1a" transform="translate(433.702079 490.656731) scale(0.095 -0.095)">
     <use xlink:href="#DejaVuSans-54"/>
     <use xlink:href="#DejaVuSans-68" transform="translate(61.083984 0)"/>
     <use xlink:href="#DejaVuSans-65" transform="translate(124.462891 0)"/>
     <use xlink:href="#DejaVuSans-79" transform="translate(185.986328 0)"/>
     <use xlink:href="#DejaVuSans-20" transform="translate(245.166016 0)"/>
     <use xlink:href="#DejaVuSans-63" transform="translate(276.953125 0)"/>
     <use xlink:href="#DejaVuSans-6c" transform="translate(331.933594 0)"/>
     <use xlink:href="#DejaVuSans-69" transform="translate(359.716797 0)"/>
     <use xlink:href="#DejaVuSans-63" transform="translate(387.5 0)"/>
     <use xlink:href="#DejaVuSans-6b" transform="translate(442.480469 0)"/>
     <use xlink:href="#DejaVuSans-20" transform="translate(500.390625 0)"/>
     <use xlink:href="#DejaVuSans-61" transform="translate(532.177734 0)"/>
     <use xlink:href="#DejaVuSans-6e" transform="translate(593.457031 0)"/>
     <use xlink:href="#DejaVuSans-64" transform="translate(656.835938 0)"/>
    </g>
    <!-- join instantly -->
    <g style="fill: #1a1a1a" transform="translate(437.270517 501.294653) scale(0.095 -0.095)">
     <defs>
      <path id="DejaVuSans-6a" d="M 603 3500 
L 1178 3500 
L 1178 -63 
Q 1178 -731 923 -1031 
Q 669 -1331 103 -1331 
L -116 -1331 
L -116 -844 
L 38 -844 
Q 366 -844 484 -692 
Q 603 -541 603 -63 
L 603 3500 
z
M 603 4863 
L 1178 4863 
L 1178 4134 
L 603 4134 
L 603 4863 
z
" transform="scale(0.015625)"/>
     </defs>
     <use xlink:href="#DejaVuSans-6a"/>
     <use xlink:href="#DejaVuSans-6f" transform="translate(27.783203 0)"/>
     <use xlink:href="#DejaVuSans-69" transform="translate(88.964844 0)"/>
     <use xlink:href="#DejaVuSans-6e" transform="translate(116.748047 0)"/>
     <use xlink:href="#DejaVuSans-20" transform="translate(180.126953 0)"/>
     <use xlink:href="#DejaVuSans-69" transform="translate(211.914062 0)"/>
     <use xlink:href="#DejaVuSans-6e" transform="translate(239.697266 0)"/>
     <use xlink:href="#DejaVuSans-73" transform="translate(303.076172 0)"/>
     <use xlink:href="#DejaVuSans-74" transform="translate(355.175781 0)"/>
     <use xlink:href="#DejaVuSans-61" transform="translate(394.384766 0)"/>
     <use xlink:href="#DejaVuSans-6e" transform="translate(455.664062 0)"/>
     <use xlink:href="#DejaVuSans-74" transform="translate(519.042969 0)"/>
     <use xlink:href="#DejaVuSans-6c" transform="translate(558.251953 0)"/>
     <use xlink:href="#DejaVuSans-79" transform="translate(586.035156 0)"/>
    </g>
   </g>
   <g id="text_12">
    <!-- Path C -->
    <g style="fill: #ffffff" transform="translate(727.486659 88.90904) scale(0.1 -0.1)">
     <use xlink:href="#DejaVuSans-Bold-50"/>
     <use xlink:href="#DejaVuSans-Bold-61" transform="translate(70.666016 0)"/>
     <use xlink:href="#DejaVuSans-Bold-74" transform="translate(138.146484 0)"/>
     <use xlink:href="#DejaVuSans-Bold-68" transform="translate(185.949219 0)"/>
     <use xlink:href="#DejaVuSans-Bold-20" transform="translate(257.140625 0)"/>
     <use xlink:href="#DejaVuSans-Bold-43" transform="translate(291.955078 0)"/>
    </g>
    <!-- Parent Links -->
    <g style="fill: #ffffff" transform="translate(710.539002 100.106853) scale(0.1 -0.1)">
     <defs>
      <path id="DejaVuSans-Bold-4c" d="M 588 4666 
L 1791 4666 
L 1791 909 
L 3903 909 
L 3903 0 
L 588 0 
L 588 4666 
z
" transform="scale(0.015625)"/>
      <path id="DejaVuSans-Bold-6b" d="M 538 4863 
L 1656 4863 
L 1656 2216 
L 2944 3500 
L 4244 3500 
L 2534 1894 
L 4378 0 
L 3022 0 
L 1656 1459 
L 1656 0 
L 538 0 
L 538 4863 
z
" transform="scale(0.015625)"/>
     </defs>
     <use xlink:href="#DejaVuSans-Bold-50"/>
     <use xlink:href="#DejaVuSans-Bold-61" transform="translate(70.666016 0)"/>
     <use xlink:href="#DejaVuSans-Bold-72" transform="translate(138.146484 0)"/>
     <use xlink:href="#DejaVuSans-Bold-65" transform="translate(187.462891 0)"/>
     <use xlink:href="#DejaVuSans-Bold-6e" transform="translate(255.285156 0)"/>
     <use xlink:href="#DejaVuSans-Bold-74" transform="translate(326.476562 0)"/>
     <use xlink:href="#DejaVuSans-Bold-20" transform="translate(374.279297 0)"/>
     <use xlink:href="#DejaVuSans-Bold-4c" transform="translate(409.09375 0)"/>
     <use xlink:href="#DejaVuSans-Bold-69" transform="translate(472.814453 0)"/>
     <use xlink:href="#DejaVuSans-Bold-6e" transform="translate(507.091797 0)"/>
     <use xlink:href="#DejaVuSans-Bold-6b" transform="translate(578.283203 0)"/>
     <use xlink:href="#DejaVuSans-Bold-73" transform="translate(644.787109 0)"/>
    </g>
   </g>
   <g id="text_13">
    <!-- Parent searches for -->
    <g style="fill: #1a1a1a" transform="translate(703.344949 180.645302) scale(0.095 -0.095)">
     <defs>
      <path id="DejaVuSans-66" d="M 2375 4863 
L 2375 4384 
L 1825 4384 
Q 1516 4384 1395 4259 
Q 1275 4134 1275 3809 
L 1275 3500 
L 2222 3500 
L 2222 3053 
L 1275 3053 
L 1275 0 
L 697 0 
L 697 3053 
L 147 3053 
L 147 3500 
L 697 3500 
L 697 3744 
Q 697 4328 969 4595 
Q 1241 4863 1831 4863 
L 2375 4863 
z
" transform="scale(0.015625)"/>
     </defs>
     <use xlink:href="#DejaVuSans-50"/>
     <use xlink:href="#DejaVuSans-61" transform="translate(55.802734 0)"/>
     <use xlink:href="#DejaVuSans-72" transform="translate(117.082031 0)"/>
     <use xlink:href="#DejaVuSans-65" transform="translate(155.945312 0)"/>
     <use xlink:href="#DejaVuSans-6e" transform="translate(217.46875 0)"/>
     <use xlink:href="#DejaVuSans-74" transform="translate(280.847656 0)"/>
     <use xlink:href="#DejaVuSans-20" transform="translate(320.056641 0)"/>
     <use xlink:href="#DejaVuSans-73" transform="translate(351.84375 0)"/>
     <use xlink:href="#DejaVuSans-65" transform="translate(403.943359 0)"/>
     <use xlink:href="#DejaVuSans-61" transform="translate(465.466797 0)"/>
     <use xlink:href="#DejaVuSans-72" transform="translate(526.746094 0)"/>
     <use xlink:href="#DejaVuSans-63" transform="translate(565.609375 0)"/>
     <use xlink:href="#DejaVuSans-68" transform="translate(620.589844 0)"/>
     <use xlink:href="#DejaVuSans-65" transform="translate(683.96875 0)"/>
     <use xlink:href="#DejaVuSans-73" transform="translate(745.492188 0)"/>
     <use xlink:href="#DejaVuSans-20" transform="translate(797.591797 0)"/>
     <use xlink:href="#DejaVuSans-66" transform="translate(829.378906 0)"/>
     <use xlink:href="#DejaVuSans-6f" transform="translate(864.583984 0)"/>
     <use xlink:href="#DejaVuSans-72" transform="translate(925.765625 0)"/>
    </g>
    <!-- your class by name -->
    <g style="fill: #1a1a1a" transform="translate(702.972371 191.283224) scale(0.095 -0.095)">
     <use xlink:href="#DejaVuSans-79"/>
     <use xlink:href="#DejaVuSans-6f" transform="translate(59.179688 0)"/>
     <use xlink:href="#DejaVuSans-75" transform="translate(120.361328 0)"/>
     <use xlink:href="#DejaVuSans-72" transform="translate(183.740234 0)"/>
     <use xlink:href="#DejaVuSans-20" transform="translate(224.853516 0)"/>
     <use xlink:href="#DejaVuSans-63" transform="translate(256.640625 0)"/>
     <use xlink:href="#DejaVuSans-6c" transform="translate(311.621094 0)"/>
     <use xlink:href="#DejaVuSans-61" transform="translate(339.404297 0)"/>
     <use xlink:href="#DejaVuSans-73" transform="translate(400.683594 0)"/>
     <use xlink:href="#DejaVuSans-73" transform="translate(452.783203 0)"/>
     <use xlink:href="#DejaVuSans-20" transform="translate(504.882812 0)"/>
     <use xlink:href="#DejaVuSans-62" transform="translate(536.669922 0)"/>
     <use xlink:href="#DejaVuSans-79" transform="translate(600.146484 0)"/>
     <use xlink:href="#DejaVuSans-20" transform="translate(659.326172 0)"/>
     <use xlink:href="#DejaVuSans-6e" transform="translate(691.113281 0)"/>
     <use xlink:href="#DejaVuSans-61" transform="translate(754.492188 0)"/>
     <use xlink:href="#DejaVuSans-6d" transform="translate(815.771484 0)"/>
     <use xlink:href="#DejaVuSans-65" transform="translate(913.183594 0)"/>
    </g>
   </g>
   <g id="text_14">
    <!-- Sends link request -->
    <g style="fill: #1a1a1a" transform="translate(705.359246 335.651017) scale(0.095 -0.095)">
     <use xlink:href="#DejaVuSans-53"/>
     <use xlink:href="#DejaVuSans-65" transform="translate(63.476562 0)"/>
     <use xlink:href="#DejaVuSans-6e" transform="translate(125 0)"/>
     <use xlink:href="#DejaVuSans-64" transform="translate(188.378906 0)"/>
     <use xlink:href="#DejaVuSans-73" transform="translate(251.855469 0)"/>
     <use xlink:href="#DejaVuSans-20" transform="translate(303.955078 0)"/>
     <use xlink:href="#DejaVuSans-6c" transform="translate(335.742188 0)"/>
     <use xlink:href="#DejaVuSans-69" transform="translate(363.525391 0)"/>
     <use xlink:href="#DejaVuSans-6e" transform="translate(391.308594 0)"/>
     <use xlink:href="#DejaVuSans-6b" transform="translate(454.6875 0)"/>
     <use xlink:href="#DejaVuSans-20" transform="translate(512.597656 0)"/>
     <use xlink:href="#DejaVuSans-72" transform="translate(544.384766 0)"/>
     <use xlink:href="#DejaVuSans-65" transform="translate(583.248047 0)"/>
     <use xlink:href="#DejaVuSans-71" transform="translate(644.771484 0)"/>
     <use xlink:href="#DejaVuSans-75" transform="translate(708.248047 0)"/>
     <use xlink:href="#DejaVuSans-65" transform="translate(771.626953 0)"/>
     <use xlink:href="#DejaVuSans-73" transform="translate(833.150391 0)"/>
     <use xlink:href="#DejaVuSans-74" transform="translate(885.25 0)"/>
    </g>
    <!-- to you -->
    <g style="fill: #1a1a1a" transform="translate(734.26448 346.288939) scale(0.095 -0.095)">
     <use xlink:href="#DejaVuSans-74"/>
     <use xlink:href="#DejaVuSans-6f" transform="translate(39.208984 0)"/>
     <use xlink:href="#DejaVuSans-20" transform="translate(100.390625 0)"/>
     <use xlink:href="#DejaVuSans-79" transform="translate(132.177734 0)"/>
     <use xlink:href="#DejaVuSans-6f" transform="translate(191.357422 0)"/>
     <use xlink:href="#DejaVuSans-75" transform="translate(252.539062 0)"/>
    </g>
   </g>
   <g id="text_15">
    <!-- You approve or -->
    <g style="fill: #1a1a1a" transform="translate(713.775652 490.656731) scale(0.095 -0.095)">
     <defs>
      <path id="DejaVuSans-59" d="M -13 4666 
L 666 4666 
L 1959 2747 
L 3244 4666 
L 3922 4666 
L 2272 2222 
L 2272 0 
L 1638 0 
L 1638 2222 
L -13 4666 
z
" transform="scale(0.015625)"/>
     </defs>
     <use xlink:href="#DejaVuSans-59"/>
     <use xlink:href="#DejaVuSans-6f" transform="translate(47.833984 0)"/>
     <use xlink:href="#DejaVuSans-75" transform="translate(109.015625 0)"/>
     <use xlink:href="#DejaVuSans-20" transform="translate(172.394531 0)"/>
     <use xlink:href="#DejaVuSans-61" transform="translate(204.181641 0)"/>
     <use xlink:href="#DejaVuSans-70" transform="translate(265.460938 0)"/>
     <use xlink:href="#DejaVuSans-70" transform="translate(328.9375 0)"/>
     <use xlink:href="#DejaVuSans-72" transform="translate(392.414062 0)"/>
     <use xlink:href="#DejaVuSans-6f" transform="translate(431.277344 0)"/>
     <use xlink:href="#DejaVuSans-76" transform="translate(492.458984 0)"/>
     <use xlink:href="#DejaVuSans-65" transform="translate(551.638672 0)"/>
     <use xlink:href="#DejaVuSans-20" transform="translate(613.162109 0)"/>
     <use xlink:href="#DejaVuSans-6f" transform="translate(644.949219 0)"/>
     <use xlink:href="#DejaVuSans-72" transform="translate(706.130859 0)"/>
    </g>
    <!-- decline the request -->
    <g style="fill: #1a1a1a" transform="translate(703.280379 501.294653) scale(0.095 -0.095)">
     <use xlink:href="#DejaVuSans-64"/>
     <use xlink:href="#DejaVuSans-65" transform="translate(63.476562 0)"/>
     <use xlink:href="#DejaVuSans-63" transform="translate(125 0)"/>
     <use xlink:href="#DejaVuSans-6c" transform="translate(179.980469 0)"/>
     <use xlink:href="#DejaVuSans-69" transform="translate(207.763672 0)"/>
     <use xlink:href="#DejaVuSans-6e" transform="translate(235.546875 0)"/>
     <use xlink:href="#DejaVuSans-65" transform="translate(298.925781 0)"/>
     <use xlink:href="#DejaVuSans-20" transform="translate(360.449219 0)"/>
     <use xlink:href="#DejaVuSans-74" transform="translate(392.236328 0)"/>
     <use xlink:href="#DejaVuSans-68" transform="translate(431.445312 0)"/>
     <use xlink:href="#DejaVuSans-65" transform="translate(494.824219 0)"/>
     <use xlink:href="#DejaVuSans-20" transform="translate(556.347656 0)"/>
     <use xlink:href="#DejaVuSans-72" transform="translate(588.134766 0)"/>
     <use xlink:href="#DejaVuSans-65" transform="translate(626.998047 0)"/>
     <use xlink:href="#DejaVuSans-71" transform="translate(688.521484 0)"/>
     <use xlink:href="#DejaVuSans-75" transform="translate(751.998047 0)"/>
     <use xlink:href="#DejaVuSans-65" transform="translate(815.376953 0)"/>
     <use xlink:href="#DejaVuSans-73" transform="translate(876.900391 0)"/>
     <use xlink:href="#DejaVuSans-74" transform="translate(929 0)"/>
    </g>
   </g>
   <g id="text_16">
    <!-- ✓  Student (or Parent) is now part of your class -->
    <g style="fill: #1a1a1a" transform="translate(320.850361 820.449487) scale(0.11 -0.11)">
     <defs>
      <path id="DejaVuSans-Bold-2713" d="M 1416 2044 
Q 1538 2044 1600 1844 
Q 1725 1469 1778 1469 
Q 1819 1469 1863 1531 
Q 2741 2938 3488 3806 
Q 3681 4031 4103 4031 
Q 4203 4031 4237 4012 
Q 4272 3994 4272 3966 
Q 4272 3922 4169 3794 
Q 2963 2344 1931 731 
Q 1859 619 1638 619 
Q 1413 619 1372 638 
Q 1266 684 1122 1116 
Q 959 1594 959 1716 
Q 959 1847 1178 1969 
Q 1313 2044 1416 2044 
z
" transform="scale(0.015625)"/>
      <path id="DejaVuSans-Bold-28" d="M 2413 -844 
L 1484 -844 
Q 1006 -72 778 623 
Q 550 1319 550 2003 
Q 550 2688 779 3389 
Q 1009 4091 1484 4856 
L 2413 4856 
Q 2013 4116 1813 3408 
Q 1613 2700 1613 2009 
Q 1613 1319 1811 609 
Q 2009 -100 2413 -844 
z
" transform="scale(0.015625)"/>
      <path id="DejaVuSans-Bold-29" d="M 513 -844 
Q 913 -100 1113 609 
Q 1313 1319 1313 2009 
Q 1313 2700 1113 3408 
Q 913 4116 513 4856 
L 1441 4856 
Q 1916 4091 2145 3389 
Q 2375 2688 2375 2003 
Q 2375 1319 2147 623 
Q 1919 -72 1441 -844 
L 513 -844 
z
" transform="scale(0.015625)"/>
      <path id="DejaVuSans-Bold-77" d="M 225 3500 
L 1313 3500 
L 1900 1088 
L 2491 3500 
L 3425 3500 
L 4013 1113 
L 4603 3500 
L 5691 3500 
L 4769 0 
L 3547 0 
L 2956 2406 
L 2369 0 
L 1147 0 
L 225 3500 
z
" transform="scale(0.015625)"/>
      <path id="DejaVuSans-Bold-70" d="M 1656 506 
L 1656 -1331 
L 538 -1331 
L 538 3500 
L 1656 3500 
L 1656 2988 
Q 1888 3294 2169 3439 
Q 2450 3584 2816 3584 
Q 3463 3584 3878 3070 
Q 4294 2556 4294 1747 
Q 4294 938 3878 423 
Q 3463 -91 2816 -91 
Q 2450 -91 2169 54 
Q 1888 200 1656 506 
z
M 2400 2772 
Q 2041 2772 1848 2508 
Q 1656 2244 1656 1747 
Q 1656 1250 1848 986 
Q 2041 722 2400 722 
Q 2759 722 2948 984 
Q 3138 1247 3138 1747 
Q 3138 2247 2948 2509 
Q 2759 2772 2400 2772 
z
" transform="scale(0.015625)"/>
      <path id="DejaVuSans-Bold-66" d="M 2841 4863 
L 2841 4128 
L 2222 4128 
Q 1984 4128 1890 4042 
Q 1797 3956 1797 3744 
L 1797 3500 
L 2753 3500 
L 2753 2700 
L 1797 2700 
L 1797 0 
L 678 0 
L 678 2700 
L 122 2700 
L 122 3500 
L 678 3500 
L 678 3744 
Q 678 4316 997 4589 
Q 1316 4863 1984 4863 
L 2841 4863 
z
" transform="scale(0.015625)"/>
      <path id="DejaVuSans-Bold-79" d="M 78 3500 
L 1197 3500 
L 2138 1125 
L 2938 3500 
L 4056 3500 
L 2584 -331 
Q 2363 -916 2067 -1148 
Q 1772 -1381 1288 -1381 
L 641 -1381 
L 641 -647 
L 991 -647 
Q 1275 -647 1404 -556 
Q 1534 -466 1606 -231 
L 1638 -134 
L 78 3500 
z
" transform="scale(0.015625)"/>
      <path id="DejaVuSans-Bold-63" d="M 3366 3391 
L 3366 2478 
Q 3138 2634 2908 2709 
Q 2678 2784 2431 2784 
Q 1963 2784 1702 2511 
Q 1441 2238 1441 1747 
Q 1441 1256 1702 982 
Q 1963 709 2431 709 
Q 2694 709 2930 787 
Q 3166 866 3366 1019 
L 3366 103 
Q 3103 6 2833 -42 
Q 2563 -91 2291 -91 
Q 1344 -91 809 395 
Q 275 881 275 1747 
Q 275 2613 809 3098 
Q 1344 3584 2291 3584 
Q 2566 3584 2833 3536 
Q 3100 3488 3366 3391 
z
" transform="scale(0.015625)"/>
     </defs>
     <use xlink:href="#DejaVuSans-Bold-2713"/>
     <use xlink:href="#DejaVuSans-Bold-20" transform="translate(83.789062 0)"/>
     <use xlink:href="#DejaVuSans-Bold-20" transform="translate(118.603516 0)"/>
     <use xlink:href="#DejaVuSans-Bold-53" transform="translate(153.417969 0)"/>
     <use xlink:href="#DejaVuSans-Bold-74" transform="translate(225.439453 0)"/>
     <use xlink:href="#DejaVuSans-Bold-75" transform="translate(273.242188 0)"/>
     <use xlink:href="#DejaVuSans-Bold-64" transform="translate(344.433594 0)"/>
     <use xlink:href="#DejaVuSans-Bold-65" transform="translate(416.015625 0)"/>
     <use xlink:href="#DejaVuSans-Bold-6e" transform="translate(483.837891 0)"/>
     <use xlink:href="#DejaVuSans-Bold-74" transform="translate(555.029297 0)"/>
     <use xlink:href="#DejaVuSans-Bold-20" transform="translate(602.832031 0)"/>
     <use xlink:href="#DejaVuSans-Bold-28" transform="translate(637.646484 0)"/>
     <use xlink:href="#DejaVuSans-Bold-6f" transform="translate(683.349609 0)"/>
     <use xlink:href="#DejaVuSans-Bold-72" transform="translate(752.050781 0)"/>
     <use xlink:href="#DejaVuSans-Bold-20" transform="translate(801.367188 0)"/>
     <use xlink:href="#DejaVuSans-Bold-50" transform="translate(836.181641 0)"/>
     <use xlink:href="#DejaVuSans-Bold-61" transform="translate(906.847656 0)"/>
     <use xlink:href="#DejaVuSans-Bold-72" transform="translate(974.328125 0)"/>
     <use xlink:href="#DejaVuSans-Bold-65" transform="translate(1023.644531 0)"/>
     <use xlink:href="#DejaVuSans-Bold-6e" transform="translate(1091.466797 0)"/>
     <use xlink:href="#DejaVuSans-Bold-74" transform="translate(1162.658203 0)"/>
     <use xlink:href="#DejaVuSans-Bold-29" transform="translate(1210.460938 0)"/>
     <use xlink:href="#DejaVuSans-Bold-20" transform="translate(1256.164062 0)"/>
     <use xlink:href="#DejaVuSans-Bold-69" transform="translate(1290.978516 0)"/>
     <use xlink:href="#DejaVuSans-Bold-73" transform="translate(1325.255859 0)"/>
     <use xlink:href="#DejaVuSans-Bold-20" transform="translate(1384.777344 0)"/>
     <use xlink:href="#DejaVuSans-Bold-6e" transform="translate(1419.591797 0)"/>
     <use xlink:href="#DejaVuSans-Bold-6f" transform="translate(1490.783203 0)"/>
     <use xlink:href="#DejaVuSans-Bold-77" transform="translate(1559.484375 0)"/>
     <use xlink:href="#DejaVuSans-Bold-20" transform="translate(1651.867188 0)"/>
     <use xlink:href="#DejaVuSans-Bold-70" transform="translate(1686.681641 0)"/>
     <use xlink:href="#DejaVuSans-Bold-61" transform="translate(1758.263672 0)"/>
     <use xlink:href="#DejaVuSans-Bold-72" transform="translate(1825.744141 0)"/>
     <use xlink:href="#DejaVuSans-Bold-74" transform="translate(1875.060547 0)"/>
     <use xlink:href="#DejaVuSans-Bold-20" transform="translate(1922.863281 0)"/>
     <use xlink:href="#DejaVuSans-Bold-6f" transform="translate(1957.677734 0)"/>
     <use xlink:href="#DejaVuSans-Bold-66" transform="translate(2026.378906 0)"/>
     <use xlink:href="#DejaVuSans-Bold-20" transform="translate(2069.884766 0)"/>
     <use xlink:href="#DejaVuSans-Bold-79" transform="translate(2104.699219 0)"/>
     <use xlink:href="#DejaVuSans-Bold-6f" transform="translate(2169.884766 0)"/>
     <use xlink:href="#DejaVuSans-Bold-75" transform="translate(2238.585938 0)"/>
     <use xlink:href="#DejaVuSans-Bold-72" transform="translate(2309.777344 0)"/>
     <use xlink:href="#DejaVuSans-Bold-20" transform="translate(2359.09375 0)"/>
     <use xlink:href="#DejaVuSans-Bold-63" transform="translate(2393.908203 0)"/>
     <use xlink:href="#DejaVuSans-Bold-6c" transform="translate(2453.185547 0)"/>
     <use xlink:href="#DejaVuSans-Bold-61" transform="translate(2487.462891 0)"/>
     <use xlink:href="#DejaVuSans-Bold-73" transform="translate(2554.943359 0)"/>
     <use xlink:href="#DejaVuSans-Bold-73" transform="translate(2614.464844 0)"/>
    </g>
   </g>
   <g id="patch_35">
    <path d="M 74.021538 197.434286 
C 77.752334 197.434286 81.330828 195.949524 83.968899 193.307002 
C 86.60697 190.66448 88.089231 187.079948 88.089231 183.342857 
C 88.089231 179.605767 86.60697 176.021235 83.968899 173.378712 
C 81.330828 170.73619 77.752334 169.251429 74.021538 169.251429 
C 70.290743 169.251429 66.712249 170.73619 64.074178 173.378712 
C 61.436107 176.021235 59.953846 179.605767 59.953846 183.342857 
C 59.953846 187.079948 61.436107 190.66448 64.074178 193.307002 
C 66.712249 195.949524 70.290743 197.434286 74.021538 197.434286 
z
" clip-path="url(#p498cff469d)" style="fill: #e65100; stroke: #e65100; stroke-linejoin: miter"/>
   </g>
   <g id="patch_36">
    <path d="M 74.021538 352.44 
C 77.752334 352.44 81.330828 350.955238 83.968899 348.312716 
C 86.60697 345.670194 88.089231 342.085662 88.089231 338.348571 
C 88.089231 334.611481 86.60697 331.026949 83.968899 328.384427 
C 81.330828 325.741905 77.752334 324.257143 74.021538 324.257143 
C 70.290743 324.257143 66.712249 325.741905 64.074178 328.384427 
C 61.436107 331.026949 59.953846 334.611481 59.953846 338.348571 
C 59.953846 342.085662 61.436107 345.670194 64.074178 348.312716 
C 66.712249 350.955238 70.290743 352.44 74.021538 352.44 
z
" clip-path="url(#p498cff469d)" style="fill: #e65100; stroke: #e65100; stroke-linejoin: miter"/>
   </g>
   <g id="patch_37">
    <path d="M 74.021538 507.445714 
C 77.752334 507.445714 81.330828 505.960952 83.968899 503.31843 
C 86.60697 500.675908 88.089231 497.091376 88.089231 493.354286 
C 88.089231 489.617195 86.60697 486.032663 83.968899 483.390141 
C 81.330828 480.747619 77.752334 479.262857 74.021538 479.262857 
C 70.290743 479.262857 66.712249 480.747619 64.074178 483.390141 
C 61.436107 486.032663 59.953846 489.617195 59.953846 493.354286 
C 59.953846 497.091376 61.436107 500.675908 64.074178 503.31843 
C 66.712249 505.960952 70.290743 507.445714 74.021538 507.445714 
z
" clip-path="url(#p498cff469d)" style="fill: #e65100; stroke: #e65100; stroke-linejoin: miter"/>
   </g>
   <g id="patch_38">
    <path d="M 355.375385 197.434286 
C 359.10618 197.434286 362.684674 195.949524 365.322745 193.307002 
C 367.960816 190.66448 369.443077 187.079948 369.443077 183.342857 
C 369.443077 179.605767 367.960816 176.021235 365.322745 173.378712 
C 362.684674 170.73619 359.10618 169.251429 355.375385 169.251429 
C 351.644589 169.251429 348.066095 170.73619 345.428024 173.378712 
C 342.789953 176.021235 341.307692 179.605767 341.307692 183.342857 
C 341.307692 187.079948 342.789953 190.66448 345.428024 193.307002 
C 348.066095 195.949524 351.644589 197.434286 355.375385 197.434286 
z
" clip-path="url(#p498cff469d)" style="fill: #2e7d32; stroke: #2e7d32; stroke-linejoin: miter"/>
   </g>
   <g id="patch_39">
    <path d="M 355.375385 352.44 
C 359.10618 352.44 362.684674 350.955238 365.322745 348.312716 
C 367.960816 345.670194 369.443077 342.085662 369.443077 338.348571 
C 369.443077 334.611481 367.960816 331.026949 365.322745 328.384427 
C 362.684674 325.741905 359.10618 324.257143 355.375385 324.257143 
C 351.644589 324.257143 348.066095 325.741905 345.428024 328.384427 
C 342.789953 331.026949 341.307692 334.611481 341.307692 338.348571 
C 341.307692 342.085662 342.789953 345.670194 345.428024 348.312716 
C 348.066095 350.955238 351.644589 352.44 355.375385 352.44 
z
" clip-path="url(#p498cff469d)" style="fill: #2e7d32; stroke: #2e7d32; stroke-linejoin: miter"/>
   </g>
   <g id="patch_40">
    <path d="M 355.375385 507.445714 
C 359.10618 507.445714 362.684674 505.960952 365.322745 503.31843 
C 367.960816 500.675908 369.443077 497.091376 369.443077 493.354286 
C 369.443077 489.617195 367.960816 486.032663 365.322745 483.390141 
C 362.684674 480.747619 359.10618 479.262857 355.375385 479.262857 
C 351.644589 479.262857 348.066095 480.747619 345.428024 483.390141 
C 342.789953 486.032663 341.307692 489.617195 341.307692 493.354286 
C 341.307692 497.091376 342.789953 500.675908 345.428024 503.31843 
C 348.066095 505.960952 351.644589 507.445714 355.375385 507.445714 
z
" clip-path="url(#p498cff469d)" style="fill: #2e7d32; stroke: #2e7d32; stroke-linejoin: miter"/>
   </g>
   <g id="patch_41">
    <path d="M 636.729231 197.434286 
C 640.460026 197.434286 644.038521 195.949524 646.676591 193.307002 
C 649.314662 190.66448 650.796923 187.079948 650.796923 183.342857 
C 650.796923 179.605767 649.314662 176.021235 646.676591 173.378712 
C 644.038521 170.73619 640.460026 169.251429 636.729231 169.251429 
C 632.998435 169.251429 629.419941 170.73619 626.78187 173.378712 
C 624.143799 176.021235 622.661538 179.605767 622.661538 183.342857 
C 622.661538 187.079948 624.143799 190.66448 626.78187 193.307002 
C 629.419941 195.949524 632.998435 197.434286 636.729231 197.434286 
z
" clip-path="url(#p498cff469d)" style="fill: #1565c0; stroke: #1565c0; stroke-linejoin: miter"/>
   </g>
   <g id="patch_42">
    <path d="M 636.729231 352.44 
C 640.460026 352.44 644.038521 350.955238 646.676591 348.312716 
C 649.314662 345.670194 650.796923 342.085662 650.796923 338.348571 
C 650.796923 334.611481 649.314662 331.026949 646.676591 328.384427 
C 644.038521 325.741905 640.460026 324.257143 636.729231 324.257143 
C 632.998435 324.257143 629.419941 325.741905 626.78187 328.384427 
C 624.143799 331.026949 622.661538 334.611481 622.661538 338.348571 
C 622.661538 342.085662 624.143799 345.670194 626.78187 348.312716 
C 629.419941 350.955238 632.998435 352.44 636.729231 352.44 
z
" clip-path="url(#p498cff469d)" style="fill: #1565c0; stroke: #1565c0; stroke-linejoin: miter"/>
   </g>
   <g id="patch_43">
    <path d="M 636.729231 507.445714 
C 640.460026 507.445714 644.038521 505.960952 646.676591 503.31843 
C 649.314662 500.675908 650.796923 497.091376 650.796923 493.354286 
C 650.796923 489.617195 649.314662 486.032663 646.676591 483.390141 
C 644.038521 480.747619 640.460026 479.262857 636.729231 479.262857 
C 632.998435 479.262857 629.419941 480.747619 626.78187 483.390141 
C 624.143799 486.032663 622.661538 489.617195 622.661538 493.354286 
C 622.661538 497.091376 624.143799 500.675908 626.78187 503.31843 
C 629.419941 505.960952 632.998435 507.445714 636.729231 507.445714 
z
" clip-path="url(#p498cff469d)" style="fill: #1565c0; stroke: #1565c0; stroke-linejoin: miter"/>
   </g>
   <g id="text_17">
    <!-- 1 -->
    <g style="fill: #ffffff" transform="translate(70.890523 185.826295) scale(0.09 -0.09)">
     <defs>
      <path id="DejaVuSans-Bold-31" d="M 750 831 
L 1813 831 
L 1813 3847 
L 722 3622 
L 722 4441 
L 1806 4666 
L 2950 4666 
L 2950 831 
L 4013 831 
L 4013 0 
L 750 0 
L 750 831 
z
" transform="scale(0.015625)"/>
     </defs>
     <use xlink:href="#DejaVuSans-Bold-31"/>
    </g>
   </g>
   <g id="text_18">
    <!-- 2 -->
    <g style="fill: #ffffff" transform="translate(70.890523 340.832009) scale(0.09 -0.09)">
     <defs>
      <path id="DejaVuSans-Bold-32" d="M 1844 884 
L 3897 884 
L 3897 0 
L 506 0 
L 506 884 
L 2209 2388 
Q 2438 2594 2547 2791 
Q 2656 2988 2656 3200 
Q 2656 3528 2436 3728 
Q 2216 3928 1850 3928 
Q 1569 3928 1234 3808 
Q 900 3688 519 3450 
L 519 4475 
Q 925 4609 1322 4679 
Q 1719 4750 2100 4750 
Q 2938 4750 3402 4381 
Q 3866 4013 3866 3353 
Q 3866 2972 3669 2642 
Q 3472 2313 2841 1759 
L 1844 884 
z
" transform="scale(0.015625)"/>
     </defs>
     <use xlink:href="#DejaVuSans-Bold-32"/>
    </g>
   </g>
   <g id="text_19">
    <!-- 3 -->
    <g style="fill: #ffffff" transform="translate(70.890523 495.837723) scale(0.09 -0.09)">
     <defs>
      <path id="DejaVuSans-Bold-33" d="M 2981 2516 
Q 3453 2394 3698 2092 
Q 3944 1791 3944 1325 
Q 3944 631 3412 270 
Q 2881 -91 1863 -91 
Q 1503 -91 1142 -33 
Q 781 25 428 141 
L 428 1069 
Q 766 900 1098 814 
Q 1431 728 1753 728 
Q 2231 728 2486 893 
Q 2741 1059 2741 1369 
Q 2741 1688 2480 1852 
Q 2219 2016 1709 2016 
L 1228 2016 
L 1228 2791 
L 1734 2791 
Q 2188 2791 2409 2933 
Q 2631 3075 2631 3366 
Q 2631 3634 2415 3781 
Q 2200 3928 1806 3928 
Q 1516 3928 1219 3862 
Q 922 3797 628 3669 
L 628 4550 
Q 984 4650 1334 4700 
Q 1684 4750 2022 4750 
Q 2931 4750 3382 4451 
Q 3834 4153 3834 3553 
Q 3834 3144 3618 2883 
Q 3403 2622 2981 2516 
z
" transform="scale(0.015625)"/>
     </defs>
     <use xlink:href="#DejaVuSans-Bold-33"/>
    </g>
   </g>
   <g id="text_20">
    <!-- 1 -->
    <g style="fill: #ffffff" transform="translate(352.244369 185.826295) scale(0.09 -0.09)">
     <use xlink:href="#DejaVuSans-Bold-31"/>
    </g>
   </g>
   <g id="text_21">
    <!-- 2 -->
    <g style="fill: #ffffff" transform="translate(352.244369 340.832009) scale(0.09 -0.09)">
     <use xlink:href="#DejaVuSans-Bold-32"/>
    </g>
   </g>
   <g id="text_22">
    <!-- 3 -->
    <g style="fill: #ffffff" transform="translate(352.244369 495.837723) scale(0.09 -0.09)">
     <use xlink:href="#DejaVuSans-Bold-33"/>
    </g>
   </g>
   <g id="text_23">
    <!-- 1 -->
    <g style="fill: #ffffff" transform="translate(633.598215 185.826295) scale(0.09 -0.09)">
     <use xlink:href="#DejaVuSans-Bold-31"/>
    </g>
   </g>
   <g id="text_24">
    <!-- 2 -->
    <g style="fill: #ffffff" transform="translate(633.598215 340.832009) scale(0.09 -0.09)">
     <use xlink:href="#DejaVuSans-Bold-32"/>
    </g>
   </g>
   <g id="text_25">
    <!-- 3 -->
    <g style="fill: #ffffff" transform="translate(633.598215 495.837723) scale(0.09 -0.09)">
     <use xlink:href="#DejaVuSans-Bold-33"/>
    </g>
   </g>
  </g>
 </g>
 <defs>
  <clipPath id="p498cff469d">
   <rect x="7.2" y="7.2" width="914.4" height="986.4"/>
  </clipPath>
 </defs>
</svg>
